<?xml version="1.0" standalone="no"?>
<!DOCTYPE svg PUBLIC "-//W3C//DTD SVG 1.1//EN" "http://www.w3.org/Graphics/SVG/1.1/DTD/svg11.dtd" >
<svg xmlns="http://www.w3.org/2000/svg">
<metadata></metadata>
<defs>
<font id="take_out_the_garbage_internRg" horiz-adv-x="1014" >
<font-face units-per-em="2048" ascent="1638" descent="-410" />
<missing-glyph horiz-adv-x="508" />
<glyph horiz-adv-x="0" />
<glyph horiz-adv-x="682" />
<glyph horiz-adv-x="0" />
<glyph horiz-adv-x="0" />
<glyph horiz-adv-x="0" />
<glyph unicode="&#xd;" horiz-adv-x="508" />
<glyph unicode=" "  horiz-adv-x="508" />
<glyph unicode="&#x09;" horiz-adv-x="508" />
<glyph unicode="&#xa0;" horiz-adv-x="508" />
<glyph unicode="!" horiz-adv-x="353" d="M0 1308h4l-4 4v3q11 39 28 39l168 -7q108 -37 108 -42v-3l-20 -111l4 -63v-85q0 -42 12 -75l-4 -19l4 -23q-15 -59 -24 -164l8 -157l-4 -3v-3l8 -46l-4 -16l4 -10l-4 -36v-16l4 -30q-13 -75 -84 -75l-28 -3l-16 3q-32 -10 -68 -10q-32 0 -32 66l4 10l-4 13l4 16l-16 111 l4 79q0 124 -16 258l4 16l-24 141l4 3v3l-16 82v6h4l-4 23zM56 90v9q0 96 64 130l56 9q26 0 72 -45l-4 -9q32 -16 32 -55v-30l-40 -72q-37 -27 -76 -27q-35 0 -80 45q-5 0 -24 45zM96 502l8 -6l16 13l-12 9l-12 -9v-7zM148 96l8 -6l8 6v3l-4 15h-8l-4 -15v-3zM192 487l4 -3 h16v12l-16 9zM196 581l36 -69l12 -7l4 4v3l-4 36l4 75l-4 42h-8v-57q0 -22 -12 -24l-24 3l-4 -3v-3zM200 1315l8 -69v-45l8 -6q16 24 16 78l-4 12l8 18v9l-32 6z" />
<glyph unicode="&#x22;" horiz-adv-x="672" d="M42 1139v3q3 20 10 20l4 -3v-14l-7 -6h-7zM62 1250v4h7v-4h-7zM66 1068l3 13l-3 20q0 149 27 149l27 14h13l88 -14h41l24 4q14 -38 20 -38v-13l-20 -24l3 -17v-7q-10 -12 -10 -23l3 -4v-3l4 3h6v-33q-13 0 -27 -82v-6q14 -2 14 -10v-7q0 -80 -51 -166q-8 0 -34 -27h-10 l-20 7l-27 -7l-17 14l-27 -7q-14 5 -14 23v48q0 17 -10 20v7h3zM89 1267l7 7l3 -4v-10h-3zM187 1277v4l4 3h3l4 -3v-4l-4 -3h-3zM357 831q20 271 43 372q1 7 34 20h10l55 -13l3 3q0 -11 84 -20q5 -25 14 -34q0 -7 -24 -31v-3l4 -3v-4l-14 -23v-11h10q0 -20 -33 -84l-4 -20 l10 -11v-13q0 -33 -54 -129q-41 -27 -51 -27h-3l-10 11l-17 -4h-10q-9 0 -10 14l-24 -4h-3q-9 0 -10 14z" />
<glyph unicode="#" horiz-adv-x="1247" d="M135 560v2q43 66 49 87l37 8h3l158 -20q26 51 26 129q-49 9 -164 15l-3 3h-3l-17 -3l-6 8v12q13 28 21 69l-3 11q0 24 43 35q126 -4 126 -9l6 14l-23 101v46q4 26 17 26v5h-14l-9 -5h-3q-34 8 -34 17q0 18 43 20h3q14 -1 14 -6q95 0 95 20h14l12 -11l14 3h6q11 -6 11 -17 q-31 -69 -31 -219l-3 -11l3 -9h28q51 0 118 -11v3q29 72 29 195q0 72 11 72q34 14 72 14q0 -9 12 -9l28 3q13 -5 20 -17v-26l-45 -247q0 -17 74 -17h147l20 -20q-10 -106 -29 -106l-49 -6l-146 14q-8 -3 -17 -83q0 -37 51 -37q150 -13 150 -35q-11 -83 -44 -126l-109 26 l-71 11l-3 -3v-31l-20 -167q-3 -26 -12 -26h-31q-11 0 -26 -17h-9l-20 20l-14 -3q-18 6 -18 23v12l6 23l-3 3v2l15 75l-3 20q8 15 8 29v6q0 9 -149 23q-23 -199 -34 -199h-9q-47 23 -89 23h-14q-12 6 -12 18l46 178q0 18 -63 26l-38 2h-57l-23 3l-23 -3h-17q-17 0 -17 23 q-6 1 -9 21zM184 565l11 -3q35 7 35 12q-17 11 -35 11h-3l-8 -8v-12zM244 807l6 -6l69 -6l8 3v3l-77 20l-6 -9v-5zM322 617l3 -3h31l6 6l-20 3h-15zM322 832l20 -3h8v9l-14 3h-14v-9zM365 318l5 -5h3q6 0 6 8l-9 12l-5 -6v-9zM376 605l6 -5h11l6 5v3l-6 6h-11l-6 -6v-3z M434 295h5v6h-5v-6zM437 356q4 -12 8 -12q9 2 9 23l-3 3h-3q-6 -1 -11 -14zM460 1108q0 -16 14 -23h3q8 2 8 23l-11 3zM500 605l178 -14q14 40 20 149q-17 12 -35 12h-28l-3 3l-3 -3h-3q-83 0 -83 17v6l8 6h3l55 -9l6 6q-21 3 -32 14l-20 6l-20 -3l-23 3l-9 -23l3 -23 l-14 -124v-23zM517 1082q10 0 11 26l-2 3h-3l-6 -6v-23zM549 855q27 -17 106 -17l14 6l12 -3v9l-12 -3l-97 14h-3l-20 -3v-3zM620 525l6 -6h26v6h-32zM643 281q5 -12 9 -12h6l8 9v14l-14 3q-7 0 -9 -14zM684 511h11v3h-11v-3zM684 548l5 -6v6h-5zM698 281q4 -12 9 -12h5l6 6 l-3 3l3 14v12l-6 6h-3q-8 0 -11 -29zM718 1074l9 -12h2q2 23 6 23l-3 3q0 13 15 29v3l-6 5h-14l-9 -5l3 -12zM747 600l5 -6l3 3v34h-5l-3 -14v-17zM747 660q3 -17 8 -17q5 6 9 49l-3 11l6 14l-3 3h-6zM770 1053l3 -51h2q6 63 18 118l-3 2h-3q-7 0 -17 -69zM796 571l5 -6h32 l11 15v2l-46 6l-2 -3v-14zM876 574q17 -16 75 -26l17 -11l6 14q0 26 -72 26l-23 3h-3v-6zM919 818q0 -10 60 -17l3 3h3q14 -4 14 -20l-2 -12l2 -3h6q12 32 12 46l-20 9l-18 -3l-11 3l-20 -3l-20 3l-9 -3v-3zM945 488h3l5 5v3h-8v-8zM982 746q12 -11 23 -11l3 14l-3 9 q-21 -4 -23 -12z" />
<glyph unicode="$" d="M-163 603v7h7v-7h-7zM-18 903v3l10 28l-6 21q0 32 49 110q0 23 63 69q6 17 20 17q42 30 59 31q0 14 112 62q17 16 66 42q17 0 23 93l4 24l20 14h26l76 -25l33 4q0 -20 46 -24l7 -18l-10 -79q0 -15 46 -17q0 -7 50 -17q121 -52 135 -83q76 -86 76 -190l3 -37l10 -14 q-3 -21 -10 -21h-36l-37 4l-3 -4l-16 4h-7l-13 -4l-3 4h-4l-53 -4l-3 4v6l23 25l-10 17l4 14q-14 26 -23 31l-7 -7h-10v7l7 10q0 34 -123 103h-9v-3l3 -35l-33 -182q0 -52 -13 -73l3 -31l-10 -34v-4q0 -12 99 -17q14 -9 89 -17q0 -13 60 -55q34 -54 52 -176l4 -21 q0 -105 -66 -231q-12 -26 -66 -75q-38 -28 -132 -49q-40 0 -40 -24l3 -38q-32 -107 -39 -107q-20 -34 -76 -34l-10 3l-3 -3l-17 3h-43q-10 0 -16 45q-20 4 -27 14l7 76q-10 26 -10 45l3 20q-66 23 -66 28q-17 0 -56 27q-8 0 -106 73q-7 0 -29 38q-9 0 -17 51l-13 38l3 38 l-13 66l3 17q0 10 -9 10v28q9 0 9 10q36 4 47 21h26q18 0 23 14q46 0 46 -21l7 -24l-3 -10q8 -31 23 -31l-3 -4v-24l3 -17h3l3 3h4l3 -3l-3 -4v-3q10 -44 82 -107q14 0 37 -28h9l7 18l-3 3v4q10 18 16 162q7 0 7 24v48l3 14l-3 14v6l6 38v18q0 11 -122 31l-59 24q0 9 -23 17 q0 5 -30 17q0 8 -23 17q-29 22 -46 56q-15 0 -40 96q-10 0 -10 7zM32 558v4l3 3h3l4 -3v-4l-4 -3h-3zM52 986l3 -4h3q20 4 20 11v3h-17zM78 510l3 -3h4l9 3v10h-6zM98 772q13 -1 13 -14l13 -3l13 10q0 5 -36 17l-3 -3v-7zM104 303l14 -14h6l7 7q-10 18 -23 18l-4 -4v-7z M220 982q13 -155 30 -155l46 -14h13q15 0 30 186l6 66l-3 3h-3l-99 -58q-18 -18 -20 -28zM223 245l10 -7h3v3l-9 11l-4 -4v-3zM352 848q20 18 20 45l-3 17q-14 0 -17 -59v-3zM355 48h4v21h-4v-21zM365 924h7v20h-7v-20zM365 955h7l3 41v17l-3 35h-3l-4 -35v-58zM408 -21v-3 l7 -7h6l7 7v7l-7 7zM411 -62v-10h24l16 20v11h-7q-3 -21 -33 -21zM451 1354l23 -17l13 14v3l-33 7l-3 -3v-4zM494 248h13q80 0 149 110q0 15 13 28l3 14v34q-16 3 -16 11v3l6 28q-8 31 -29 31l-4 3q-10 0 -10 24q-50 51 -95 59l-10 -4v-7l3 -41q-10 0 -13 -141h-3l3 -4v-10 l-3 -31l3 -3v-4l-10 -65v-35zM537 1330h10l3 11l-3 3h-4l-6 -7v-7zM540 665h13l7 7v3l-13 4l-7 -10v-4zM547 55v7q0 8 16 10l13 -10v-3q-5 -14 -23 -14zM573 1220q5 -14 10 -14h7v7q0 5 -14 11zM586 165h14l9 11l-3 3l-20 -3v-11zM619 1220q0 -12 37 -17l3 3v4 q-18 14 -30 14h-10v-4zM643 286h6q32 26 56 93l-3 4h-7q0 -16 -52 -97zM659 169h13q44 40 60 72h-7q-7 0 -7 -14q-59 -50 -59 -58zM685 1168q0 -7 10 -7l20 11v10l-16 4l-14 -11v-7zM692 562h3l7 7v13h-3l-7 -6v-14zM692 1068q5 -13 10 -13h10v3q0 9 -13 10l-4 4zM699 648 l36 -21h3v4q-12 21 -29 27l-10 -3v-7zM761 324l7 -7l3 24v4h-10v-21zM778 1089q6 -17 26 -17h4v3q0 19 -14 24h-10q-6 0 -6 -10zM811 1003h10v7h-4zM844 931h13v3l-7 7l-6 -7v-3z" />
<glyph unicode="%" horiz-adv-x="1262" d="M0 784q0 94 80 168q38 41 116 72h56q86 0 120 -68l16 -80v-8q0 -158 -220 -236h-20q-38 0 -132 68q-16 31 -16 84zM60 876l12 12v8h-12v-20zM68 840l12 -60h12v16q0 30 32 80l-12 8q-12 0 -44 -44zM96 108q39 78 224 352q0 16 72 112q65 108 180 252q0 18 108 152 q0 28 24 28l4 4v20l-4 16q18 57 64 88q8 1 40 56h12q63 -74 132 -92l12 -24q0 -27 -88 -156q-41 -67 -124 -172q-65 -65 -164 -196q29 -25 32 -44q0 -29 -76 -48l-132 -196l-156 -236l-8 -20l-4 -4h-16q-67 63 -120 80zM108 728q17 -49 24 -52h8v8q0 47 -24 56q-8 0 -8 -12z M120 808q4 -40 12 -40h20q60 24 60 68l24 28l-8 24q-83 0 -108 -80zM132 956l4 -4h16q11 12 32 12q10 12 36 12l20 16v4h-28q-40 0 -80 -40zM152 96q21 -16 36 -16v16l-8 12v4l24 48l-4 4h-4q-44 -57 -44 -68zM208 48l12 -12h12q9 0 28 52q17 7 32 60v8h-4l-80 -96v-12z M244 188h8l4 16l-12 -12v-4zM256 208h8l56 92l24 36v12h-12l-16 -28q-60 -87 -60 -112zM264 848l12 -12v20h-12v-8zM276 316q26 20 48 68q12 0 12 8v4l-8 8q-7 0 -20 -32q-10 0 -32 -40v-16zM276 796h8v20h-8v-20zM396 524q109 115 144 200v4h-8q-84 -100 -136 -204z M592 824h8l4 16l-4 4h-4l-4 -4v-16zM612 852l8 8v4h-8v-12zM640 292q0 77 40 168q73 103 136 124l88 12q42 0 68 -40q76 -54 76 -120q0 -85 -40 -136q-62 -103 -152 -136l-32 -12h-12q-96 13 -96 32q-68 44 -68 96l-4 12h-4zM676 280l4 -20h4v32l-8 8v-20zM752 956l8 -8 q18 0 64 80v8q0 8 -12 8q-18 0 -60 -88zM760 436h4q20 0 52 40l-16 8q-40 -22 -40 -48zM764 380q6 -60 52 -60h36q32 0 52 56v20q-10 60 -36 60q-25 0 -60 -24q-23 -9 -44 -48v-4zM780 208q10 -20 32 -20q27 11 32 24l-4 4h-60v-8zM796 1120l16 4q18 -8 20 -16l-4 -20 q28 -7 28 -16l-20 -44l12 -4l32 4q8 -24 16 -24q9 0 40 52v12q0 11 -44 20q-27 15 -80 64l-16 -24v-8zM888 288h12l12 12v12h-8l-16 -16v-8zM928 344h8q0 13 12 28v16l-12 20h-4zM992 480h8v4l-8 8v-12zM1008 460l4 -12h4v12h-8z" />
<glyph unicode="&#x26;" horiz-adv-x="1000" d="M0 220v12q0 110 64 241q5 0 25 43l61 82l88 77l-67 85q-60 41 -79 98q-37 58 -37 91q0 74 24 132q26 87 113 146q83 40 165 40h22l24 6h49q79 -15 146 -79q74 -60 89 -144l3 -12v-76l-15 -34q0 -22 -25 -46q0 -19 -52 -52q0 -7 -24 -33q-54 -85 -119 -116v-6 q56 -77 174 -190l12 -6q18 35 25 104q13 21 18 21l94 -21q0 -6 28 -9l21 -34q-33 -169 -45 -195q7 -10 54 -34q95 -85 95 -110q0 -17 -40 -51l3 -22v-18l-12 -9l-27 18l-25 -6h-15q-9 0 -55 34q-6 0 -33 33q-9 0 -55 34h-3q-10 -8 -52 -80q-42 -19 -77 -49q-46 -35 -183 -79 l-52 -6h-36q-72 0 -177 34q-5 26 -25 39q-67 68 -67 147zM27 189q4 -15 10 -15v21l-6 6zM43 143h6v4l-6 6v-10zM64 403l3 -3h6l12 33l-3 4h-3q-14 -18 -15 -34zM89 922q11 -39 67 -110h6v6q-23 28 -31 64l-36 46zM92 85q5 -13 18 -21q30 2 30 9l-18 16zM95 467q33 36 33 46 l-3 3h-3l-27 -43v-6zM143 406l7 -6q15 16 15 27v6q-9 0 -22 -21v-6zM153 1148h15l55 40v6q-45 0 -58 -25l-12 -15v-6zM156 43l15 -3h3l6 6v3h-24v-6zM156 473h6l15 15v3h-9q-12 -6 -12 -18zM159 327q25 -146 33 -156l16 -3h9q170 0 274 125q31 24 31 37q0 37 -195 223 l-135 -168q-31 -34 -33 -58zM171 437h3v6h-3v-6zM192 873l6 -6h3v9l-6 6h-3v-9zM192 1038h3l3 3q5 0 10 27h-3q-13 -4 -13 -9v-21zM205 940q1 -17 27 -58q15 -36 21 -36h3v3q0 8 -18 33q0 17 -27 74h-3zM211 70h6v3h-6v-3zM217 1136h12q6 9 46 12v6l-6 6h-10l-27 -12 q-15 -1 -15 -9v-3zM232 95l37 -28h15q15 0 27 15v3l-70 16l-9 -3v-3zM232 995q0 -59 79 -137q5 -13 55 -55q0 -7 16 -9q91 107 106 177l3 61q0 47 -45 67q-24 8 -37 18h-43q-134 -37 -134 -107v-15zM247 131h22q91 14 91 28v6l-113 -28v-6zM247 1087h6v3h-6v-3zM269 598h9 l9 9v4l-3 3v3q-15 -4 -15 -10v-9zM317 1200q24 -3 40 -16q7 0 25 19h3l30 -6v9q0 7 -30 15l-10 -3l-15 3q-22 -5 -43 -21zM324 797l39 -58q19 6 19 24q-16 0 -49 34l-9 3v-3zM354 678l3 -3h6v9h-3zM363 119h9l28 18v3h-3q-15 0 -34 -18v-3zM385 644q0 -15 24 -33 q0 -11 21 -25v6q-36 54 -42 55h-3v-3zM385 714h3q13 8 30 37v6l-33 -37v-6zM437 1233q0 -5 27 -15q11 -21 27 -21h4v9q-27 40 -55 40h-3v-13zM446 113h3q88 21 88 46h-6l-64 -31q-19 0 -21 -9v-6zM446 565l6 -6h3l-3 9h-6v-3zM449 632l6 -6v6h-6zM461 855h6l3 9h-3l-6 -6v-3 zM464 1114q0 -7 15 -9l3 3v3l-9 9h-3zM473 601l6 -6h3v3l-6 6h-3v-3zM473 867l43 46l-3 9h-12q-28 -37 -28 -49v-6zM504 180h6l6 6v3h-6l-6 -6v-3zM510 556q7 -12 24 -22h3v3l-24 25h-3v-6zM513 830l6 6v7l-6 -7v-6zM522 846h3q31 31 46 55l-3 3h-3q-43 -44 -43 -58z M525 272h9v6h-3zM525 1044h6l-3 15h-3v-15zM546 952h7q7 0 9 16l-3 9h-6l-7 -21v-4zM568 247h9q34 39 34 52v3l-7 6zM638 1093q15 -51 21 -52v18q0 36 -18 43zM653 238l16 3h18v3l-9 12h-9q-12 -5 -16 -18zM662 1023l7 -6v12l-7 6v-12zM690 549l3 -3h3l6 7h6q9 0 9 -28l10 9 v34q-9 0 -19 9h-3q-8 0 -15 -28zM711 287q0 -17 83 -95h6v9l-80 95zM720 375l7 -30h9l21 52v12l-15 -3h-12zM763 549l6 -12l-3 -39l3 -10h9l7 7v18l3 27q0 19 -19 19h-6v-10zM782 162l3 -3h12l-9 9zM791 296h6l-6 6v-6zM800 150l6 -7h9v4l-9 9h-6v-6zM803 284l46 -49 q21 -11 21 -24l-3 -13l9 -24h6q19 10 19 24v7q-71 85 -98 85v-6z" />
<glyph unicode="'" horiz-adv-x="346" d="M27 1141v4q1 24 9 25l4 -3l2 -16l-7 -9zM35 1275v4l8 1v-4zM59 1247q-1 9 37 29l11 2l66 -9l3 5q2 -13 103 -12q8 -28 20 -37q1 -9 -23 -40v-4l5 -3v-4l-12 -30l1 -12l12 2q3 -25 -27 -104l-1 -25l13 -10l2 -16q5 -39 -45 -159q-45 -37 -56 -39h-4l-13 10l-19 -6l-12 -2 q-10 -1 -14 15l-27 -8h-4q-10 -1 -14 14q-16 322 -2 443zM65 1298l7 9l4 -3l1 -12h-4zM178 1325v4l3 4h4l5 -3v-4l-3 -4l-4 -1z" />
<glyph unicode="(" horiz-adv-x="758" d="M50 317q3 159 11 170q9 74 42 207q11 1 32 122q17 31 58 166q35 42 49 93q93 131 129 163q0 16 28 19l-1 9l-7 12l-1 12q-1 9 10 10q14 0 73 -79q27 -22 59 -29l9 -37q-49 -19 -48 -34q-143 -181 -141 -228q-73 -162 -88 -262q-35 -126 -21 -366l2 -38q5 -81 54 -242 q48 -109 69 -138l105 -153l1 -8q-1 -11 -81 -87q-18 -27 -30 -28q-108 52 -220 325q-21 44 -63 271zM86 315q13 -88 23 -87l3 1l-7 63l-7 118l-5 21l-3 -1zM125 501l3 -46h7l2 30l-3 38l-7 8zM133 544l11 1l5 39l-4 3l10 69l-1 25h-7q3 -52 -14 -73l4 -13zM157 266l3 -123 q28 -209 52 -207h4l6 9q-13 47 -50 314l-4 4l-1 4zM175 450l24 -112h4q6 8 7 187q20 81 27 142q40 112 39 131q-7 -1 -36 -54l-8 -1l-10 3l-40 -236q-5 0 -7 -60zM236 -105q1 -18 30 -82q6 -29 29 -61h7l-1 13q-39 111 -40 132l-15 3zM301 969l4 -4l4 1l41 92q41 91 40 105 v4h-11q-36 -31 -69 -163q-10 -4 -9 -35zM310 -332q34 -51 46 -55q20 1 44 46v4q-13 -1 -29 14h-4q1 -25 -13 -26l-34 27l-3 -1zM340 -172v-5q2 -24 91 -132l7 1l-1 4q0 15 -90 132h-7zM351 -299l1 -8l11 -12l-1 13l-7 8zM463 1144q28 13 27 23q0 10 -18 11q-10 -16 -9 -30 v-4z" />
<glyph unicode=")" horiz-adv-x="758" d="M300 -262q82 132 134 250q35 53 66 226q11 45 14 118q33 76 33 320l-10 129q-4 40 -59 177q-19 -2 -61 154q-32 64 -59 97q-1 11 63 78l-6 21q46 90 68 92l13 -12v-4q-28 -46 -27 -57v-4l26 3q33 3 96 -137q60 -70 114 -261q9 -17 39 -157l4 -4v-4q-6 -74 0 -139l8 -8 q-1 -188 -18 -220l-16 -132l1 -4l5 -17q-7 -19 -9 -91q-23 -144 -70 -288q-14 -62 -118 -196q-66 -69 -97 -73q-56 -5 -85 67l-48 67zM341 -263q27 -77 48 -108q32 18 31 28v9l-15 -3q-5 -1 -17 51q-15 13 -17 37l12 69l-1 14l-5 -1zM426 1238q30 -4 33 -32q10 -57 21 -56 l3 5l-6 57l-16 43l-1 9q0 7 21 20l-1 4l-14 30l-7 -1q-7 0 -12 -28h-4l4 -4l1 -9q-24 -22 -22 -38zM524 -261l4 -4q7 1 35 57q36 50 60 136q21 47 18 78v4l-12 3q-18 -2 -42 -98q-9 -7 -32 -84q-18 -25 -31 -92zM543 85l30 -33l4 1q8 0 8 23q-27 9 -31 46q-7 -1 -11 -37z M550 273l2 -22h4l-3 22h-3zM551 331l4 -4l3 -31l4 1l19 69l3 4l15 2l6 -26h4l7 10l-1 4q-1 11 -16 12l-2 22l6 10q7 -22 13 -21l4 5l-2 13q-14 15 -19 42l-4 4h-8q-15 -25 -30 -106zM556 140l9 -8l4 27l-4 4l-7 -1zM569 195l1 -9l7 1l-1 17zM603 721l1 -9l6 -17l-5 -28l9 -8 q8 1 6 46l-6 17zM603 1078l1 -9l12 -12v5l-6 17z" />
<glyph unicode="*" horiz-adv-x="1024" d="M44 967l2 25l-2 12q4 34 8 37l56 -4l17 6h2q11 -10 64 -10v2l2 2v2l-104 122v6q1 5 38 25l16 14h6q46 -42 91 -99h4v4h2l-2 11v24l-2 34l2 2v2l-4 16q0 19 17 19l12 2l2 -2h2l13 12l53 10q10 -4 11 -8q-6 -15 -11 -113l2 -2h3l51 20q63 42 85 42q3 -1 27 -46q6 0 10 -23 q-18 -16 -78 -51l-19 -19v-4q0 -3 37 -8l48 4l2 -2h2l2 2q37 -2 37 -21l-2 -10l2 -29v-17q0 -6 -8 -6q-66 0 -66 -8l-25 2h-19q-12 -1 -12 -6q64 -85 64 -110q4 0 4 -10v-2q-40 -34 -47 -52h-9q-67 98 -74 104l-4 -5v-2l6 -22l-6 -50l6 -12q0 -4 -21 -23h-10q-8 6 -14 6h-15 l-31 -2l-6 8v5q1 14 4 14l-2 21v14l2 8l-2 9v2q8 25 8 39l-2 2h-4q-5 -8 -19 -8q-12 -18 -82 -79h-2q-60 48 -60 68q11 16 49 36q0 5 19 14q31 27 31 37l-8 4l-15 -2l-10 2l-2 -2h-2l-2 2l-21 -2h-2l-12 2l-2 -2h-3l-10 2l-18 -4l-7 2l-29 -6h-6q-5 0 -8 23zM56 998l2 -2h5 q3 0 8 20l-4 7q-10 0 -11 -25zM61 965l8 4v4l-4 4l-4 -6v-6zM108 967l2 -2v-2q25 1 25 6q-4 14 -15 14l-12 -12v-4zM110 1161l12 10v2h-4l-8 -10v-2zM118 1014h2v4h-2v-4zM133 1180l14 -17l2 2v6l-2 11l4 4v2l-4 4h-2zM145 965l2 -2h6l5 4v6l-5 4zM160 1146l6 -4h2v2l-6 7 l-2 -2v-3zM170 1138q8 -19 19 -25h2v5l-21 22v-2zM191 1107q0 -12 24 -35l5 4q0 8 -23 33h-6v-2zM201 1016l14 -14h3l4 14q-4 10 -9 11zM220 932l8 -46h6l2 8q-7 50 -14 50l-2 -2v-10zM226 1035q0 -5 25 -29l4 4q-7 14 -23 27h-2l-2 -2h-2zM244 975l7 -6l4 4v4l-4 4h-7v-6z M257 1002l4 -4v4h-4zM257 1138l4 -4h2l4 4v2l-6 6l-4 -4v-4zM259 1206q4 -9 8 -10h2l15 4l10 -12l4 20l-2 2h-2l-15 -2l-16 2zM275 773l11 -2h4l12 2l2 -2h2l9 4q-2 12 -7 12h-6l-10 -6l-8 4q-9 -3 -9 -6v-6zM279 880q3 -10 7 -10h4v2l-4 14h-4zM282 938q4 -11 10 -13l2 3v6 l-10 10zM294 1186q2 -16 8 -17h4v6l-10 11h-2zM308 1124l7 -23h2q6 2 6 12v17h-10l-5 -4v-2zM313 1221l10 -21h6v13l2 10l-6 4h-6zM321 1074l2 -2h2l12 2l17 -25h2v2l-8 19l-9 21v4h-8q-10 -5 -10 -21zM327 775l6 -7l4 5v2l-4 4h-2zM331 1041q3 -8 6 -8h2v2q0 11 -6 12z M360 913h2v4h-2v-4zM368 1103h2q21 4 21 10l-4 7l-19 -11v-6zM399 1014q4 -7 13 -10v2q0 15 -7 17h-2l-4 -5v-4zM401 925l17 -18v4l-15 17h-2v-3zM408 1128q1 -13 6 -13q3 9 6 9l21 -2q0 4 6 4q0 11 18 14q0 8 9 19v4q-10 0 -66 -33v-2zM426 857l4 -4h2v6l-4 4h-2v-6z M428 892l4 -4v4l-4 5v-5zM430 799q5 -14 9 -14q16 17 16 27l-10 4zM430 1016q25 -41 29 -41l2 2v8q-9 33 -25 33h-6v-2zM432 884q3 -8 7 -8l2 2v2l-7 6h-2v-2zM434 847q0 -6 9 -6q0 -9 4 -9h2v3l-13 14h-2v-2zM455 1093l2 -2h4l4 4v2h-6zM478 1012h8v4h-4zM492 1014 q29 -26 29 -39l-6 -4l-8 2q-9 -3 -9 -6q2 -6 17 -6q21 0 21 12v25q0 20 -42 20l-2 -2v-2zM494 1120l4 -5l2 3v8h-6v-6z" />
<glyph unicode="+" d="M100 572l28 116v48q0 32 72 32q0 8 64 8q12 14 112 24q0 9 52 12l4 40v16l-12 48l4 24q-12 26 -12 56v16l-12 16q7 16 28 16l56 -16h4l48 8l20 -8l28 4l60 -8q10 24 -31 16q18 -8 20 -16q3 -152 20 -152l-8 -20l8 -8v-20q0 -8 -24 -16v-8q59 -10 191 -16l16 -4h28l12 -12 v-12q-17 0 -24 -80q-7 0 -8 -20v-4l4 -24q-12 -60 -32 -60h-12l-72 16h-8l-44 -8l-16 4q-19 0 -40 -36l12 -52q-12 -21 -12 -48l8 -40l-8 -36l4 -24v-16l-16 -16l-48 8l-40 -4h-16q-18 -16 -56 -16h-20q-17 0 -24 92l-4 4q8 9 8 44q20 53 36 148v8l-8 8h-8v-4l-28 4h-4 q-49 0 -212 -56l-52 -12h-8q-28 0 -28 36zM144 576h8v12l-8 -8v-4zM156 652l4 -4h4q23 32 48 32v28l-36 20h-8l-8 -8v-20zM256 660h12l8 8l-4 4q-16 -6 -16 -12zM280 672h4q24 4 24 12h-4q-24 -2 -24 -12zM396 728h24q9 9 48 16v12h-20q-16 0 -52 -28zM424 640h8v8h-8v-8z M476 756q36 3 36 12l-4 4q-32 -4 -32 -12v-4zM484 648h4q16 6 16 12v4h-12l-8 -8v-8zM492 584h4q16 20 48 20l12 16l-24 8h-4q-35 -33 -36 -44zM500 944h12q12 12 28 12l4 4q48 18 48 24l-8 8q-21 -2 -84 -48zM516 900h4q13 0 80 40q11 0 1 24v8l51 8l-88 -44q-4 -9 -44 -24 l-4 -4v-8zM524 344h24l12 8h16l12 -8l12 12v20l-8 8q-15 -16 -32 -16zM552 560q30 11 32 20v8h-8q-14 -20 -24 -20v-8zM552 744h16v8h-8zM572 520l8 -8h8l8 8v16q-24 -2 -24 -12v-4zM660 744l12 -4l28 16v4h-4q-36 -8 -36 -16zM676 612h4q40 12 40 32l-4 4q-36 -15 -40 -28 v-8zM756 612l8 -8q48 0 48 28l4 12l-12 8q-31 -32 -48 -32v-8z" />
<glyph unicode="," horiz-adv-x="557" d="M20 52q0 59 32 76q16 33 72 60l4 -4h4l40 16h12l16 -4l20 8q0 -20 36 -20l12 -44v-32q-9 -128 -48 -128q0 -28 -48 -40q-59 -88 -124 -88h-12l-8 8v32q1 12 40 24l32 76q0 18 -68 24q-12 15 -12 36z" />
<glyph unicode="-" horiz-adv-x="670" d="M70 577l9 25q-6 2 -6 25q3 15 9 15l-2 31l11 9l88 -6l2 3h1l2 -3l52 6l60 -6q32 6 147 9l135 -6q45 -10 45 -21t-7 -25l4 -9v-7l-4 -9v-28q1 -21 4 -21q0 -43 -7 -43l-11 -4l-27 7l-7 -3l-97 15h-10l-7 3l-7 -3h-21l-9 3l-10 -3l-64 6q-43 -9 -74 -9l-37 3 q-18 -8 -133 -12l-5 21v3q2 13 23 13v3h-16l-5 -3l-2 3q0 -5 -12 -13q-6 0 -12 31zM98 639h17v3h-17v-3zM125 556h5v3h-5v-3zM550 540l38 -3h2q13 0 16 13v6l-4 6h-1q-51 -17 -51 -22z" />
<glyph unicode="." horiz-adv-x="557" d="M15 99q28 139 161 144q63 -68 63 -87l1 -14q3 -93 -133 -143q-72 -2 -73 42q-17 2 -18 39z" />
<glyph unicode="/" horiz-adv-x="879" d="M60 26l7 29l32 70l4 20l107 249l10 28l10 17l4 19l20 55l11 21l7 29l67 166q32 116 62 199l38 95q10 52 116 355l26 6l3 -1q10 -10 -10 -64l3 -1l15 41l2 15l5 3q-5 2 -1 37q6 15 42 21l15 -32q7 13 29 5q12 -13 6 -28l32 -6l-1 -31l-91 -230l1 -5l-1 -5l-5 -3l-44 -139 l-64 -157q-24 -87 -132 -391l-135 -353q-53 -115 -64 -111q-10 4 -17 27l-12 -6l-6 2l-6 13l-26 9q-22 7 -24 -1q-42 15 -35 33zM99 33l6 -3l9 7l2 5q31 138 27 140l-39 -100l-2 -4q-13 -35 -3 -45zM561 1283l3 -1l5 14l-3 1zM656 1295l3 -1l16 45l-3 1z" />
<glyph unicode="0" d="M0 579l20 146q50 155 144 291q0 27 24 39q10 2 36 43q136 131 168 150q19 12 68 17l12 -5l36 9l80 -39l32 5q9 0 64 -47q24 0 84 -69q53 -46 76 -94q80 -137 80 -245l4 -13l4 -4l4 -17l-4 -30v-219q-68 -240 -92 -240q-32 -60 -128 -176q-113 -81 -196 -81 q-138 0 -188 21q-33 0 -108 48q-98 69 -144 150q-41 102 -64 128l-8 60l4 43zM36 506h4v47h-4v-47zM64 442l8 -9l8 13v4l-4 22h-4l-8 -9v-21zM132 262q24 -73 52 -82l4 -4h4v4q-34 94 -52 99h-4zM148 159l8 -9h4v9l-8 8h-4v-8zM168 943h8q68 69 68 90l-4 4h-4 q-39 -19 -68 -94zM192 652q0 -103 44 -270q69 -95 112 -95q0 -13 56 -25q67 8 132 55q160 157 160 360q0 78 -56 215q-56 111 -100 111q-31 6 -92 60q-40 0 -136 -141q-100 -109 -100 -189q-10 0 -20 -81zM200 892h8l4 21h-4l-8 -8v-13zM204 352q70 -103 128 -103l4 4v9 l-40 21l-80 81h-4q-8 0 -8 -12zM216 917l8 9v4l-8 -8v-5zM284 952l112 120l-20 8q-38 -16 -92 -115v-13zM448 1205h60l24 25l-4 5h-48q-22 0 -32 -22v-8zM480 1089q29 -30 80 -30h24l8 9q-16 29 -68 42h-12q-22 0 -32 -21zM484 30l8 -9h4q19 0 36 30q14 5 36 39l-4 21h-16 l-64 -77v-4zM552 1209l8 -9h4l8 9l-8 9l-12 -5v-4zM604 1192q0 -45 84 -82v9q-40 73 -72 77zM612 236q0 -9 12 -9q28 16 28 56l-12 13q-11 0 -28 -56v-4zM656 81q33 0 128 129l4 22q-21 0 -80 -86l-52 -56v-9zM660 1037l4 -21h24q12 0 80 -163h12v43q-12 73 -80 141 q-10 13 -24 13h-4zM668 433h8q14 0 28 51h-16q0 -13 -20 -42v-9zM792 244h12q40 58 40 95v4l-8 9q-34 -47 -44 -108zM796 454l4 -12l12 4v13l-8 8h-4zM800 1037l24 -38l4 13l-28 38v-13zM832 973l12 -13v17l-8 9l-4 -4v-9zM844 952l24 -77h12l-4 12l4 18l-28 51h-8v-4z M872 763l28 -77h8l4 30l-8 39l4 4v4q-16 50 -20 90h-4q0 -29 -12 -64v-26zM896 514h12v35l4 17l-4 17h-8l-4 -21l4 -5l-4 -21v-22z" />
<glyph unicode="1" horiz-adv-x="500" d="M0 942l4 64v24l28 57q0 17 32 43q0 22 39 53q23 59 64 82l11 11h14q14 -18 99 -18h15l17 -18v-14q0 -7 -21 -14v-32l-7 -29l3 -18h8v40q0 7 10 7l14 25h4l-7 -61l7 -195v-110q-11 -149 -39 -246l3 -10q-17 -133 -32 -437l-7 -50q-9 -61 -35 -82l-18 4q-90 0 -128 -18h-3 l-7 7q17 76 21 231q8 0 18 167q5 0 21 203l3 10v43l8 75l-4 10l36 252l-15 8q-11 0 -32 -47l-17 4l-29 -25l-57 -39h-3q-15 0 -18 43zM60 974l8 -8q17 25 24 128l-10 15h-4l-18 -125v-10zM89 39l3 -11h7q18 0 18 8l-7 32q-21 -15 -21 -29zM107 1009h3q12 0 18 39l-4 4v3 l4 22v21l-7 7l-14 -89v-7zM121 252h14v7l-11 11h-3v-18zM135 405l7 7v18l-3 18h-4v-43zM146 632l3 -17h4l10 10l-3 39q18 24 18 93l-11 14h-4l-14 -46l4 -14l-7 -39v-40zM149 583h7v21h-7v-21zM156 46h18v7h-11zM160 124l3 -17q15 5 15 24v22l-11 10h-4l-3 -17v-22z M163 1183l4 -10h4q12 0 17 60l-3 4h-4l-7 -8l4 -3v-4zM171 803l3 -4h7q6 0 11 18l-4 11l4 50q-3 17 -11 17zM188 497q6 -14 11 -14l7 22v35l-7 7l-7 -10v-25zM206 36l4 -4h3l11 14v7h-14zM235 277q2 -32 10 -32l4 4v25l-4 24h-7zM277 640h7q6 0 18 99q8 89 18 103l-4 64h-3 q-15 0 -25 -153q-5 0 -7 -21l3 -18l-7 -42v-32z" />
<glyph unicode="2" d="M0 -35q15 102 60 272q40 112 87 166q95 147 212 197q29 0 159 98q34 0 98 95q49 82 49 151l-34 79q-53 61 -106 61q-100 0 -177 -110q-49 -92 -80 -174l-11 -7l-15 7l-4 -4h-4l-22 8l-4 -4h-4l-19 4l-45 -4q-34 0 -34 30q0 135 79 242q0 18 49 72l65 57q103 75 185 75 q0 7 26 8h11q27 -12 27 -38q77 0 185 -87q91 -110 91 -204q0 -123 -68 -249q-30 -75 -87 -117q-77 -75 -95 -80q0 -15 -19 -15q-42 -34 -71 -45q-38 -49 -87 -83q-11 -18 -49 -38q-45 -46 -91 -144q5 -15 19 -22l15 3l30 -7l23 7q0 -7 287 -22q0 -8 27 -8h7v4q85 -4 125 -19 q15 -2 15 -11v-12q-11 -109 -34 -132l-15 -15l-114 23h-37q-136 15 -333 19l-264 -38zM23 -5v-15l15 -7l11 11v15l-7 11q-18 -7 -19 -15zM60 52l12 -4q26 11 26 34l-19 4h-7q-12 -4 -12 -23v-11zM83 203l4 -4h4q0 26 15 34l-4 19l26 23v11l-7 8h-4q-34 -54 -34 -91zM106 154 l7 -7h12q49 14 49 22v4l-27 8h-3q-21 0 -38 -27zM128 838q0 -9 19 -11l12 3q0 28 -12 31h-7q-12 -4 -12 -23zM132 332h4q14 0 49 60v4q-27 0 -34 -38l-19 -7v-19zM159 974h3q61 61 61 87h-4q-35 0 -60 -79v-8zM200 177h8l7 7v8h-7l-8 -8v-7zM204 90h11l8 7h-8v4l-11 -4v-7z M219 215l8 -8q12 0 53 57v19l-8 7l-53 -68v-7zM219 815l23 -11l7 11v15q0 8 -11 8q-19 -8 -19 -23zM257 891l4 -19q21 0 56 98l-3 4h-8q-42 -36 -49 -83zM280 449l7 -8h12q0 23 7 23h11l19 -19q8 0 95 91q0 9 -15 11l-76 -64l-15 11h-8l-37 -38v-7zM283 7h19l8 7l-11 4 l-16 -4v-7zM283 143q30 -42 42 -42l15 4l23 -4v8h-8q-10 28 -19 30l-15 -4l-30 8h-8zM291 1069h8q20 0 75 68q19 0 19 18l-4 4h-22q-21 0 -50 -38q-26 -10 -26 -41v-11zM302 1155h8v12l-8 -8v-4zM314 75l11 -4l4 4h4l30 -4l4 4v3q0 6 -16 12l-22 -8v4l-15 -4v-7zM325 358 q4 -15 15 -15q79 43 87 76l11 3l-7 8h-4q-27 -10 -45 -30l-12 3v-3q0 -8 -45 -38v-4zM355 7h30l8 7l-23 4l-15 -4v-7zM408 1220h4l64 19v7l-11 4q-18 0 -57 -23v-7zM442 456l8 -11q71 47 98 53q0 11 26 19q0 26 34 30q0 10 42 45q0 9 26 16q0 17 19 37v8q-45 -34 -109 -98 q-11 0 -106 -80h-8q0 -15 -30 -19zM453 1091h12l26 4v15q0 8 -11 8l-27 -12v-15zM506 1121q4 -10 121 -45v8q-18 28 -37 41h-31l-41 8zM533 1197l7 -8h8l-8 8h-7zM552 1144h11v4l-8 7h-3v-11zM559 3v-11l38 -4h8l7 7v12l-19 3zM639 1042q0 -12 22 -41q0 -34 27 -34l4 3v31 q-14 49 -50 49l-3 -4v-4zM642 -1v-11l16 -4q22 9 22 15l-15 8h-15zM695 -1v-7h8zM703 1133q0 -22 34 -34v4q-11 41 -23 41zM733 82h23l11 12l-11 7h-12l-11 -11v-8zM737 1004l4 -19h7q9 0 15 46h4l15 -68v-4l-11 -15v-15q6 -15 26 -15l4 26v11q-3 84 -30 84l-4 -4l-4 22 q-26 0 -26 -49zM744 933h4v7h-4v-7zM767 834l11 -11q7 0 12 26l-12 15l-11 -11v-19z" />
<glyph unicode="3" d="M0 78q6 102 19 102h4q62 -23 124 -23l53 -4q128 0 327 76q51 15 53 34q60 84 60 143q0 153 -71 181q-31 24 -83 45h-8v-4l-267 30l-83 4l-56 -8q-38 10 -38 27q0 6 75 71q30 22 30 49l76 61q0 7 11 7q0 23 26 23q14 23 49 41q41 50 68 53q29 42 76 60q36 19 75 60v8 l-34 4q-240 -15 -271 -27l-106 15l-4 4v12l4 18h4q20 -30 87 -30q38 0 94 12q-4 13 -102 18l-38 -7l-15 30l-26 -8q-24 10 -26 19q22 22 22 30l-4 34v8q0 20 16 26h18l19 -3l12 3l154 -3h139l174 -23q86 -10 86 -15l19 4h30q49 0 49 -12v-7q0 -51 -83 -113q0 -20 -52 -68 q0 -15 -53 -57l-45 -56q-8 0 -79 -79q5 -15 34 -15h22l34 3q33 -18 113 -45l57 -52q51 -48 75 -129q0 -13 15 -30v-22q-18 0 -23 -110q-15 -12 -15 -30v-11l15 -49v-4l-82 -113q-25 -68 -125 -169l-79 -34q-49 -23 -241 -38q-127 -7 -147 -15q-143 5 -143 38q-19 36 -19 60z M23 67q2 -23 11 -23l11 19l-7 26q5 42 22 42v3q0 10 -30 16l-7 -23v-60zM53 82l4 -12h22l8 8v7q-8 16 -19 16q-15 -4 -15 -19zM90 688l64 -7q0 13 23 22l15 -3l11 15l-3 3v4q-21 -1 -34 -15q-21 0 -30 27h-4q-19 -9 -42 -46zM124 1212l19 -4h4l11 8l23 -8q19 0 22 12 q-3 11 -22 11l-27 -8q0 10 -30 15v-26zM139 745l4 -4v-4l11 4v8h-15v-4zM237 779l4 -4v-4l11 4l-7 7h-8v-3zM256 850h19l102 79l-12 4q-73 -44 -109 -75v-8zM320 666q63 -8 87 -23l23 4l45 -4l15 8q0 9 -34 26l-26 -4l-83 4l-27 -8v-3zM350 707l57 -7l11 3v12l-11 11h-19 q-38 -5 -38 -15v-4zM426 824q2 -19 22 -19l4 4v7l-4 19q-13 0 -22 -11zM486 1024h8v7zM516 116h11l8 7l-4 4h-7l-8 -8v-3zM550 929h8l7 8v4h-7l-8 -8v-4zM558 134h7l8 8l-4 4h-4l-7 -8v-4zM588 247q5 -18 11 -18q11 0 19 34v11zM595 108h8v11h-8v-11zM618 1148q8 -23 15 -23 h11l12 12v3q-4 12 -23 12h-8l-3 -4h-4zM625 1016l4 -4v-3q20 0 68 67q11 4 11 23v4q-34 0 -79 -79l-4 -4v-4zM640 526q18 -56 23 -56q11 0 19 34q-6 16 -34 41v11h-4zM640 779l8 -8h26v4q0 7 -22 11l-12 -4v-3zM648 1186q0 -23 15 -23l15 8l30 -8q30 8 30 23q0 11 -15 11v4 l-3 -4h-27l-45 -8v-3zM659 639l4 -19h15v8l-11 11h-8zM671 564q2 -23 11 -23h11v4l-19 19h-3zM735 651l3 -27h4v34h-7v-7zM738 605l16 -18v3l-8 23h-8v-8zM742 523l15 -16l4 4v34h-11l-8 -7v-15zM795 613l19 -79h4q11 4 11 22q0 19 -30 57h-4zM810 451l8 -8h3v19l-7 8h-4 v-19z" />
<glyph unicode="4" d="M0 523l3 31v10l-3 35l140 188l58 83q8 0 47 54l-3 13q0 8 29 32l70 82q0 13 105 121q30 33 57 90q38 57 58 57h3q29 -5 29 -29l25 -6l-3 -22v-39l-19 -376l3 -73l-3 -32l3 -9l-3 -29v-19l-7 -10v-3l7 -6q149 -3 172 -10l19 7h6q29 -18 29 -42l-22 -22v-3l6 -26 q-16 -10 -16 -35q-22 -28 -86 -28l-64 3l-28 -3l-19 6q-14 -16 -20 -73l4 -13l-4 -13l4 -9l-4 -4v-3l4 -9l-4 -45q0 -87 10 -169v-51l-3 -12l3 -4l-3 -16l3 -54q0 -24 -115 -35h-38l-22 -3l-10 13v25l-3 16q6 35 6 96l-9 60l6 86v35q0 50 -9 99l6 70l-9 7h-36l-156 -7l-9 3 q0 -5 -83 -9l-10 3l-51 -13h-6q-22 17 -35 39zM22 532l10 -13h6q9 0 13 26h-10q-19 0 -19 -13zM22 580l10 -7h6q13 6 13 23l-13 13q-16 -9 -16 -29zM73 519l7 -6q35 6 35 16v13l-16 3h-3l-23 -22v-4zM99 666h3q40 0 96 111l28 45h-3q-8 -1 -29 -29l-57 -67q-38 -40 -38 -54 v-6zM143 577l10 -4l29 4l63 -4l10 4v3l-16 3h-54q-7 0 -10 19h-6q-17 0 -26 -16v-9zM150 535h6v3h-6v-3zM188 647l3 -10h10l54 73h-6q-32 -23 -61 -63zM213 615l10 -6h16v3l-10 9h-9zM249 666l9 -3l32 3h51q64 0 64 19l12 105l-3 19l3 13l-3 10l3 35l-3 19q4 16 10 16l12 -4 q10 22 10 48l-10 7q-46 -44 -73 -99q-37 -52 -73 -118q-41 -50 -41 -70zM258 749l3 -16q18 4 42 51q19 14 22 35l-3 3h-3q-10 0 -61 -61v-12zM395 561l16 -3h13v6l-7 6h-6l-16 -3v-6zM408 433l3 -9q19 0 19 60q5 0 10 23l-4 12h-15q-9 0 -13 -86zM465 781l3 -4h10v20h-10z M472 57h12l26 16v10l-7 6h-3l-28 -28v-4zM481 131q0 -10 13 -10l19 6q-4 42 -13 42q-19 -7 -19 -26v-12zM487 695h4v6h-4v-6zM494 832l6 -7q6 0 19 35l-3 13l7 19v10l-7 6q-22 -36 -22 -73v-3zM494 1141h13l3 12l-3 10h-13v-22zM507 1042l6 -7h6q4 32 10 39v12 q-22 -23 -22 -41v-3zM510 1195q0 -12 9 -19q16 0 16 44h-6q-6 0 -19 -22v-3zM532 494q16 -22 16 -32h-3l9 -13l10 51l-10 7h-3q-16 0 -19 -13zM538 634l7 -6h35l13 -4l54 16q0 10 -35 10l-23 -6q-13 0 -41 25h-3l-7 -6v-29zM545 124l9 -12h7l6 57l-9 80v6h-7zM548 424l3 -23 h3l4 16l-4 16q-6 0 -6 -9zM583 1172l13 -15l3 3v51l-6 6l-10 -35v-10zM701 523l22 -4h7l28 19v7q-35 0 -57 -19v-3z" />
<glyph unicode="5" horiz-adv-x="1000" d="M-46 71q21 15 39 15l27 -4q308 9 376 86q58 25 105 128l47 89l19 58v8h-4l4 27v31q0 65 -194 121q-93 -5 -112 -16l-4 4l-109 -20l-12 4l-23 -4l-15 4q-16 -7 -43 -7h-8q-14 7 -19 23l19 89l-15 194l4 27l-4 47l4 19q-24 43 -24 55q15 22 39 104l4 4h62l16 -4l229 39 l27 -4q98 16 174 39l117 16l66 23h11q20 0 20 -171q11 -2 11 -27q0 -39 -19 -39l-15 4l-70 -8l-28 4l-108 -11h-109l-66 -4v4l-4 -4h-11q-183 -14 -183 -35l-8 -66l20 -136l15 -4l66 8l12 -4l54 8q238 -27 299 -78l51 -43q49 -37 112 -213l4 -58q0 -85 -50 -152 q-55 -89 -148 -151q-12 -17 -112 -85q-99 -68 -194 -97q-189 -78 -245 -78h-31q-20 0 -27 62q-17 0 -27 62l7 39zM-11 12h19l16 -11h4l4 19q-22 12 -43 12v-20zM51 16l27 -19q54 18 55 23l-4 4h-70zM59 -57v-8l11 -4l97 35l32 19v4l-4 4h-16q-31 0 -120 -50zM59 626l11 -8h4 q0 23 39 27l4 4v4q-3 31 -27 31q-3 -21 -31 -51v-7zM67 1115l7 -8q20 0 24 12v11l-8 8h-12l-11 -12v-11zM94 963l7 -7h4l8 7v20l-8 7l-11 -11v-16zM98 727h7v19h-7v-19zM125 983l8 -20q25 43 31 43q0 6 38 12v11l-11 12h-12q-46 0 -46 -35zM133 692l3 -4h4l4 4v7h-4z M148 649l12 -4l4 4v4l-4 4h-4zM175 649h8v4h-8v-4zM175 727l12 -8l39 11h19l54 4l51 -4l12 16l-16 15q-171 0 -171 -23v-11zM179 695h12l-8 8h-4v-8zM358 28h19l27 23v8h-8q-18 0 -38 -23v-8zM439 9h20q57 34 186 155v11q-20 0 -132 -97q-74 -39 -74 -66v-3zM544 257l4 -4 h11v27h-3q-12 -4 -12 -23zM559 1188h24l54 4l23 -8l31 8l20 -23q39 0 39 39v11l-12 12h-8q-99 -27 -167 -31l-4 -4v-8zM567 598q9 0 16 -38l23 -12l4 4v4l-4 4v4l8 23q-17 27 -39 27h-4zM571 684q68 -39 109 -82h4l7 8v20q-57 65 -85 65q-35 -3 -35 -11zM579 187h8 q27 17 27 39l-35 -31v-8zM579 338l4 -3h4l23 38v8h-4q-27 -19 -27 -43zM587 466l3 -3h12l12 11v20l-8 7h-8zM587 517h3v8h-3v-8zM629 587q0 -8 35 -35q3 -35 12 -35h4v15l-4 35l4 24h-4l-4 4l-4 -4h-19l-12 7q-8 0 -8 -11zM664 257l4 -4h8q12 0 15 31l-3 19h-8zM707 315 q5 -23 12 -23l27 35l-8 19l4 43v19l-8 8h-4q-19 -50 -23 -101zM754 327l3 -4h12l4 31l-4 97h-8l4 -4l-4 -39v-50z" />
<glyph unicode="6" d="M0 603h3l-3 3v7l3 25l-3 16l6 39v42q18 107 55 176q23 43 48 119l26 64l9 3l20 -6q95 103 115 103q76 35 113 41q48 33 96 33l38 -16h23l106 -20q28 -31 58 -38q42 -28 77 -93q28 -68 38 -145q10 0 13 -48q0 -10 -71 -16l-3 -3v-3l-38 6q-11 -7 -71 -10l-10 13l4 23 q-23 121 -68 160l-35 29l-3 -3h-4l-35 6l-16 -3l-10 3q-60 -22 -141 -74q-90 -89 -90 -109l-9 -16l6 -83l-3 -19l3 -13l-6 -36q13 -112 19 -112q7 0 45 48q76 61 151 71l93 22h10l19 -3l3 3h3q36 -3 36 -9l3 3h3q55 -9 83 -26q44 -30 77 -86q33 -66 33 -148l3 -10l-7 -29 l4 -3v-3q-5 -45 -10 -45l3 -3l-6 -36l3 -3v-3l-51 -151q-30 -76 -103 -144q-119 -93 -209 -93h-32l-10 -7h-19l-19 -3l-26 6h-3l-13 -3l-90 23q-67 29 -109 77q-9 2 -25 35q-13 0 -33 58q-28 52 -28 80q-15 32 -33 180l4 9l-7 97l3 3v3q-6 18 -6 45zM119 927l3 -13 q16 6 16 26v3h-3zM151 118q17 -14 22 -32l45 -25l3 3v3l-51 61l-16 3l-3 -3v-10zM167 340l6 6l-3 4h-3v-10zM173 292h7v13h-7v-13zM244 289l10 -10h3v13l-7 16h-6v-19zM247 150l13 -12h6l7 6l-26 10v-4zM266 224q35 -38 58 -38q-7 13 -58 42v-4zM276 99q19 -19 48 -19l3 3v7 l-41 16l-10 -4v-3zM279 353q20 -106 45 -106q0 -19 61 -29v-3l3 3l26 -3q107 0 189 151l-3 3q8 45 16 45l-3 3l3 22q-6 145 -41 145q-34 11 -55 26l-3 -4h-3q-22 17 -74 23q-62 0 -141 -170l3 -4v-3l-16 -35l3 -3l-10 -39l3 -16l-3 -3v-3zM282 1065h7l48 45v7l-10 3 q-41 -39 -45 -55zM299 32l3 -3h3l3 3q22 -7 84 -10q12 5 12 10q-17 9 -70 13q-35 -5 -35 -13zM315 648h3l35 39v3h-3l-35 -36v-6zM360 1168l6 -6h13q8 0 16 25l-3 4h-4q-17 0 -28 -23zM385 1101q19 0 19 16l-3 3h-6q-10 -3 -10 -19zM398 654h6l10 10v3h-3l-13 -9v-4z M421 674h3q19 7 19 13v6h-6q-12 -6 -16 -19zM449 48l4 -3v-4l9 4l-6 6h-7v-3zM462 1133l23 -3l6 6h-29v-3zM491 35l3 -3h4l48 19v6l-7 7q-41 -17 -48 -29zM491 73h7l6 7v3h-3l-10 -3v-7zM504 696q7 -16 48 -16h10v7l-42 19q-16 -4 -16 -10zM555 183h4q17 0 22 12v20h-10 l-16 -23v-9zM559 1139l9 -9l3 3v3l-6 6h-6v-3zM578 671h6v3h-6v-3zM587 231h10q13 5 13 22v7q-10 0 -23 -29zM587 1110q24 -29 33 -29l3 16l-7 7v29h-6q0 -14 -23 -16v-7zM639 192l3 -9q17 11 32 35v3l-10 10zM645 1171l19 -61h7q0 21 -19 77h-7v-16zM655 626l9 -10h4l6 6v7 l-16 3l-3 -3v-3zM671 966q8 -61 29 -61l3 3v3q0 9 -29 58h-3v-3zM697 703h6v6h-6v-6zM706 1162l29 -36l3 4v9l-29 26h-3v-3zM722 603q0 -21 23 -58l6 -41h3l4 16v25l3 48q-26 7 -26 13zM722 629h13l-6 6h-7v-6zM725 240h10v16l3 4v3h-3q-6 0 -10 -23zM732 914l16 -3l10 13 l-10 10q-15 -7 -16 -13v-7zM741 269h4v7h-4v-7zM780 924l6 -6h13l10 9q0 23 -19 23q-10 -2 -10 -26zM780 1004l3 -16l7 7l-4 16h-6v-7z" />
<glyph unicode="7" d="M-52 0q0 25 68 106l46 69q68 140 186 300q29 49 84 121l114 164l144 205l72 106v4l-4 4h-3l-99 -8l-27 4l-11 -4l-15 4l-16 -4l-53 4l-34 -4l-76 8l-87 -4l-31 4l-114 -12q-30 0 -30 27v8l4 83l-4 34l4 31l-4 30l11 8h4l31 -31l98 12l38 -8l31 8l79 -8l19 8l35 -8 q250 0 391 -19l49 8q7 -7 88 -12l22 -22l-3 -31l11 -19q0 -20 -27 -34q0 -47 -140 -243q-38 -60 -163 -224l-107 -148l-152 -266q-37 -49 -64 -114l-76 -126q-24 -49 -53 -49l-23 4l-42 -23q-13 0 -19 27l-19 3h-30q-103 10 -103 27zM13 4l19 -4h3l8 8v26h-4 q-17 -15 -26 -15v-15zM96 1109l12 -11l45 4h122l7 7l-30 12l-19 -4h-12l-45 4l-46 -4h-7l-19 4zM96 1170l12 -15h15l38 7v8l-53 15zM149 228h4q23 0 23 19l-4 19h-15zM172 273h8q19 9 19 38q-8 0 -8 12h-7l-4 -15l4 -12l-12 -11v-12zM206 338l23 -11l8 22l-16 12h-7z M233 216h11q70 85 99 141q8 0 8 19q33 25 49 61q46 54 46 76h-8q-37 -35 -122 -167q-63 -75 -83 -130zM233 372q6 -15 11 -15l31 38v11h-16q-7 0 -7 -19q-19 -3 -19 -15zM256 133h3q16 0 23 34v8l-7 7h-4l-15 -38v-11zM286 194h8v7h-8v-7zM286 452l8 -8q6 0 11 23h-8 l-11 -11v-4zM301 475l4 -4h19v19l-19 4zM313 1174q0 -12 64 -12l15 4l23 -4l12 4v4l-8 8l-30 -4l-61 4zM491 1151l12 -11l11 11q-1 10 -19 15l-4 -4v-11zM700 965l8 -8l4 4v15h-4l-8 -7v-4zM715 980q18 9 57 68v19h-4q-15 0 -53 -83v-4zM890 1094h8l3 15h-3l-8 -7v-8z M894 1200l11 -11h8l11 11q0 10 -15 12q-15 -6 -15 -12z" />
<glyph unicode="8" d="M0 338q0 79 92 219q27 37 91 102q0 14 67 32l21 4l4 10q0 7 -78 60q-91 76 -91 155q-6 0 -7 18v56q0 19 56 127q84 92 183 127q24 18 141 28q29 -24 134 -24l22 -4l17 7q31 0 81 -60q38 0 50 -63q7 0 7 -11h39l10 -10v-4l-18 -81v-42q0 -75 -45 -163q-7 0 -50 -59 q-57 -46 -81 -46l-17 -14q50 -46 63 -46q31 -22 109 -60q74 -82 74 -92l7 -28l11 -14v-57q-18 -137 -35 -137q-87 -162 -198 -201q-103 -49 -197 -60l-49 -7q-46 0 -127 32q-127 34 -198 123q-23 3 -63 88q-11 14 -25 95zM39 370h7l17 39l-3 4h-11l-10 -11v-32zM109 300 q0 -23 43 -50l3 11q0 7 -25 28q0 13 -10 21l-11 -3v-7zM152 130l7 -7h3v7h-10zM173 109l10 -3v3l-7 7h-3v-7zM201 628l18 -4l24 28v7h-14q-28 -15 -28 -21v-10zM201 793q0 -6 39 -24l3 -4q0 -9 18 -14q0 -11 21 -18q0 -10 18 -10l10 3v7l-81 50q-5 17 -25 17h-3v-7zM204 360 q0 -51 57 -117q8 0 39 -31q82 -50 158 -50h29q73 0 151 109q46 95 46 124v21q-24 98 -71 134l-102 63l-24 -3h-4l-39 11q-130 -17 -130 -50q-37 -60 -46 -88q-24 -28 -42 -78h-4q-9 0 -10 15h-8v-60zM208 233q13 -39 60 -60h3v7l-63 60v-7zM236 966q0 -70 53 -70q8 0 21 -18 q20 0 71 -46q34 -21 56 -21q118 0 152 60q50 38 53 77q0 82 -32 117q0 33 -102 53h-4q-13 0 -28 -14q-6 0 -11 31q-10 9 -45 14q-120 -25 -120 -67q-46 0 -64 -116zM289 663h7l11 10v7h-4q-14 -3 -14 -17zM349 1160l4 -4q77 15 77 32h-21q-6 -7 -49 -10zM360 1227l17 -4h14 q11 4 11 22q-42 -9 -42 -18zM384 116l7 -7h43v4q0 8 -39 10l-11 -3v-4zM416 638q21 4 21 11v3h-10l-11 -10v-4zM416 1248q0 -7 21 -7v-3q21 4 21 10l-17 4zM487 779l7 -7h3l14 14l-3 4h-21v-11zM490 63q0 -28 28 -28q22 0 43 21h-7l-22 -3q-21 14 -31 14h-11v-4zM546 1230 q0 -19 67 -35h11l4 18q-4 20 -74 25zM589 109l14 -14h28l39 25h18l14 -11l3 4v7h-14v7l7 11v3l-7 7h-11l-91 -35v-4zM589 656q14 -20 39 -32h10q-5 18 -42 35h-7v-3zM610 733h3q45 28 75 85v3l-4 4q-11 0 -74 -78v-14zM638 81h14v7h-14v-7zM656 1192q7 -14 21 -14l3 3v11 l-17 14l-7 -7v-7zM663 994q0 -20 17 -24l8 17q-7 16 -15 18h-10v-11zM670 236h7q26 17 39 35v18l-7 7h-4q-35 -42 -35 -60zM684 1107l21 -21h4q-5 35 -14 35h-11v-14zM688 762h7q0 10 17 14l14 21v10h-7l-31 -42v-3zM695 613q2 -21 10 -21q7 0 7 11l-3 10h-14zM723 169l3 -3 h4l7 7v3h-7zM744 832h10q36 58 36 95l-4 11h-3q-39 -62 -39 -95v-11zM786 360l7 -7q11 3 11 21q0 39 -11 39l-7 -8v-45zM807 226l7 7v7h-7v-14zM818 247h11l3 17v7h-3l-11 -10v-14z" />
<glyph unicode="9" d="M0 934v4q11 142 34 173q27 57 124 117l94 22h4l19 -19h83q7 0 7 -15h8l37 -3q27 3 27 11q-3 11 -30 11h-12l-19 -4q-10 23 -26 23l-75 -4l-4 4v4q7 6 72 11q0 8 18 8v3q140 0 309 -60q16 -16 75 -41q12 -22 46 -30l37 -79q15 -45 15 -76v-45q0 -45 -64 -192 q-28 -104 -83 -150l-116 -181l-162 -252q-97 -181 -124 -181l-27 -4l-45 8l-30 -38h-11l-8 8v7l8 11v15l-4 4v4l-30 -8q-22 19 -53 19l-7 15q166 246 256 365l146 211v8l-7 11l-87 -7l-67 3l-23 -3q-22 0 -128 37v4q26 7 26 15q-19 11 -37 11l3 -3v-8l-7 -8q-106 36 -106 76 q-37 54 -56 188zM26 923q0 -28 12 -30l3 11l4 68l-4 3h-11l-4 -26v-26zM60 975h8l4 34v8h-4l-8 -34v-8zM94 960h8v15l-8 -7v-8zM109 1160h8v7zM117 1024l7 -7h4l8 7l-8 8h-4zM124 904l4 -11h4q15 5 15 33v4l-4 19h-11zM124 1171h8v11l-8 -7v-4zM128 46q6 -15 11 -15 q9 0 42 52l-4 19h-8q-6 0 -41 -56zM132 1096l4 -4l18 -7q0 -23 8 -23l7 8v15q-11 0 -11 7v11l11 15l-3 4zM154 814l12 -12v4l-4 11h-8v-3zM184 31l8 -8h4q22 13 22 34l-3 4v3q-9 0 -31 -33zM196 1141h11q8 2 15 19h-4q-22 -4 -22 -11v-8zM200 140h3q47 51 109 139v8l-15 3 q-97 -137 -97 -150zM211 1081l4 -4l11 4v11h-4zM215 839q0 -52 113 -91h4l22 4l22 -4q226 60 226 187q-16 130 -48 130l-52 13q-58 0 -79 -26l-13 13l5 22l-13 9q-72 -11 -148 -92q-39 -42 -39 -152v-13zM222 674q27 -22 83 -22l15 3v4q-43 27 -94 27l-4 -4v-8zM230 712 q16 0 22 -11l27 3h37v8h-4q-60 0 -75 15l-7 -8v-7zM252 46h4q13 0 53 56q9 0 34 68q31 33 45 60v8h-8l-49 -61q-39 -46 -79 -131zM279 1085q0 -8 11 -8l38 19v4l-12 11h-15zM350 670q80 -11 102 -22q17 6 26 22v8l-4 4v4l-22 -4l-57 4q-45 -2 -45 -12v-4zM422 719h7v8z M501 655h7l53 31v15h-4q-21 0 -56 -38v-8zM501 825h15q15 7 15 22q-29 -10 -30 -18v-4zM550 512q43 44 52 83h-3q-14 -8 -49 -75v-8zM576 1194q0 -19 135 -38h12v4q-28 20 -136 45l-11 -4v-7zM640 926l11 -3q68 29 68 37l-11 8q-68 -28 -68 -38v-4zM678 1115l3 -4h12v7 l-12 4l-3 -4v-3zM685 1021l11 -8h15l8 8v15l-8 7h-3q-23 0 -23 -22zM749 1118q14 -13 19 -45h7q16 4 16 19q-15 34 -38 34h-4v-8zM764 1006l19 -68h4q10 0 15 26q0 57 -30 57l-8 -8v-7z" />
<glyph unicode=":" horiz-adv-x="557" d="M-8 64v16q29 110 149 110q54 -56 54 -71v-12q0 -74 -124 -110q-64 0 -64 35q-15 3 -15 32zM-6 492l4 14q23 88 151 100q61 -16 50 -58q13 -7 4 -41l-5 -19q-63 -124 -175 -93q-34 80 -29 97z" />
<glyph unicode=";" horiz-adv-x="557" d="M-14 32q0 50 27 65q14 28 61 51l3 -3h3l34 14h10l14 -4l17 7q0 -17 30 -17l10 -38v-27q-8 -110 -40 -110q0 -24 -41 -34q-50 -76 -104 -76h-11l-6 7v27q1 10 33 21l27 65q0 15 -57 21q-10 13 -10 31zM0 444v16q28 112 143 112q53 -57 53 -72v-12q0 -75 -120 -112 q-62 0 -62 36q-14 3 -14 32z" />
<glyph unicode="&#x3c;" d="M100 724v64l192 148q20 0 184 100l164 128h12l12 -8h4q17 16 32 16h28q6 28 16 28h4q12 0 20 -52v-36l-4 -44l8 -28l-4 -28l4 -40q-9 -96 -40 -96q-244 -108 -260 -108q-18 -7 -28 -24q83 -47 104 -68q94 -74 172 -120q35 -17 56 -48v-4q-51 -113 -68 -200l-4 -4h-12 l-296 180q-19 0 -192 140zM264 752l16 -8h8v4l-12 16h-12v-12zM300 732q4 -11 44 -28l24 8h12q38 -32 52 -32v4q0 20 16 20v4q0 6 -68 32l-44 -4l-36 4v-8zM332 656q6 -11 84 -56l4 4v8q-41 56 -80 56h-8v-12zM332 908l8 -8h8q17 17 92 52q0 8 40 36l4 4v8h-8 q-107 -57 -144 -92zM432 632q47 -73 132 -96l8 8q-32 52 -92 76l-36 24h-4q-8 0 -8 -12zM464 804h12l104 44l12 12v4l-20 4h-12q-14 -12 -76 -36l-20 -24v-4zM488 676l12 -8h8v4l-16 12l-4 -4v-4zM628 904h16l12 12v4q-21 0 -28 -16zM644 988q76 15 76 40l8 32l-4 4h-12 l-68 -64v-12zM660 468q30 -52 40 -52q16 4 16 24v12q-20 28 -52 28zM700 524q21 -35 28 -36l8 8v16l-36 20v-8zM720 1108l8 -8h8v8l-4 4v4l-12 -4v-4z" />
<glyph unicode="=" d="M70 577l9 25q-6 2 -6 25q3 15 9 15l-2 31l11 9l88 -6l2 3h1l2 -3l52 6l60 -6q32 6 147 9l135 -6q45 -10 45 -21t-7 -25l4 -9v-7l-4 -9v-28q1 -21 4 -21q0 -43 -7 -43l-11 -4l-27 7l-7 -3l-97 15h-10l-7 3l-7 -3h-21l-9 3l-10 -3l-64 6q-43 -9 -74 -9l-37 3 q-18 -8 -133 -12l-5 21v3q2 13 23 13v3h-16l-5 -3l-2 3q0 -5 -12 -13q-6 0 -12 31zM90 256q0 9 7 21l-4 8v5l4 8v23q-1 18 -4 18q0 37 7 37l11 2l27 -5l7 3l97 -13h10l7 -3l7 3h21l9 -3l10 3l64 -5q43 7 74 7l37 -2q18 7 133 10l5 -18v-3q-2 -10 -23 -10v-3h16l5 3l2 -3 q0 5 12 11q6 0 12 -26l-9 -21q6 -2 6 -21q-3 -13 -9 -13l2 -26l-11 -8l-88 5l-2 -2h-1l-2 2l-52 -5l-60 5q-32 -5 -147 -8l-135 6q-45 8 -45 18z" />
<glyph unicode="&#x3e;" d="M148 540q0 13 56 36q0 25 32 28h20l12 -8q105 42 304 196q0 20 -136 104q-29 28 -148 48q-28 -32 -44 -32q-16 4 -16 16l8 56l-8 40q35 156 56 156q34 20 52 20q52 -38 96 -52q22 -50 140 -100l96 -68q0 -9 56 -40q124 -109 124 -140l52 -56v-4q-118 -96 -248 -160 q-130 -70 -264 -156q-65 -65 -184 -96q0 -8 -20 -8h-12q-14 8 -20 24l4 16l-4 20q3 24 8 24l-4 4v20l-4 52l4 24zM184 476l4 -20h8l24 20v4l-8 28q0 18 36 24l40 28v4h-8l-24 4q-72 -22 -72 -60v-32zM188 388l8 -8h4l60 60l-8 8h-4q-60 -33 -60 -40v-20zM284 1128 q0 -9 20 -12l8 12v32h-8q-20 -10 -20 -32zM324 980q7 -16 28 -16h16v8l-28 24h-8l-8 -8v-8zM324 1028l8 -8h16v12l-12 12h-12v-16zM340 1124l64 -40h16l8 8q-13 29 -72 60h-4l-12 -12v-16zM408 488h16q13 0 44 24q134 69 148 84q39 15 52 32h-12q-15 -12 -72 -32 q-109 -62 -176 -84v-24zM424 536q92 39 92 72l-12 8q-40 0 -80 -68v-12zM436 996q16 -28 36 -28h8v4q0 7 -28 24h-16zM468 912l32 -20h4v4q-16 0 -16 24l-12 8h-8v-16zM472 1064l44 -32h16l8 8v4l-68 24v-4zM524 944q53 -87 148 -128l40 24v4l-8 8h-16l-12 -8l-140 108z M564 844q53 -52 68 -52v12q-42 32 -68 40zM572 680q18 0 212 132q9 0 12 20q-8 31 -132 128l-16 4q0 17 -52 36l-8 -8q51 -24 96 -80q42 -26 84 -68q-71 -67 -196 -152v-12zM648 672l4 -4h4l12 12h-12zM672 632h12l40 28h-8q-19 -16 -40 -16l-4 -4v-8zM688 704l4 -4h16 q15 14 72 40l28 24h12q16 -8 16 -24h12l12 12v4q-26 48 -52 48h-4q0 -33 -52 -52q-6 -12 -64 -48zM732 664q28 6 28 16h-4q-24 -2 -24 -12v-4zM764 684h8l8 8v4h-4l-12 -4v-8z" />
<glyph unicode="?" horiz-adv-x="859" d="M0 903v52l16 58q4 0 18 37q60 85 150 115h8l13 -2q53 22 94 29q0 4 61 15h2l55 3l3 -3h3l10 3q21 0 68 -13l55 -18l71 -24q42 -7 97 -55q29 -17 61 -100q6 0 23 -81v-3l-2 -18l2 -11l-7 -50l2 -23q-10 -19 -21 -58q-50 -79 -73 -79l-13 8h-3q-26 -27 -68 -34l-61 -13 l-8 2q-52 -13 -52 -31q-63 -95 -63 -123v-14l-8 -112l-3 -13l3 -3q0 -65 -21 -65l-11 -3l-18 3l-19 -3l-63 3h-10q-8 2 -8 15v24l3 11l-6 10l3 13l11 181q4 82 39 139l58 52q16 27 34 27q23 0 58 -13q42 13 79 34q60 38 60 68q13 15 13 31l-2 21h2l-2 3v24q-20 86 -63 120 q-43 24 -77 35h-36q-202 -7 -202 -24q-79 -58 -79 -100q-19 -28 -19 -58v-36q0 -19 -13 -34l-84 2h-2l-32 -2q-26 41 -26 81zM16 927l2 -19h6l5 21l-5 34l5 6v5q-5 0 -13 -19v-28zM24 890l5 -5h2v10l-5 5h-2v-10zM34 1000l3 -3h10l-5 27h-3zM37 850l5 -7q24 3 24 7v6l-6 5 l-23 -8v-3zM47 1032h3q63 66 63 73l-3 3h-2q-61 -60 -61 -76zM81 892h3l13 29q18 20 18 34v3q-28 -10 -28 -29q-5 0 -6 -18v-19zM92 850q10 -7 23 -7h11l10 10v18l-21 -15l-15 2h-6zM265 -7l21 57q7 0 7 8q34 24 63 24q17 0 56 -42l5 -34v-13q0 -48 -42 -82l-26 -5 q-55 0 -79 60l-5 16v11zM276 1171l5 -6h10q87 13 87 19l-3 2h-2q-27 0 -84 -15h-13zM299 -34v-5l5 -5v10h-5zM309 329q0 -16 16 -16h21l5 5l-8 8l-8 -3l-15 13h-6l-5 -5v-2zM346 -26v-5q11 0 16 31l-3 8q-5 0 -13 -34zM357 1118l3 -2v-3q41 3 55 8l2 -3h3l8 3v8h-37l-34 -8 v-3zM391 321l5 -6l8 3v16l-6 5l-7 -13v-5zM396 1189h6v3h-6v-3zM451 1181q0 -8 29 -8l6 8l-32 8h-3v-8zM541 1084l36 -26h6v2q-12 29 -32 29h-5zM596 667q13 0 16 8v5h-8l-8 -8v-5zM638 1126l29 -24l5 -5h3q5 0 5 8q0 10 -37 24h-5v-3zM648 1058l6 -5h2v5l-5 5h-3v-5z M675 924l5 -18h8v13l-8 8h-5v-3zM735 1032q2 -16 8 -16h2v2l-2 14h-8zM766 801h3q7 0 11 26l-6 5q-8 -10 -8 -24v-7zM780 898l5 -6l2 3v18l-2 14h-5v-29z" />
<glyph unicode="@" horiz-adv-x="1639" d="M100 744l4 14v10l-4 18l18 120v32q0 7 10 7q0 44 36 124q9 0 17 25l170 198l152 116q34 31 113 60q0 10 71 32l7 7h25q103 32 343 32q31 -19 92 -35q3 -8 49 -32l60 -50q125 -124 152 -166q110 -131 110 -145q28 -48 39 -187q-12 0 -25 -156l-28 -56q-14 0 -68 -96 q-45 -57 -67 -67q-96 -102 -116 -102q-117 -99 -216 -99l-35 -4h-46l-25 7l-35 -10q-27 0 -46 166h-11q-31 -21 -120 -36l-29 -3l-183 53q-61 21 -92 67l-25 32q-45 86 -46 138q0 71 28 162q22 73 67 121q51 58 117 92q28 22 81 42q33 21 71 21h32l14 4l14 -4h36 q19 0 102 -67h4q14 24 14 42l-7 18l39 25h7l32 -4q11 9 91 22q15 -20 15 -36l-4 -28q6 0 11 -18l-4 -3l4 -22l-7 -38l3 -18q-14 -61 -14 -110v-32l-18 -95l4 -11l-21 -130v-18l-4 -67q6 -32 21 -32q50 0 75 35q24 0 92 60q10 43 38 43q14 0 22 32q21 0 56 92q25 46 25 141 v39q0 64 -92 198q-90 99 -166 134l-81 32q-42 14 -128 25h-25q-32 -10 -123 -18q-94 -31 -209 -113q-68 -37 -191 -191q-22 -26 -53 -110l-28 -116l-4 -21l4 -4v-35q18 -63 18 -110v-3q14 -1 14 -15l-4 -42l7 -21l-7 -43v-14q0 -26 25 -46l3 11h8q-3 -28 -8 -28 q9 -37 135 -142l32 -32h17q0 -12 25 -17q40 -29 74 -29q0 -8 60 -17q56 -22 92 -25l4 3l81 -7l25 4l74 -4l39 7l7 -10v-7q-21 -16 -21 -43l3 -3h4l21 3l7 -21q-4 -95 -28 -95q-15 0 -32 -18h-14q-8 0 -11 18h-53l-28 -11q-21 6 -21 11l-64 -7l-14 7l-10 -4l-15 4l-21 -4 q-16 7 -18 14l4 25l-11 7l-17 -3h-18l-78 24q-56 39 -134 78q-83 46 -103 46q-116 71 -127 127q-56 106 -109 262v102zM372 599l4 3h3l4 -3v-7h-4zM404 433v3l7 7l4 -3v-7h-11zM436 616q34 -39 56 -53h4v4l-57 56h-3v-7zM489 896h7l7 7v7h-7l-7 -7v-7zM507 549h14l-7 7h-7 v-7zM528 620h3v7h-3v-7zM538 786q0 -43 39 -74q25 -14 89 -25h17q44 6 78 35q81 35 81 96l11 10v36q0 36 -67 109q-46 22 -85 22q-34 0 -113 -96q0 -7 -32 -46q-18 -27 -18 -67zM584 521l4 -4h53l18 4v14l-11 -3l-18 3q-46 -3 -46 -14zM584 1108h29l10 10v11h-3 q-13 0 -36 -21zM602 1341q17 0 81 39v7h-10q-24 0 -71 -42v-4zM669 1461l4 -3h7l7 7v3h-11zM712 1125h21l14 15l-28 3zM779 1055l7 7h-7v-7zM779 1168q3 -11 21 -11l7 7l-7 7h-21v-3zM793 136h32l46 35v3l-11 4q-53 -7 -53 -14l4 -4v-3zM814 991l11 -10h3v21l-7 7h-7v-18z M857 535l17 -3q14 0 14 35l-3 3h-4l-24 -31v-4zM874 125q16 -2 36 -25q24 53 24 74h-7zM878 970l7 -7v10l-7 8v-11zM906 436q3 -42 14 -42h7l4 14l-7 35h-11zM963 998l7 -7l3 4v35q-10 -2 -10 -28v-4zM977 1055l3 -4h4l3 4v25h-7zM987 1419q31 0 57 -18l42 -10l4 3v7 q0 14 -81 25l-22 -4v-3zM994 440l8 -7l17 84v4l-3 18q-6 0 -22 -85v-14zM1005 376l7 -7h11l17 3v4q-10 13 -10 25h-4l-21 -22v-3zM1016 715l3 -10q10 0 18 17q-5 18 -11 18q-10 -13 -10 -25zM1026 1511q23 -21 50 -21l7 7l-32 14h-25zM1062 493q5 -15 10 -15q0 32 18 54v7 l-7 7q-8 0 -21 -53zM1065 1157l7 -7l4 4v32h-7l-4 -25v-4zM1115 549l3 -10h7l11 10l-7 7h-4zM1200 1437l7 -7h3v7h-10zM1228 1408q99 -106 109 -106h4v4q-5 17 -106 109h-7v-7zM1256 1288l35 -39q18 -6 18 -21h11q-19 42 -57 67h-7v-7zM1398 772h3q0 22 14 35v25h-7l-10 -49 v-11zM1405 860l3 -10h7l11 10q-7 36 -14 36zM1405 1186l3 -11h7v14h-3l-4 -3h-3zM1440 945l7 -14h7v14l-11 11l-3 -4v-7zM1465 1143l35 -67q11 0 11 -28h7v7q0 33 -43 95h-3zM1493 800l4 -25q12 0 21 71v11l-11 14l4 25l-4 3h-7q-7 0 -7 -10l7 -29q-7 -15 -7 -56v-4z" />
<glyph unicode="A" horiz-adv-x="1224" d="M0 58v8q0 8 16 8l-4 19l77 198q6 2 55 125q14 19 23 54q31 15 31 43l4 4q0 8 12 8l-8 11v24q0 20 35 73q21 42 27 86q28 24 39 62q39 10 39 78l19 35q0 31 35 97q20 0 20 31q12 19 27 19l27 47q-8 21 -8 66q0 35 39 66q0 78 51 78q6 39 35 39h11q20 0 27 -121l39 -151 q6 0 20 -59l43 -116q27 -54 69 -183q16 -40 67 -120l139 -299q82 -148 82 -187q-5 -23 -12 -23h-4q-14 0 -15 31h-12l12 -47h-4l4 -4v-4l-12 -11q-19 8 -19 31l-16 -4l-4 4h-3l-16 -4l-43 23l-11 -4l-12 4l4 -4v-7h-8q-16 6 -16 23q-23 -3 -23 -12v-4l16 -27l-4 -4l4 -4v-7 h-8q-15 0 -39 77q-8 36 -70 175q-30 81 -81 140l-32 -4l-31 4l-15 -4l-109 8l-39 -4q-35 3 -35 8l-4 -4h-35q-32 0 -70 -120q-7 0 -11 -28q-30 -57 -74 -186q-9 0 -12 -27q-16 -4 -35 -55q-14 0 -46 -27h-12q-7 0 -19 31v8l11 15v8h-19l-8 -8l12 -15l-24 -8q-7 0 -35 27h-11 q-8 0 -8 -11l-4 -4h-15zM220 480h4l8 40v4h-4l-8 -32v-12zM452 780q0 -16 44 -32l4 -20l-4 -32l28 -36q21 12 40 12h4l16 -4l24 8l16 -8q0 8 20 8q-36 88 -96 172q-20 0 -20 12h-8q0 -31 -24 -56q-7 0 -20 40h-4q0 -18 -20 -64zM492 888h8l-8 8v-8zM500 772v12l8 8l4 -4v-12 l-8 -8zM588 868q3 -16 20 -32v-16l12 4q-13 44 -24 44h-8zM620 1300h4v16h-4v-16zM624 804l4 -20h4v8h4l-12 16v-4zM632 912l20 -48h8v4q0 19 -24 44h-4zM640 760l4 -12h8v8l-12 12v-8zM648 1052q56 -185 92 -232q65 -208 88 -208v8q-16 21 -32 92l-40 116q-76 157 -96 224 h-12zM664 848l4 -20h4v20h-8zM680 808l4 -20h8v12l-12 12v-4zM836 264l8 8l-4 4h-4v-12zM848 228q16 -11 36 -80h12v32l-44 76h-4v-28zM952 356l8 -8v8h-8zM972 316h4v8h-4v-8zM1008 56v8h8v-8h-8z" />
<glyph unicode="B" horiz-adv-x="1000" d="M0 1190v59l8 9q13 -5 38 -97h5l4 4v4l-4 110l8 8q9 0 21 -38q9 0 34 30l42 8l38 -8q68 0 68 21l131 -13l92 9q144 -26 144 -72q11 0 38 -30q12 0 51 -54q31 -43 54 -102h9v21q-14 48 -68 123q-25 19 -33 50l4 5h4q105 -84 152 -270q0 -91 -63 -148q-50 -63 -72 -63 q-10 0 -30 -22h-97q0 -64 127 -152h4v5l-25 25v4h12q26 -8 60 -42v4q-6 33 -34 55l4 4h8q70 -34 144 -135l17 -122q-29 -93 -68 -152q-10 0 -21 -34l-12 -8l-17 4q0 -45 -51 -63q0 -8 -51 -26l-93 -50h-25l-13 8h-12q0 -17 -26 -17l-25 21q-8 -33 -17 -33l-21 29 q-12 0 -12 -13l-5 -4h-12l-17 13q-7 -34 -17 -34l-17 13q-14 -26 -34 -26q-67 12 -67 34l-5 4l-46 43h-21l-9 -9l17 -21v-8q0 -8 -29 -21q0 -24 -51 -30l-38 17l-12 -4l-22 25v30l5 21q-13 106 -17 261l8 156l-8 140l4 12q-13 48 -30 524zM42 941q10 -84 21 -84h5l-5 105v89 l-12 46h-9v-156zM68 59l12 -34h4l9 21q-13 3 -13 34v76h-8l-4 -42v-55zM93 1106q0 -31 13 -34l4 17l-13 38h-4v-21zM219 882q0 -20 22 -51l-13 -21l21 -4l34 9l17 -5q0 20 42 26q0 12 17 21l97 -13q94 0 110 68v21q-31 118 -97 118q-14 15 -98 46q0 15 -29 26l-34 -4l-25 4 l-13 -9l-8 -88l8 -81l-8 -33q0 -26 21 -47v-12l-13 -13h-17q-7 0 -21 38l-4 4h-9zM232 1102h4v8h-4v-8zM245 300q11 -59 25 -59v8l-17 55h-8v-4zM274 388q0 -83 26 -122h8l13 8q29 -19 29 -38h17v5l-4 21l4 4h4q22 0 51 -17q0 17 30 17q38 -4 38 -17l4 4l93 51q38 50 38 84 q0 48 -59 110q-18 0 -97 51q-95 46 -136 46h-21l-29 -4l-4 -63v-106zM304 236q13 -12 13 -29h16v34l-12 12h-17v-17zM544 540l26 -25h8v4q0 12 -34 30v-9zM574 1013l30 -80h8v21q0 38 -30 59h-8zM578 1207q0 -9 21 -13l-12 13h-9zM650 367h4l9 55l-5 4h-4l-4 -4v-55z M692 1085q13 -14 21 -47h5v13q0 30 -26 46v-12zM789 443l13 -42h4v13q-2 42 -12 42zM789 1000l5 -17h4v22l-4 -5h-5zM806 532q51 -63 51 -169h4v42q0 84 -42 131v4h-4z" />
<glyph unicode="C" horiz-adv-x="1300" d="M0 608l19 43l-5 43q0 92 43 238l53 110q20 33 62 67l10 -19l23 15l-4 23v10q80 110 148 110q0 22 272 48q62 0 77 -24h4l5 5l24 -5l38 5q65 -16 86 -43l182 -134q11 -24 43 -48l29 19q28 0 71 -210l5 -58q0 -109 -24 -109l-24 -5l-28 5l-34 -24h-14q-12 0 -15 19h-4 q0 -19 -15 -19h-14q-56 49 -76 153q-20 89 -215 186l-115 43q-42 72 -62 72l-19 4l-72 -23q-43 -29 -43 -53q-14 0 -14 -14l-5 -5h-5l5 -5v-10q-46 -32 -86 -133l-15 -91q9 -405 158 -497q117 -105 230 -105h52q52 0 143 48l82 143q9 0 19 38l5 5h9l24 -5l19 5l91 -10l24 5 q25 0 38 -67q0 -24 -110 -224q0 -19 -67 -91l-57 -19l-10 9l-9 -9h-15q-9 0 -9 48q-42 -27 -57 -77l-39 -19l-4 5v5l-29 -10q-10 0 -10 48q-18 19 -52 19q-1 -15 -34 -29q0 -24 -124 -24q-22 0 -105 53l-10 9h-19l-14 -9h-24l-10 9l10 24q0 10 -119 110v-5l71 -76v-10 q-36 0 -105 82h-5v-5q0 -11 29 -29l43 -48l-10 -9q-129 75 -186 210q-67 126 -67 206zM295 444q16 -44 42 -74v9q-24 64 -42 70v-5zM393 267q2 -10 23 -19h5v5l-28 18v-4z" />
<glyph unicode="D" horiz-adv-x="1100" d="M0 80l10 56v71l19 174l-4 14l19 202q-7 639 -24 639v24l14 14q17 -33 40 -33v5q2 19 14 19q10 -19 25 -19l14 4l30 -4l44 4l15 -4l24 14h20q33 -5 34 -14l5 4h5l171 -65q12 -21 177 -108q3 -15 117 -76l138 -164l44 -80q34 -77 34 -141q0 -284 -113 -404 q-100 -125 -166 -146q-101 -57 -260 -57h-34l-54 -9h-10l-127 14l-15 -5l-103 5h-20q-78 12 -78 42zM200 879l25 -633l-6 -5v-5l6 -21v-15h12q141 0 254 56q61 0 186 123q50 100 50 153v82q0 123 -149 301q-76 75 -359 138q-19 -18 -19 -61v-113zM235 757l10 -85l10 -287h5 v10l-10 414h-5zM255 296l10 -9v9l-5 14h-5v-14zM603 94h10l9 9v5h-5zM730 273l10 9v5h-10v-14zM730 503h5l5 24v117h-5l-5 -136v-5zM813 809l10 -10v5l-10 9v-4zM853 804h5v9h-5v-9zM858 851q29 -39 68 -127h5v5q0 18 -64 122h-9zM862 785l15 -14v5l-15 14v-5zM897 329 q31 32 49 146v23l-5 24h-5q0 -63 -39 -193zM931 715l10 -76h5l5 24l-15 56h-5v-4z" />
<glyph unicode="E" horiz-adv-x="955" d="M0 146v39l10 43l-10 141l15 78l-5 5v5l34 315l-5 15l19 248q-19 29 -24 92l15 53l-10 44v5q3 29 14 29q34 0 39 -44h5v10h5l-15 39v10q0 11 34 24l5 -5h5l20 5l19 -15h5l10 10l218 -14l58 9l195 -9l39 9q68 -16 68 -34q0 -19 43 -19q15 -24 15 -54l-15 -58l5 -121v-5 q-6 -49 -19 -49q-25 0 -29 15v5l19 63l-10 87h-9v-82q0 -28 -20 -54l5 -24l-19 -15h-15l-126 -9l-107 24l-5 -5l-34 5h-29l-20 -5l-38 10q-27 0 -34 -24l38 -209l25 -15q0 10 102 15l43 -5l49 5v-5l49 10l14 -5l112 14l10 -29v-14l34 4l9 -14l-4 -83l14 -58v-15 q0 -27 -53 -77l-29 4l-20 -9l-78 14l-34 -5l-189 30h-10l-39 -15l-43 19q-43 0 -49 -116v-73l24 -5l5 5h5q13 -10 107 -19q128 4 155 19l161 -10l68 15q22 -10 24 -20v-24q39 -1 39 -19v-25q-25 -204 -58 -204l-25 -19l-14 15q39 33 39 102q19 7 19 34l-15 9l-4 -5l4 -4v-25 q-32 -82 -68 -82l-9 9l14 20h-9q-20 -11 -20 -39l-5 -5h-48q-49 0 -49 10l-5 -5h-19l-20 5l-5 -5l-160 10l-19 -5l-34 10q-48 -10 -141 -10h-10l-14 10l-25 -10l-19 14v5l10 15v5h-5l-20 -10q-19 7 -19 15v9l10 15v14l-15 -14v-15q0 -17 19 -39v-14l-14 -15h-10 q-34 0 -87 63zM73 661h5l14 150l-5 5h-9v-10h-5l5 -4v-10l-5 -126v-5zM92 923l10 10v53l5 20l-5 14h-5l-5 -58v-39zM117 646l4 -24h5l5 73l-5 14h-5l-4 -58v-5zM146 913h5q0 71 14 102l-5 15q-14 0 -14 -73v-44zM170 651h5v19h-5v-19zM296 865l10 -63h5l5 14l-10 54h-10v-5z M442 170h24v5h-24v-5zM690 1244h29v9h-5l-24 -5v-4zM753 1166l5 -5h10l9 10v29l-9 10h-5zM763 257h5l9 10h-5zM811 199h5v15h-5v-15z" />
<glyph unicode="F" horiz-adv-x="837" d="M0 62l4 54v62l5 5l-5 4q9 130 50 429q13 0 13 49v98l-5 40l5 31v5l-5 18q11 0 23 223l4 4l5 14l-5 4l5 22v45q0 35 31 67l22 -13l14 13l200 -4v-5l5 5h4l58 -5q27 3 27 9l22 -4q101 0 166 -14h35q81 0 81 -22l-5 -31h5q49 -6 49 -27l-9 -27l4 -40q-15 -188 -58 -188h-4 l-121 14l-31 -5l-36 14l-26 -5q-62 27 -148 32v4l-22 -4h-4l-5 4h-4q-21 0 -32 -170q34 -13 99 -13h53l40 5l14 -5l142 9l23 -31v-9l-5 -14h5q33 0 40 -35q-48 -182 -67 -214l-13 -5l-27 5l-18 -5q-12 9 -179 22h-44l-5 5l-4 -5h-18l-22 5q-32 -72 -32 -147v-81l-4 -44 l9 -98q0 -60 -49 -94h-9l-27 13l-27 -9l-4 5h-5l-84 -27l-5 4h-4l-27 -4h-13q-14 3 -14 36v9q-27 0 -27 17h-4zM54 437l4 -22q9 0 9 22h4l-4 5v44l-9 9h-4v-58zM71 513h5l9 67l-5 18h-9v-85zM80 36q0 -9 14 -9q22 6 22 31q-36 -4 -36 -13v-9zM85 754q0 -94 13 -94l9 130l5 4 l-5 5v4l13 116v76l9 40l-4 31l9 36l-5 5h-9v-18q-16 -52 -26 -219l-9 -9v-13l4 -31l-4 -41v-22zM120 1160l9 -9q23 24 23 36l-5 4h-9l-18 -17v-14zM210 67l9 -9l13 13v5zM357 1182h58v9l-13 14h-32q-10 0 -13 -23zM379 964l5 -5h9l18 9v9h-27zM415 1008l27 -13l31 54h-4 l-18 -23q-30 0 -36 -18zM469 950l22 -4h18l-5 13h-4l-18 -9l-5 5h-8v-5zM469 1182h13v5l-9 9h-4v-14zM486 995l9 -9h14q13 5 13 27v18l-36 -31v-5zM527 950l13 -17q22 0 27 17l-18 -4zM544 977h14q10 0 13 31l-27 -26v-5zM589 924h13q8 0 14 22l-23 4h-4v-26zM593 705h45 q0 22 -9 22q-36 -7 -36 -22zM656 634q13 2 22 26l-4 14h-9zM723 915l9 -9l18 22v27h-5q-22 -6 -22 -31v-9z" />
<glyph unicode="G" horiz-adv-x="1200" d="M0 638v30l33 160l-11 26l14 36l-3 15q34 61 51 73q25 70 150 197q62 66 124 84q34 33 149 51h33l51 -4l15 4l18 -4l44 11l127 -40h11l26 7l36 -22l22 11h8q47 -24 80 -76q62 -75 73 -106l-11 -29q33 -66 33 -165v-11q-11 -13 -11 -36q-11 -18 -40 -18l-26 3l-4 -3h-3 l-22 7l-51 -7q-62 4 -62 44l-59 94q-96 88 -127 88q0 18 -186 36q-27 -40 -51 -40q-143 -114 -165 -182l-47 -164l-11 -102q20 -99 47 -121q117 -175 176 -175q87 -40 138 -40q77 0 219 80q37 48 37 69l-19 8l-22 -4q-29 0 -51 11l-11 -4q-9 8 -32 8v3l-19 -3l-142 -4 q-50 15 -55 29v18q0 65 40 161h8l266 -18h33q34 -11 109 -11h77q95 -8 95 -48v-21l-26 -212q-9 -11 -22 -58q-49 -127 -124 -194l-47 -40q-14 -11 -51 -15q0 -17 -201 -47q-78 0 -204 26l-73 40q0 5 -33 14q-213 165 -252 274q-58 95 -58 212zM146 259h4v7h-4v-7zM317 102 l48 -33v4q0 13 -48 33v-4zM420 1109h11l3 4v3h-3l-11 -3v-4zM434 1083l26 -3q5 0 11 14h7v15l-44 -22v-4zM533 471h14v3h-14v-3zM566 606l7 -8h3v4l-7 7h-3v-3zM876 248l25 33h-7q-11 0 -18 -33zM901 865h18v7h-18v-7zM1007 868l7 -7l8 7h-15zM1025 573h26q0 9 -15 11 l-11 -4v-7z" />
<glyph unicode="H" horiz-adv-x="1040" d="M0 102q22 40 37 297v19l4 4l-4 3l21 245l-4 4q8 62 8 173v23q-12 236 -29 339l4 3h9l4 -3h4q0 30 8 30h4q9 0 9 -12q20 0 29 31l29 7q111 -7 111 -38q16 12 29 12l-4 3v16l21 3h4q20 0 37 -75v-56q0 -14 25 -64l-4 -95l4 -135l13 -19l4 4q124 -15 178 -15h50l49 -4v23 l13 105l-4 4v4q12 61 20 237l-4 41q0 34 29 49q0 11 9 11q87 0 87 -41h4q0 19 41 38h29q30 0 54 -354q0 -349 -58 -637l-4 -30l4 -120v-53q0 -75 -25 -75h-25l-25 4l-33 -8h-12q-71 0 -71 19l-4 11l4 79l-4 162l13 90l-4 144l4 11q0 60 -54 60l-62 4l-13 -11q-35 11 -116 15 l-4 3h-4l-4 -3h-4l-46 11q-74 -4 -74 -11q-38 -189 -38 -354q-10 -192 -45 -192h-13l-4 3l-4 -3h-104l-29 -8l-24 4l-5 -4h-4q-24 8 -33 26v23zM54 83h8v4h-8v-4zM75 410l4 -15h8l4 19l-4 4v4l12 67l-12 16zM166 1194l4 -19v-106h4l4 45v23q18 14 21 34l-29 23h-4zM211 132 h9v4l4 60l-4 11h-5l-4 -15l4 -4l-4 -45v-11zM253 565h8v19l-4 18h-4v-37zM278 663l8 -8h4v8l-8 7h-4v-7zM696 79q10 -26 17 -26h8l8 7q-12 0 -21 121l5 15l-5 71h-4zM725 1137h4l4 11l-4 42h-4v-53zM771 403h8v4h-8v-4z" />
<glyph unicode="I" horiz-adv-x="349" d="M0 48l8 64l-4 16l20 224v24l4 16l-4 16v48l4 20l-4 24l8 148q-12 99 -12 172l4 84q-11 43 -16 308l28 12h4q16 -5 16 -52h4v36l-4 12l4 4q-6 0 -16 28q0 14 40 28l32 -20q3 12 32 12q20 -7 20 -20l40 4l12 -24l-8 -204l4 -4v-4l-4 -4l8 -120l-8 -140q8 -74 12 -340 l-8 -312q-13 -104 -28 -104q-14 0 -32 16l-12 -8h-8l-12 8h-36q-28 -1 -28 -8q-56 0 -56 16zM32 76q0 -31 16 -36h8l8 8v4q-22 116 -28 116l-4 -88v-4zM56 1140h4v12h-4v-12zM164 1176h4v40h-4v-40z" />
<glyph unicode="J" horiz-adv-x="966" d="M0 534q10 130 37 130h4q14 0 29 -12l36 4q86 -3 86 -23v-8q-28 -133 -28 -213q0 -113 65 -131q41 -50 152 -79h12q131 39 131 67q9 0 57 60q66 105 66 197h4l-4 4v51l-4 16q6 19 12 186l-4 24l8 252l-4 4l4 20q0 104 12 162l-8 47q6 24 12 24h17l33 -28q1 20 12 20h8 q41 -27 41 -39l-8 -24q12 0 12 47l4 4h25q8 0 8 -16q20 0 20 -31v-265l5 -102l-5 -24l17 -59l-8 -79l4 -75l-4 -16q8 -16 8 -44v-51q-12 -160 -49 -249q0 -47 -99 -154l-131 -95q-88 -51 -188 -51h-12l-135 32q-51 14 -164 130q-82 109 -82 205l4 4v4zM35 444h4l7 7v18 q-8 0 -11 -25zM194 132l8 -8l7 8l-11 7l-4 -4v-3zM569 299q29 15 29 35l-4 14h-4q-9 0 -21 -49zM601 604h4l7 93l-4 110h-3l-4 -178v-25zM605 846h3l4 43l-4 10l25 50l-14 71h-4l-10 -128v-46zM619 1123h3l7 32v4l-7 7l-3 -36v-7zM622 348h4l10 11v25h-7l-7 -14v-22z M633 412q18 13 18 39v29q-11 0 -18 -46v-22zM647 547h4l3 25v11h-3l-4 -28v-8zM672 313l3 -4h4l7 22h-4q-8 0 -10 -18zM675 384l7 -7l7 28v18q-9 0 -14 -28v-11zM689 768l4 -157h4l7 114v7l-7 11v39h-4z" />
<glyph unicode="K" horiz-adv-x="933" d="M0 82q0 213 25 401l-4 82q4 163 11 200l-4 36l4 3v4l-4 11l7 96v57l-7 68v122q0 100 18 100l25 -11l18 4l14 -4q0 8 18 11q0 -7 88 -21l39 -22l4 4h3q43 -29 43 -83v-28l4 -82l-15 -75l4 -18l-4 -54v-18h4q30 26 174 193q91 140 145 140q33 0 64 21l21 -14h4l43 14 l35 -11l18 11l17 -3h32l11 -11q0 -22 -14 -22v-3q28 0 28 -11q0 -16 -57 -61q-48 -42 -184 -193q-7 0 -7 -14q-16 -1 -39 -29q-147 -127 -220 -218l46 -53q98 -93 202 -211l96 -133l53 -53q14 0 22 -15v-17l-4 -4q0 -10 46 -68l14 -36l-7 -10l4 -18q0 -19 -11 -22l-14 11 h-14q0 -14 -11 -14l-53 14h-7l-11 -7h-3l-78 14q0 -7 -36 -32h-7q-16 1 -39 61l-46 68q-18 13 -163 254l-39 67q-40 51 -47 51q-15 0 -17 -65q-43 -192 -43 -347v-25q-3 -32 -21 -32l-21 18l-11 4l-4 -4l-35 4h-4l-14 -4l-14 4h-4l-10 -8l-22 4l-24 -7zM21 122q0 -40 11 -40 q28 0 28 22l-28 14l-4 68h-3l-4 -61v-3zM25 64l3 -3h4l21 3l-7 8h-14zM32 222h3l11 50l-3 25l3 14l-3 21h-4l-7 -103v-7zM43 383l3 -15h4q7 19 17 154l-3 11q11 29 11 53v36l-4 18l4 21v90h-4q-21 -106 -21 -190v-96zM103 107l11 -7l14 7l-4 4v64h-3q-11 -23 -18 -68z M110 75h7v4h-7v-4zM117 1148l4 -11h3l7 36h-7zM135 543h7l3 33v7h-3zM248 572q9 0 39 -36l11 -3q-9 16 -43 46h-7v-7zM248 1133h7v18l-7 -7v-11zM401 358q14 -8 14 -22h4v4l-15 25h-3v-7zM486 822h4l14 11v4zM536 1108h3l7 11h-3zM564 1137h4q25 25 35 25l-3 3v4 q-15 0 -36 -32zM582 912h3q0 7 11 7l4 11h-4q-7 -2 -14 -18z" />
<glyph unicode="L" horiz-adv-x="800" d="M0 1247l8 8h11l54 -16l89 8q82 -6 82 -27v-40l-12 -47v-39l-4 -40l4 -31l-4 -16l4 -16l-4 -110l12 -244l-8 -94l12 -75v-114q0 -31 27 -39l65 -8l4 4l31 -4l35 4l23 -8q19 27 27 27q15 0 50 -35l4 4h12l23 -8l27 8l12 -4l23 8h35q18 -16 54 -20q19 -26 19 -39v-79l8 -82 l-15 -79l-62 8l-51 -12l-123 12l-20 -4q-17 8 -104 12l-43 -4l-61 4l-8 8l-58 -12h-35l-19 12l-23 -4l-16 4l-4 -4h-4q-26 8 -38 27v134q-12 29 -20 271l4 36l-11 31l3 20q-5 67 -11 67l15 114l-4 16l4 35v43l-4 67l4 59l-4 28l4 4l-4 19q0 118 28 205q-1 12 -39 27z M128 287q0 -19 15 -23l4 4v19l-8 8h-11v-8zM174 1188l4 -4h8v8l-8 8zM213 67l11 -12h8v8l-8 8zM259 279l8 -8h4v16h-4zM317 268l12 -12h4l7 8v4l-11 11l-12 -4v-7zM506 264l16 -44q12 4 12 24v16q0 8 -24 11l-4 -3v-4zM653 51l4 -12h12v16h-8l-4 -4h-4z" />
<glyph unicode="M" horiz-adv-x="1336" d="M0 1208l100 20h28l40 4q107 0 132 -80q87 -131 140 -240q26 -37 36 -68q48 -30 48 -72l32 -48q12 0 12 -12q27 0 48 -36h4l92 144q28 15 92 164q19 27 52 112q12 3 36 68q25 48 80 104l32 -4l104 4q43 0 64 -108q22 0 60 -576l4 -244q-23 -300 -36 -300q-13 -40 -40 -40 q-10 0 -28 16l-28 -8l-20 4q-8 -8 -68 -12q-16 24 -16 72v16l4 36q-16 164 -20 504l-20 232h-4q-20 -17 -36 -84l-136 -368q0 -20 -72 -216q0 -20 -44 -140q-21 -35 -28 -36h-4q-25 0 -52 80q-35 126 -96 236q-69 196 -96 236q-23 41 -32 76h-4q0 -40 -20 -40 q-5 -28 -12 -28l-20 16l-4 -12l4 -20l-20 -76l8 -360q-7 -116 -28 -116l-12 -4l-16 12q-23 -16 -40 -16l-40 4l-40 -4l-48 8l-32 -8q-12 0 -28 28l8 112v196l-4 148l4 80l-4 148l8 192zM52 1136q8 0 8 12l-4 12h-4v-24zM152 1008h4l4 40v12l-4 20h-4v-72zM220 48 q3 -12 16 -16l4 12l-4 12h-12v-8h-4zM284 784l4 -20h8l4 16l-12 16l-4 -4v-8zM344 656l8 -8h4l-4 20h-8v-12zM620 96q6 -16 20 -24l60 200q-14 0 -28 -72l-40 -84q-12 -9 -12 -20zM992 1028l12 -12l4 4v20l-8 8l-8 -8v-12zM1012 780l8 -8l4 12l-4 20h-8v-24zM1060 52 q8 -16 24 -16l8 12v4q0 22 -16 28h-4q-12 -4 -12 -24v-4zM1064 132h8v32l-8 8v-40zM1072 708h8l4 104h-8l-4 -40v-64zM1076 860l4 -20h4v32q-8 0 -8 -12zM1088 1204l8 -8q12 0 12 16l-4 12h-8l-8 -8v-12zM1144 800l4 -36v-36h4q8 0 8 12l-8 136h-4l-4 -24l4 -32zM1148 588 l8 -8l4 40l-8 8l-4 -28v-12zM1148 900h4v48h-4v-48z" />
<glyph unicode="N" horiz-adv-x="1000" d="M0 1045v96q0 24 15 24l12 -4v4l-12 46q25 31 46 31h31l54 -31l54 -93q37 0 72 -73q11 -5 43 -70q182 -251 318 -492l12 -27h11v20l-7 46l11 62l-4 46l4 12l-4 23q0 285 -11 442l7 124v27q0 10 39 19q80 -11 80 -19l27 4h19q28 0 35 -151l15 -117l-7 -96v-55l3 -89l-3 -35 l19 -193l19 -139q-12 -98 -12 -202v-147q0 -8 -23 -8q0 -37 -103 -42l-19 4l-50 -4q-41 0 -119 143l-54 74q-9 27 -92 162q-13 14 -35 74l-107 209q-12 23 -19 23l-4 -50q0 -116 50 -480v-51q-13 -104 -31 -104h-23l-23 11q-26 0 -42 -11h-8l-30 4l-77 -12q-31 11 -31 39 v344l-4 58l4 47q0 105 -15 151q0 183 -31 426zM58 878l7 -8h4v28l-4 19h-7v-39zM73 611l4 -19h4v23h-8v-4zM130 34l4 -19l12 11v4l-8 8h-8v-4zM161 30l12 -7h4q11 0 11 65h-4q-7 0 -7 -27zM226 359q4 -73 20 -73h3l4 19q-11 24 -15 78h-8zM226 406l4 -12l8 8v4l-4 19h-4z M261 46h8l3 46v58l-3 27l-8 -7v-124zM292 723q0 -12 27 -46l26 -54h4v15q-22 81 -42 97h-15v-12zM388 534l3 -16h4v16h-7zM549 255q0 -31 50 -101q33 -60 42 -62h4v4q0 12 -46 85l-46 78h-4v-4zM649 81l3 -12l8 8l-11 8v-4zM695 1145l7 -7q0 6 27 19v4q-3 86 -23 89 q-11 -14 -11 -27v-78zM741 96l3 -11l8 7v16h-4q-7 0 -7 -12zM802 1006q3 -66 15 -66h8v12q0 88 -11 205h-8l-4 -16l4 -34zM825 65h4v16h-4v-16zM837 448l11 -11v23l-4 27h-7v-39z" />
<glyph unicode="O" horiz-adv-x="1407" d="M0 672q0 90 45 258q0 26 45 84q14 37 60 94q31 43 81 75q1 8 45 27q19 51 195 102h25l25 -4l95 9h20q51 -1 51 -9l15 4q110 -13 170 -53l85 -40q142 -115 236 -236q70 -118 70 -204q10 0 15 -94q0 -115 -70 -329q0 -19 -50 -98q-145 -169 -166 -169q-115 -79 -190 -93 q-73 -36 -181 -36l-150 36q-95 26 -145 53l-90 53q-93 71 -146 205q-90 201 -90 365zM45 605h5v31h-5v-31zM80 436l5 -22h10l5 26l-10 63h-5l-5 -45v-22zM150 329q0 -35 30 -35h10l10 9l-5 62h-5q0 -40 -15 -40h-5l-20 13v-9zM165 489l5 -75h5v84zM170 645l20 -18 q10 36 10 94h-10l-20 -71v-5zM210 187l10 -9l6 4v5l-6 4h-10v-4zM236 601q0 -140 100 -258q168 -161 315 -161l41 5l30 -5l60 14l15 -5q65 25 145 116q0 13 20 13q95 143 95 289v32q0 170 -65 240q-20 44 -55 44q-34 0 -65 49q-113 120 -145 120q-47 14 -86 14h-20l-55 -5 l-25 5q-155 -43 -230 -174q-75 -195 -75 -293v-40zM276 329h5v14h-5v-14zM296 222l10 -8l5 4v4l-5 14h-10v-14zM301 1170h5q20 7 20 31h-5l-20 -18v-13zM757 36h10q40 0 40 31h-15l-35 -27v-4zM832 147h10l10 9v9h-20v-18zM1007 160q46 21 70 80l-5 31l-10 -8v-41 q-11 0 -55 -48v-14zM1117 979q50 -77 66 -116l-5 -44q18 -4 35 -58h5l5 4v5q0 102 -101 218l-5 -5v-4zM1233 681h5v26h-5v-26z" />
<glyph unicode="P" horiz-adv-x="848" d="M0 2v9l9 76l-9 315l9 63l-5 31v57l5 81l-5 17l13 227l-4 89v124q0 138 65 138q69 5 117 18q136 0 272 -36q143 -19 143 -35l4 4h5q89 -40 121 -40l8 9q44 -23 44 -58v-17l-5 -5q35 -81 35 -187q-35 -153 -91 -191q0 -10 -86 -71l-52 -35l-186 -36h-74l-52 -9l-34 5 l-9 -18l9 -102l-5 -32l13 -62l-4 -26l4 -23l-4 -75l9 -138v-49q0 -24 -18 -31h-21l-5 4q-28 -13 -52 -13q-164 0 -164 22zM48 24l8 -8l9 8l-4 5v4l-13 -4v-5zM65 1100l9 9v14l-9 -9v-14zM78 87h9l4 31v120l-4 22h-5l-4 -53v-120zM147 891l4 -17v-14h9l9 49l-5 13 q-9 0 -17 -31zM169 536l4 -18h4l9 9v26h-4l-5 -4l-4 -13h-4zM199 180l4 -44v-67q0 -49 13 -49l5 13l-9 178h-4q-3 -31 -9 -31zM242 771q5 -26 13 -26l26 4l18 -9l17 9l39 -9q106 21 130 40q18 0 34 40q16 0 30 54q0 95 -95 128l-86 18l-5 -4h-4l-22 4q-86 0 -86 -49l-9 -57 l5 -27zM528 1154q0 -31 30 -31q0 34 -17 40h-5zM575 998q26 -30 26 -44h9l4 22v26q-7 18 -30 18h-9v-22zM653 780h13l13 22l13 32h-4q-35 -17 -35 -45v-9zM735 771h5q8 0 17 27l-4 4h-5q-10 0 -13 -31zM761 869l9 -9q7 0 13 18q-4 44 -13 44l-9 -35v-18z" />
<glyph unicode="Q" horiz-adv-x="1335" d="M4 520l5 4l-5 23v56l5 4l-5 5v5q31 209 78 290q21 69 116 203q47 49 78 64q0 13 111 46q29 23 124 56q66 52 152 78q44 0 148 -51q37 -60 55 -60l23 5q0 -14 78 -41q124 -90 171 -153q78 -91 78 -175q7 -5 23 -124l-4 -14l4 -5l-4 -23v-4l4 -19l-4 -4v-5l4 -14h-4l13 -78 q-26 -208 -83 -300l-41 -73q-53 -81 -88 -116l-4 -13q0 -32 64 -134l5 -23q-7 -35 -97 -79q-35 -18 -55 -18h-14q-9 0 -32 83q-19 21 -19 51q-11 0 -13 41l-19 23h-18q-170 -64 -235 -64v4l-5 -4h-5q-184 20 -184 46q-111 60 -134 60q-83 31 -83 69q-8 0 -32 46 q-83 81 -83 111q-64 112 -64 216zM156 667l9 9v5h-9v-14zM184 299h4l19 -5l18 5q-18 24 -18 41h-9q-12 0 -14 -41zM207 681l9 -14l-5 -23l5 -18l-5 -14l5 -14h-5l28 -129h-5q58 -175 88 -175l74 -65l101 -36l14 4q23 0 23 -9l42 9l23 -4h41l111 32v4q-17 19 -51 111l5 5 q-53 58 -56 78q9 0 9 18l139 74q40 0 87 -87q0 -15 28 -42l23 -60q38 0 106 166l23 74l-5 4v5l10 55l-5 5l5 23v46q-13 120 -33 120q-38 98 -124 147q-65 44 -221 88l-5 -5l-51 10q-116 -14 -165 -46h-5l-32 9q-51 -14 -171 -152l-32 -60l-23 -92l4 -5v-5zM419 1073l4 -5h5 q23 19 106 33v4l-32 5l-19 -5l-13 5q-51 -27 -51 -37zM626 1188l9 -9q26 0 37 18l-4 5l-42 -9v-5zM714 1303q4 -14 27 -14v10l-23 4h-4zM737 1211h9v5h-9v-5zM769 432l14 -18h9q24 0 28 14q0 27 -28 27l-18 -14l-5 -4v-5zM778 1253l10 -10l4 5v5l-4 4h-10v-4zM958 -93v-19 l14 -14h5v5q0 23 -19 28zM1000 -116l23 9l-5 28h-9zM1004 119h5v9h-5v-9zM1101 999q0 -27 28 -46h9v5q-17 50 -37 50v-9zM1115 630q18 0 18 70q-7 18 -14 18l-4 -5v-83zM1142 511q8 0 14 32l-4 14l9 27q-12 0 -19 -73zM1165 861q24 -106 33 -106v9h4l-4 5v4l4 5v4l-32 116 h-5v-23l5 -14h-5z" />
<glyph unicode="R" horiz-adv-x="873" d="M0 1032l4 28l-4 28q0 15 16 48l-4 36l12 60l-4 24q0 27 76 48l4 4h4l12 -8l20 4h40l20 -4l24 4h48l16 4q18 -8 20 -16l4 4h24q64 -9 128 -40q71 -14 148 -88q24 -25 60 -44q56 -93 56 -104q24 -80 24 -148q0 -87 -32 -116q-59 -112 -112 -112l-20 -16h-20l-4 4l-28 -8 l-12 4l-4 -4v-8q0 -14 16 -28l48 -124q31 -89 116 -228l68 -120q20 -17 20 -56q-11 -26 -72 -52l-8 -8l-20 4l-16 -4q-15 10 -60 16l-16 8l-36 -4q-40 42 -40 80q-8 0 -40 116q-40 155 -76 236l-32 80l-32 56l-36 12l-16 -8l-44 8l-16 -12v-8l8 -12v-16l-24 -24l8 -36v-52 q0 -263 12 -304q-11 -91 -20 -100l-4 4h-16q-7 0 -12 -20h-8l-32 12q-21 -32 -36 -32v4q0 8 12 8q0 14 -48 24q-52 20 -52 56l8 60l-4 20l4 156l-4 164l-4 4v4l8 24v24l4 48q-4 80 -20 172l4 28l-4 24l4 20zM60 20v8h4v-8h-4zM60 84h12v4l-4 40h-8v-44zM164 84h8l4 20l-4 4 h-4l-4 -4v-20zM216 816q0 -12 52 -12h88l144 36q20 38 20 68q0 69 -52 116q0 17 -56 52q-5 8 -88 28h-32l-44 -4l-12 4l-4 -4v-52l8 -76v-60h-8l-8 56l-8 -8v-144zM296 564v12h8v-12h-8zM496 468h8v16h-8v-16zM596 116h8v8h-8v-8zM664 1024l8 8l-8 8v-16zM680 840h4v12h-4 v-12zM680 980l4 -12h4v16h-8v-4z" />
<glyph unicode="S" horiz-adv-x="1064" d="M0 393v8q26 74 43 74l142 -16l11 4q32 0 32 -74q14 -59 67 -106q48 -43 161 -75l78 -8q112 31 149 75q43 54 43 98q0 108 -117 161q-150 47 -354 47q0 8 -59 8l-82 59q-83 74 -83 149q-11 4 -11 24v11l19 126q21 92 40 134q54 107 223 180q69 28 106 28l48 -4l19 4 q99 -29 153 -63q57 -25 126 -83q64 -24 137 -161q27 -17 75 -141v-12l-16 -15l-31 7h-32l-11 -7l-32 4l-66 -12h-12q-13 0 -24 74q-69 127 -114 138q-31 39 -204 63h-4q-224 -41 -224 -212q34 -142 118 -142l79 -4q108 0 121 20h8l67 -16l31 4q181 -43 181 -71q20 0 94 -102 q33 -66 44 -117v-40q0 -190 -110 -294q-77 -45 -110 -79q-95 -39 -205 -39h-62q-123 0 -248 71q-77 19 -161 145q-43 146 -43 177zM185 306q4 -43 15 -43l8 8v4l-12 35h-4l-4 -4h-3zM742 542h4l4 4h4l-4 12h-8v-16zM778 385h7v12l-7 7v-19zM778 1045l3 -20l8 8l-4 27h-7v-15 zM781 915q3 -24 12 -24l4 4h4q-9 24 -16 24h-4v-4zM829 562l3 -12h4v8l-4 11h-3v-7z" />
<glyph unicode="T" horiz-adv-x="1000" d="M0 1220q6 16 12 16l20 -20h4q17 16 32 16h56l140 -12l272 16l36 -4l96 8l24 -4l24 4q180 0 188 -24l16 -20l-4 -44v-4q16 -17 16 -32v-4l-12 -36l12 -76q-7 -36 -132 -36q-18 0 -36 12l-16 -8q-106 28 -172 32q-44 -4 -44 -24l4 -128q32 -26 32 -164q0 -279 24 -444 l8 -140q0 -100 -28 -100q-72 0 -96 12l-68 -8l-12 20l-28 -4h-24q-14 0 -20 44v20l4 44l-8 40l8 72q0 119 8 184l-4 4v4l4 16l-4 12l12 128l-4 56q12 238 24 296l-4 4l4 20v20q0 24 -16 24l-36 -8h-32l-20 4l-24 -4h-64l-52 -8l-24 8l-24 -4q-37 0 -44 156zM40 1200l8 -8 l4 4v8l-8 8h-4v-12zM100 1048l8 -8h8l8 8l-4 12h-12l-8 -8v-4zM364 80q0 -9 20 -12v4q-5 17 -20 24v-16zM396 1036q9 -40 16 -40l16 48v12h-4q-28 -10 -28 -20zM436 192h8l4 20h-8zM440 320l8 -8q36 72 36 88v12l-8 8q-36 -80 -36 -100zM440 708h8l44 104v12h-4 q0 -16 -36 -68l-12 -40v-8zM484 660h8l4 16l-4 16h-4l-4 -28v-4zM532 60l4 -4h24l4 32l-8 16q-16 0 -24 -44zM536 1052l12 -16h8l8 8q0 24 -20 24zM824 1168h4l20 4l8 -8h4v24l-20 -4l-12 4l-4 -4v-16z" />
<glyph unicode="U" horiz-adv-x="1000" d="M0 1212q5 36 16 36l20 -4v8h8v-16l24 8l40 -4l48 8q56 -4 56 -28h4q0 40 12 40l20 -24l-4 -80v-88l4 -100l-8 -76v-24l-4 -16q27 -169 56 -448q25 -86 104 -164q37 -16 92 -16t112 60q29 0 64 128l-4 4v4l-16 276l4 24l-12 108l4 56v44q-28 159 -28 200q0 88 28 88 q0 6 36 16l72 -8l20 8l28 -4q16 0 16 16l36 4l16 -20v-12l-12 -48q0 -219 44 -432l20 -204l-12 -92v-12q0 -172 -28 -204q-72 -123 -124 -136q-49 -36 -216 -72l-12 -4h-8l-12 8h-4l-64 -20h-12q-195 43 -240 92q-164 135 -164 404q0 102 8 164l-16 180v8h4l-4 100v148 q0 57 -12 116zM100 1184l4 -12h4l8 8v20h-4zM104 560h8v20h-8v-20zM172 272l32 -140h16v4q0 42 -44 156h-4v-20zM212 1012h4l4 64l-4 16v12l4 16l-4 16v12l4 16l-4 24h-4v-176zM216 1204h4v12h-4v-12zM252 440l20 -92h4v4l-20 92h-4v-4zM288 188q14 -28 20 -28h8v4 q0 20 -28 44v-20zM396 128l44 -12l4 4v4l-28 20q0 -8 -16 -8l-4 -4v-4zM456 56l4 -4h4v12zM480 56l8 -8h8l8 8v8q0 8 -12 8l-12 -4v-12zM652 1108q9 -88 24 -88v96l16 64v4l-20 4q-20 -9 -20 -60v-20zM684 804l20 -104h4v20l-4 92l-12 8zM732 1180l8 -48h4q12 4 12 24v24 l-12 12h-8zM740 536h4v12h-4v-12zM788 608q16 -46 16 -68l8 8q-7 174 -16 200h-8v-68l4 -32l-4 -32v-8zM812 348l4 -20h8l8 60v4l-4 20q-16 0 -16 -56v-8zM820 1088h4l4 32l-4 24v8l4 16v4h-4l-4 -20v-64zM824 1028h4v8h-4v-8zM824 1072h4v8h-4v-8zM836 872q36 -166 36 -236 l4 -76h4l4 28l-4 24v8l4 12q0 93 -44 248h-4v-8zM872 396h4l4 68v8h-4l-4 -40v-36zM880 540h4v8h-4v-8z" />
<glyph unicode="V" horiz-adv-x="937" d="M-77 1190q4 21 11 21l24 1q-1 16 7 17q12 0 14 -32l11 17l4 4h4l44 -1l23 9l9 -8l4 1l27 17l16 -3l47 22l8 1q14 -4 38 -114q28 -78 63 -137l-4 -5h-4l-98 195h-4l1 -8q2 -55 119 -290q55 -132 95 -283h4l-1 12q-16 34 -30 126l15 13l8 1l50 -194h4q37 129 105 298 q-1 13 82 177q46 150 75 188l68 -1l20 1l20 -11l24 6q17 1 42 -26q5 36 14 37l13 -20v-12l-48 -146q-41 -127 -50 -187l-8 -1q7 83 24 150q-7 -1 -31 -98q-7 0 -16 -69q-12 -18 -24 -93q-10 -8 -40 -139q-7 0 -15 -36l1 -4h4l36 74h8v-4q-32 -103 -46 -122q-17 -1 -50 -115 q-28 -48 -93 -197q-23 -19 -85 -149q1 -18 -22 -33h-4l-4 3h-4l-19 -21h-4q-12 -1 -19 59q-15 35 -38 34q-53 159 -112 291q-35 73 -150 416l-92 228q-41 98 -66 129zM92 1171l21 -19q20 11 19 25q-9 18 -17 19l-20 -1l-3 -20v-4zM153 1226l5 -11h4v4l-5 12l-4 -1v-4z M160 862q24 -65 45 -162q19 -70 36 -74l4 4l-64 217q-1 21 -13 24zM162 1211l1 -8h4l-1 8h-4zM290 757l1 -20q19 -43 21 -91l27 -63l8 1q-2 53 -49 173h-8zM386 610l1 -12l10 -52l4 1v15l-11 48h-4zM395 430q4 -24 14 -23l7 12l-1 12l-12 11h-8v-12zM402 535h4v8h-4v-8z M420 191l1 -16l5 -20q12 5 11 25l-1 12l-8 7zM552 502l4 -3h4q8 0 7 28l14 29v8l-18 -37q-12 -5 -11 -25zM693 1087q9 3 43 106l-12 -1q-32 -79 -31 -101v-4zM776 1123l4 -12q11 1 36 82l-16 7q-24 -1 -23 -17l4 -4v-4q-5 -14 -5 -38v-14zM815 1057l1 -8h4l-1 8h-4z" />
<glyph unicode="W" horiz-adv-x="1443" d="M4 1214q34 30 57 30l5 4l28 -4h6q40 0 62 9l57 -9l45 4q36 0 62 -117l-6 -52l63 -426v-43l5 -30q15 0 17 56q33 62 91 230q29 29 79 165q18 26 34 26l135 -26q22 0 57 -161q28 -55 73 -230l11 -8l-5 -13q7 -92 28 -92h6v18q0 21 51 87q5 46 96 286q0 53 67 170 q39 121 63 121h17l124 -52l62 4l17 -21q-34 -128 -96 -252l6 -39l-29 -61l6 -48q-57 -82 -96 -213q-17 0 -23 -73q-152 -425 -186 -491l-45 -13q0 12 -136 22q-20 0 -40 317q-19 23 -33 104l-74 169l-6 5v4h-16l-40 -113q-79 -219 -113 -282q-75 -165 -102 -165l-107 -22 q-40 35 -102 43l-62 -4q-23 21 -23 52q17 143 34 178v9l-11 48l6 17q-12 159 -29 182q0 122 -39 270q-15 0 -40 312zM100 1022l11 -60l12 8v31l-12 65l-11 -9v-35zM151 471l6 -43h5v69h-11v-26zM174 111h11v30l-11 -9v-21zM174 358l11 9l-6 17h-5v-26zM202 1183 q30 -143 39 -143l17 22q-19 152 -39 152h-12zM320 380l23 -4l11 26v30l-28 13h-6v-65zM524 423l11 -8l28 73v9h-17q-22 0 -22 -61v-13zM530 632h11v17l5 17l-5 18v13h-11v-65zM530 736h11v22h-6zM665 692l11 -8l6 4l-6 31l-11 -9v-18zM671 745h5v39h-5v-39zM710 949l6 -48 h11v39l-5 22h-6zM806 623l12 -39l-6 -35l6 -4h11l11 26l-22 61zM902 137l6 -22h6v43l-12 -8v-13zM953 11h6l6 17l-6 4h-6v-21zM965 37h11l34 95v22l-11 9q0 -46 -34 -78v-48zM965 480q7 -91 28 -91v13l-6 152l-5 4h-6l-11 -61l5 -4v-5l-5 -4v-4zM993 336q0 -62 34 -95l5 13 l-28 95l-11 -8v-5zM1083 688l6 -22h11l6 18q-6 30 -17 30zM1117 931h6l11 9v4l-6 31h-11v-44zM1128 901l12 -104q17 2 17 34v26q0 53 -23 53l-6 -5v-4zM1202 1144l11 -9h6v22h-6l-11 -9v-4zM1213 918q10 -39 23 -39l11 9q0 23 -28 35z" />
<glyph unicode="X" horiz-adv-x="1300" d="M-45 71q1 21 138 169q3 19 98 105q115 117 125 117l178 155q24 17 26 32q-75 122 -105 199q-30 53 -53 69h-1q-18 0 -28 61q-1 29 -140 210q-11 -1 -20 14l-1 16q0 10 35 25v-4l19 12q12 1 32 -14h7q0 19 27 20l20 -7l11 12l16 -23l20 -3l23 5q1 -18 52 -22l23 9h4 l20 -15q0 -8 -12 -8l1 -12q0 -14 61 -87q27 -69 48 -69h1q16 -66 22 -65q78 -115 79 -146h4q22 21 30 44q14 1 19 24q21 1 89 117q26 1 30 44q21 4 41 48l38 40q25 1 34 36q10 1 34 33l31 5h2q28 0 100 -32q22 1 36 -22l1 -19q0 -16 -40 -84q-15 -65 -44 -87q-2 -47 -30 -48 l-3 -4l4 -19l-7 -8l-12 3v-4q1 -19 -15 -20q-70 -73 -86 -104q-8 0 -57 -57l-33 -40q-15 0 -42 -40l1 -12h-8v7h-8l-11 -12v-4q77 -90 123 -175l119 -175l111 -148q70 -73 94 -145q1 -29 -10 -32h-4q-18 15 -36 14l-4 -4h-3l-32 19l-8 -1q0 -15 -11 -16l-12 8l-20 -5l-23 3 l-46 -13q-17 -1 -50 80q-5 0 -13 39l-4 -1l-19 -4h-1q-21 0 -29 77q-89 129 -161 252l-74 102l-16 4q-4 -15 -18 -28q-5 -27 -37 -52q-79 -106 -131 -157q-79 -66 -231 -223l-19 -12l-27 3l-23 -1q-19 0 -69 -49h-8q-19 5 -20 22l11 32l-4 4l-12 -1l-43 -5q-63 16 -63 29z M13 74h8l20 4l-1 12l-8 8l-8 -1q-11 -4 -11 -23zM158 1179l8 8l4 -4v-4h-12zM160 1229v8h4v-8h-4zM161 1089l8 8h4l1 -23l-12 -1zM176 1117v4l7 8l8 -8l1 -4l-8 -8zM204 80l1 -8l3 1l42 48l-1 8l-3 -1q-14 -7 -42 -48zM290 1191l5 -27h4l3 20l-8 7h-4zM358 1158l4 -117l8 1 l-1 23l5 86l-4 4l-1 4l4 11l-4 12q-12 -4 -11 -24zM404 1175l4 -3l1 -35q1 -24 36 -23l-1 24q0 6 -16 11q-5 31 -16 31l-4 -4zM437 1235v12h4l8 -8v-4h-12zM476 1010l3 -89h4l3 19l-2 78zM495 1237v12h12l8 -7l-4 -4zM497 1186v16h11l12 -11l1 -8l-8 -8h-4zM522 1144v4l7 8 l21 -26v-4h-4zM559 1099v8h3l8 -8l-3 -4h-4zM621 980h8v-3l-7 -1zM638 965h7l12 -11l1 -8l-8 -8q-8 0 -12 27zM656 1001v8h3l9 -8l-4 -4h-4zM722 562l1 -27h4l3 16l-4 12zM747 961v12l7 8q12 -4 13 -23l-4 -4h-8zM864 411l11 -93h4l9 71q-6 16 -20 22h-4zM917 327l1 -7 q1 -29 12 -31l8 8v4l-9 35l-4 -1zM966 259l1 -8q7 -89 18 -89l14 63q-15 29 -33 34zM1017 822v4l4 4h4l4 -3v-4l-4 -4h-4zM1025 144q1 -29 13 -31l11 20l-1 16l-20 30l-3 -19v-16zM1034 -8q14 -22 29 -30h4l6 31q-11 66 -22 66q-9 -14 -17 -67zM1047 862v8l7 8l4 -4v-7 l-7 -8zM1068 801v8h8v-8h-8zM1093 88l1 -20l5 -19q15 8 14 24q-8 17 -16 19zM1106 950l8 8l11 1l1 -4l-12 -12zM1116 -5l8 -8l4 5v3l-4 12h-8v-12zM1143 15l1 -23q15 1 16 -19h4l7 8v4q-1 21 -20 31zM1159 987l19 20l12 -11l1 -4l-16 -16h-3z" />
<glyph unicode="Y" horiz-adv-x="1066" d="M-20 1262l11 14h7q13 0 41 -18l55 7l11 -3l23 7l3 -4l19 8q42 0 77 -107q37 -37 78 -144q52 -100 99 -126q0 -15 33 -33h4l70 67q90 73 107 95q8 0 30 30q104 89 118 89q38 45 85 77l18 7q32 -11 107 -22q27 -17 70 -29l7 -30q0 -30 -99 -125q0 -7 -67 -63l-118 -122 q-31 -50 -114 -110q0 -7 -41 -30q-62 -48 -62 -66l-26 -421l4 -33v-155q18 -3 18 -11v-4l-7 -7h-4q-7 0 -7 18h-8l-37 -11l-7 -7q-31 8 -41 22h-7l-37 -22l-15 22h-11q-6 0 -14 -22h-45l-7 7v19h7q0 -10 33 -15l8 7q-22 31 -22 41q10 19 26 210l-4 4v4l4 18l-4 33 q7 191 37 310q-33 70 -100 166q-11 0 -11 22q-96 134 -96 159q-23 13 -51 85q-23 37 -34 37q-27 8 -48 62q-21 20 -36 48q-25 0 -30 45zM312 100v14l7 8h4v-15l-7 -7h-4zM353 771q41 -63 59 -103h7q7 0 7 11q-33 76 -70 103h-3v-11zM865 1144h8v3l-8 8v-11zM913 1158 q5 -18 11 -18l11 11v15l-7 7h-4l-3 -4l-4 -11h-4z" />
<glyph unicode="Z" horiz-adv-x="1400" d="M-49 40q0 10 36 36l4 4v4l-4 44l24 36l4 -4q26 50 84 124l112 124q28 43 184 180l128 112q75 55 252 224l76 56v4l-4 20h-4q-63 -12 -172 -16l-12 -4v-4l-76 8l-24 -12l-32 4l-300 -40q-47 0 -56 116q0 34 -24 80q0 28 52 28q10 20 32 20l24 -8l24 8h8l72 4l20 -4l160 12 l28 -4l24 4l32 -4l168 8l12 -4l140 16l4 -4q159 8 272 24q50 0 56 -124v-8q0 -36 -140 -144q0 -13 -96 -100q-20 -36 -112 -108q-180 -176 -192 -176l-24 8q-46 -58 -144 -116l-96 -92l-60 -60q-12 0 -28 -24v-8l4 -4v-4l12 8q60 -5 60 -12l12 4q74 0 100 16l16 -4l28 12 l24 -8l8 8h8l16 -12q33 20 60 20l28 -12l20 12h4l36 -8l24 8h8l72 -12l28 4l32 -12l44 16h16q14 0 32 -16l44 8h4l16 -12h12q13 0 28 12h16l72 -20l16 4h4l24 -32l-4 -16q3 -36 12 -36h8q2 16 12 16h4q28 0 28 -28t-44 -48q-37 -25 -56 -72l-20 -12q-21 12 -60 12l-40 -4 l-36 8l-112 -4q-20 0 -20 8q-195 -12 -356 -36l-104 -36l-32 8q-193 -7 -256 -24l-64 -4q0 -12 -64 -16q0 -16 -12 -16l-32 8q-15 -12 -28 -12h-4q-12 0 -28 44l-28 -4h-4q-20 0 -20 60zM851 628l12 12l4 -4v-8l-8 -8z" />
<glyph unicode="[" horiz-adv-x="758" d="M9 967l8 407q0 53 26 155l4 28l-4 19l53 31h136q166 -22 166 -47l-11 -66q15 -7 15 -23l-11 -15q15 -33 15 -59q-14 -41 -38 -65l8 -8l-12 -4l-147 8l-4 -12q0 -231 -29 -350l-31 5l33 34l-26 -65v35h8v48l4 -76l18 121h8v-43l-4 -19l4 -24v-62l-4 -31l4 -27l-8 -198 q12 -118 12 -217l-4 -113q11 -72 11 -209v-113l4 -39h110l57 -58l-19 -19l22 -23l-7 -24l7 -23l-19 -35l12 -27q0 -13 -170 -23q0 -12 -110 -12q-83 12 -83 23l7 101v31l-7 24l7 271l-3 4v4l3 4l-7 159l7 178q-7 88 -11 439zM23 1397l7 -155l-3 -94v-23h3l12 140 q-15 108 -15 155h-4v-23zM62 -15v-39h4v39h-4zM134 365h4v24h-4v-24zM164 -7v-51l4 -15l-4 -4q8 0 8 -15h15v11q-19 0 -19 74h-4zM164 16h4v12h-4v-12zM221 1382l15 -16h57q26 0 41 -7q-5 46 -15 46q0 -15 -8 -15h-3l-8 23h-4q0 -16 -7 -16l-4 4l-8 -23h-11l-19 19 q-26 -6 -26 -15z" />
<glyph unicode="\" horiz-adv-x="575" d="M-7 1321l13 20l3 1q12 -2 31 -54l3 1l-15 40l-7 12l1 6q-4 -2 -22 27q-5 15 15 41l28 -15q-3 14 16 21q16 -3 21 -18l24 14l18 -24l77 -228l4 -4l2 -4l-1 -6l54 -131l51 -157q35 -81 145 -375l121 -349q34 -118 24 -122q-9 -3 -27 10l-4 -11l-6 -2l-11 6l-23 -9 q-17 -8 -15 -15q-36 -13 -42 5l-13 25l-20 73l-9 17l-78 254l-10 26l-4 19l-9 17l-19 53l-6 23l-12 26l-54 166q-48 107 -78 189l-31 94q-25 45 -135 338zM48 1266l5 -14l3 1l-5 14zM92 1362l16 -44l3 1l-16 44zM111 1319l33 -98l2 -5q12 -34 24 -36l6 2l2 11l-2 4 q-61 124 -65 122z" />
<glyph unicode="]" horiz-adv-x="685" d="M19 -120q14 41 38 65l-8 8l12 4l147 -8l4 12q0 231 53 283l7 62l-3 31h-4v-35h-8v28h-4l-18 -121h-8v43l4 19l-4 24v62l4 31l-4 27l8 198q-12 118 -12 217l4 113q-11 72 -11 209v113l-4 39h-110l-57 58l19 19l-22 23l7 24l-7 23l19 35l-12 27q0 13 170 23q0 12 110 12 q83 -12 83 -23l-7 -101v-31l7 -24l-7 -271l3 -4v-4l-3 -4l7 -159l-7 -178q7 -88 11 -439l-8 -407q0 -53 -26 -155l-4 -28l4 -19l-53 -31h-136q-166 22 -166 47l11 66q-15 7 -15 23l11 15q-15 33 -15 59zM91 -82q5 -46 15 -46q0 15 8 15h3l8 -23h4q0 16 7 16l4 -4l8 23h11 l19 -19q26 6 26 15l-15 16h-57q-26 0 -41 7zM178 -272v-4q30 -15 49 -15h98q5 23 12 23l-4 16l4 42l-12 8q0 -14 -11 -23l4 -20v-4l-23 -27l-38 31h-4q0 -19 -11 -19l-11 4l7 -12l-3 -4v-4l-53 12zM238 1358q19 0 19 -74h4v51l-4 15l4 4q-8 0 -8 15h-15v-11zM257 1249h4v12 h-4v-12zM272 733q15 -108 15 -155h4v23l-7 155l3 94v23h-3zM287 888h4v24h-4v-24zM359 1292h4v39h-4v-39z" />
<glyph unicode="^" d="M172 1136q31 47 43 96q42 23 83 140l56 96q7 0 33 56q91 124 116 124l46 52h4q40 -60 72.5 -122.5t62.5 -127t60.5 -130.5t65.5 -132q54 -65 79 -184q7 0 7 -20v-12q-6 -15 -20 -20l-13 4l-17 -4q-19 3 -19 8l-4 -4h-79l-30 -8q-10 0 -30 56q-20 0 -23 32v20l7 12 q-34 104 -162 304l-15.5 -14.5t-36.5 -48t-42 -88t-32 -133.5q26 -29 26 -44q-3 -16 -13 -16l-46 8l-33 -8q-129 34 -129 56q-17 39 -17 52zM205 1104q9 -20 27 -20q7 0 9 20l-9 8h-27v-8zM281 1272h4l26 44v16l-7 8h-3zM301 1124l20 8v16h-10l-10 -12v-12zM341 1132l6 -8h7 q13 6 13 28v16h-6l-20 -28v-8zM341 1236q23 17 23 36v8h-3q-7 0 -20 -28v-16zM397 1268h13l17 32v4h-4q0 -16 -19 -16l-7 -12v-8zM467 1364q43 52 43 68h-10q-27 -42 -33 -68zM589 1576l3 -12h7v8l-7 8h-3v-4zM602 1456l7 -8l3 8l-10 12v-12zM602 1556q1 -24 10 -24h3 q-4 28 -13 28v-4zM619 1516q13 -19 13 -40l3 -4h7v12l-23 40v-8zM655 1304q0 -39 56 -80h10q-32 92 -59 92zM794 1048q27 -60 33 -60h17l6 8v4l-49 60l-7 -8v-4z" />
<glyph unicode="_" horiz-adv-x="1004" d="M-230 15l19 25q-11 2 -11 24q6 16 19 16l-4 31l23 9l193 -6l4 3h4l3 -3l114 6l133 -6q71 6 323 9l296 -6q98 -10 98 -22q0 -11 -15 -25l8 -9v-6l-8 -9v-28q1 -22 8 -22q0 -43 -16 -43l-22 -3l-61 6l-15 -3l-213 16h-22l-16 3l-15 -3h-45l-19 3l-23 -3l-140 6 q-94 -10 -164 -10l-79 4q-41 -9 -292 -13l-12 22v3q5 12 49 12v3h-34l-11 -3l-4 3q0 -5 -26 -12q-13 0 -27 31zM-54 77h36v3h-36v-3zM3 -4v-3h11v3h-11zM891 -22l79 -3h3q28 0 33 12v6l-7 6h-4q-104 -17 -104 -21z" />
<glyph unicode="`" horiz-adv-x="1024" d="M0 1659l5 2l11 -6l-2 -4l-11 -3zM2 1612l3 7l4 -2l-4 -7zM39 1660l6 10l45 49l-1 5q11 -6 69 76q28 -10 43 -5q7 -5 18 -42l3 -2l6 1l3 -2l17 -27l11 -6l5 10q22 -12 68 -83l19 -15l17 5l14 -8q34 -19 102 -130q4 -58 -1 -68l-2 -3l-17 -5l-6 -20l-6 -10q-5 -9 -20 -3 l-10 -26l-2 -4q-4 -8 -19 -2q-270 176 -360 258q-7 5 -2 47zM44 1763l2 3l5 2l4 -2l1 -6l-2 -3l-5 -2l-4 2zM90 1550l6 1l14 -8l3 -11l-4 -7l-4 2q-19 16 -15 23z" />
<glyph unicode="a" horiz-adv-x="845" d="M0 300q0 219 153 352q113 83 206 95h37q71 0 152 -53q0 32 29 32q0 21 17 21l37 -11l21 11l20 -6l33 11l8 -16l-4 -21l13 -336v-53l12 -173l-4 -32l4 -42v-37q0 -16 -25 -16q0 -26 -66 -26l-29 5l-24 -5l-17 37l4 21l-12 21q-76 -79 -206 -79l-4 5h-4l-17 -5 q-103 32 -124 47l-16 -5q-17 8 -17 16l9 16h-9l-16 -11q-136 62 -136 137q-25 39 -25 100zM29 400l4 -6h4v32h-4zM140 359q0 -132 188 -207l17 -5q185 0 232 156v23q0 80 -90 201q-56 67 -176 67q-116 -46 -159 -140l-12 -67v-28zM231 205h8v5h-8v-5zM318 37l24 -21h9l8 10 l-37 16h-4v-5zM355 636q15 0 24 -21l17 -5h25q0 25 -62 32h-4v-6zM606 26l8 -10h9q0 8 -17 16v-6zM680 689l5 -63l8 10v53h-13z" />
<glyph unicode="b" horiz-adv-x="841" d="M0 1183q36 10 51 27h28q0 14 9 14h79q56 -19 56 -60v-51q18 -255 37 -352l-5 -5v-5q9 -57 19 -69l-5 -23q0 -34 28 -84q58 63 167 84l32 4q81 -9 163 -88q78 -100 78 -176l5 -19q0 -150 -60 -232q0 -22 -112 -102l-88 -46l-23 5l-69 -5q-110 22 -153 65l-10 9v-4l5 -28 l-42 -28h-107q-55 15 -55 32l4 65l-4 5v5q14 48 23 366q9 0 9 32v19q-14 29 -23 260q-8 0 -9 46v167q0 46 -28 172zM70 42l9 -10h14v5l-23 9v-4zM70 227h4v14h-4v-14zM70 645q13 -82 13 -149h5l5 47v18l-14 56v4l4 5l-4 23l-5 -4h-4zM74 408h5v23h-5v-23zM79 464h4v18h-4 v-18zM88 74q6 -19 23 -28h14v33l-14 14h-4zM134 1122h5v14h-5v-14zM134 1150h5v14h-5v-14zM181 1183l5 -33v-42l9 10v55l-9 10h-5zM199 51h5v23h-5v-23zM237 97q43 -46 55 -46v5q0 8 -23 14q0 16 -28 41h-4v-14zM241 621l5 -23h4v33l-9 9v-19zM260 547h4v10h-4v-10zM278 121 l19 -5l-19 14v-9zM311 315h4v19h-4v-19zM315 348h5v14h-5v-14zM329 340q13 -130 101 -130q99 0 141 148q-54 116 -70 118q-107 0 -149 -59q-15 -12 -23 -77zM339 441l13 13l-13 19v-32zM362 14h46l-5 5v4l5 5h33v9h-14l-65 -18v-5zM376 79l23 -9q21 9 23 18v5l-9 9 q-26 -8 -37 -23zM413 195l9 -9h14l14 13l-14 5l-23 -5v-4zM417 492l24 -5q0 8 -24 14v-9zM454 575l5 -5l37 14v10l-18 18h-10q-14 -3 -14 -37zM464 441l28 -10v14l-14 14h-14v-18zM496 454l14 -4v9l-5 14h-9v-19zM515 362h4v9h-4v-9zM552 74l9 9v5l-9 9v-23zM575 264h5l4 19 v9h-4l-5 -23v-5zM589 594l32 -24v5l-27 23h-5v-4zM626 478h9l5 23l-5 4h-9v-27zM649 524h5v9h-5v-9zM659 519l13 -14v5l-9 9h-4z" />
<glyph unicode="c" horiz-adv-x="742" d="M0 451q9 233 138 269q63 40 212 40h38q25 0 85 -22l5 4h26q154 -147 154 -206l11 -98q-30 -18 -175 -27q-27 89 -106 139l-43 13q-128 0 -175 -138q0 -63 53 -175q119 -33 181 -35h5q27 17 74 98l16 -5l27 5l79 -5l38 5q28 0 42 -58q0 -32 -74 -99q-39 -51 -170 -138 q-60 -18 -138 -18q-199 0 -299 274zM154 192h5v9h-5v-9zM196 103l22 -27l53 22v9l-11 9q-28 -13 -64 -13zM255 192l26 5v4l-26 22v-31zM297 76l6 -4h5l27 22v4l-6 5v4q-32 -10 -32 -31zM377 40l11 -9q36 15 53 36v5h-16q-18 -14 -48 -18v-14zM377 711l11 -9h5l11 9l-6 4h-21 v-4zM388 125q15 0 26 -18q22 6 32 23v4q0 14 -42 18q0 -9 -16 -9v-18zM430 653l11 -9v13h-11v-4z" />
<glyph unicode="d" horiz-adv-x="822" d="M0 301v4q0 136 46 180q53 114 184 167q0 13 92 33h8q102 0 142 -37v4l-8 25l8 16q-4 187 -21 414q0 95 54 163h9q21 -1 21 -8l4 4h8l34 -13l4 4h4q96 -22 96 -37v-13l-17 -33l5 -4v-4l-13 -30l4 -4l-4 -42v-16l4 -71h-4l8 -46l-4 -55l4 -4v-4l-4 -17l4 -16l-4 -13l4 -21 l-4 -50l4 -129h-4l4 -5l-4 -21l9 -125v-4l4 -17l-4 -12l12 -113v-4l-4 -4l4 -5l4 -96q0 -90 -33 -204q-54 -7 -54 -38h-13l-8 8l-4 -4h-17q-9 0 -13 34l-4 4h-12l-17 -9l-13 9q-11 0 -50 -29l-42 -13l-46 8l-4 -4q-144 12 -179 38q-148 119 -159 179q-13 0 -21 80zM171 100 q67 -62 92 -62l9 12v17l-13 12l-13 -4q-8 9 -45 9l-21 16v4h-9v-4zM177 321q48 -114 111 -114l48 10l21 -5q39 0 103 124v44q-40 101 -69 119l-7 -5h-27l-21 10q-159 -31 -159 -168v-15zM313 635h9v17h-4zM485 1061h4v25h-4v-25zM577 284h4v13h-4v-13zM581 305h4v17h-4v-17z M593 1186h9q16 5 16 21v5h-4q0 -12 -21 -21v-5zM602 405h8v21l-8 -8v-13zM635 1182h4l17 17v13h-8zM643 468h5v8h-5v-8zM656 305h4v13h-4v-13z" />
<glyph unicode="e" horiz-adv-x="754" d="M-1 442q26 103 71 151q66 79 173 130q76 27 114 27h3q50 0 159 -33q83 -84 100 -154l17 -17v-12q0 -120 -20 -121q-95 -23 -200 -33l-127 3l-66 -17l7 -58q17 -93 133 -118q17 -2 32 -2q76 0 91 63l10 21v4q62 12 76.5 13t59.5 1l-4 -21l10 -4q-16 -63 -33 -101 q-50 -152 -257 -164q-116 19 -235 130q0 10 -56 79q-57 133 -57 167zM25 359h5l-1 22h-4v-22zM25 403h4v31h-4v-31zM52 262l8 -9h5q-5 27 -13 27v-18zM73 227l5 -13h4v4l-4 18h-5v-9zM91 187h8v5h-8v-5zM114 386l1 -22h4v22h-5zM136 351l13 5v13l-13 -14v-4zM210 215 q13 -33 38 -53l9 1v13l-47 43v-4zM213 496l143 2h67l20 21q-1 56 -68 96q-15 2 -29 2q-106 0 -133 -121zM264 255l1 -4l12 -9v5zM339 66h8v9h-8v-9zM371 627q17 7 17 13v9h-4l-13 -4v-18zM393 124l1 -17l16 13l-4 13h-4zM531 435q22 0 25 13v9h-4l-21 -5v-17z" />
<glyph unicode="f" horiz-adv-x="644" d="M0 674v20q0 17 36 17l48 16l68 -16q12 15 20 66l-16 111q29 257 92 297q24 31 24 66l16 21h8l20 -17q0 15 128 29q55 0 132 -62q38 -47 68 -140l-4 -25l8 -25v-140l-8 -12l-48 4h-40q-10 0 -12 16h-20q-11 0 -28 75l4 4v4q-13 111 -32 115q-11 28 -24 33 q-63 -46 -80 -107q-16 0 -36 -247l8 -29l-4 -4v-4q5 -20 16 -21l72 12l8 -16h20q32 -22 32 -99h-4q8 -16 8 -46v-24q0 -19 -112 -25l-28 4l-20 -12l-4 -124q0 -111 20 -248v-12q16 0 16 -8v-8q0 -9 -12 -9l-4 -4v-12q3 -25 12 -25q10 50 20 50h4l8 -9q-36 -41 -36 -90 q0 -19 -40 -29h-16q-8 0 -8 12h-8q0 -21 -20 -21l-96 -8h-4l-12 8l-12 -16h-16q-11 12 -32 16l-4 29l12 293v58q0 37 20 111l8 46v8l-24 8l-16 -4q-66 22 -68 37zM20 700l4 -16h8l4 24h-4zM28 624l8 8l-8 8v-16zM128 588h20l4 16q-24 -9 -24 -16zM304 932q16 4 16 24v24 l-8 8zM308 132h4v20h-4v-20zM340 1072l8 -8v12h-8v-4zM440 700l12 -112l-8 -16h4l20 8v12q-8 0 -20 80l4 24l-4 4h-8zM520 1196l4 -12h4v12l-4 12h-4v-12zM616 924h4l4 16l-4 4l4 28v4l-4 28h-4v-80z" />
<glyph unicode="g" horiz-adv-x="852" d="M0 384q0 141 76 252q83 87 156 123q75 30 144 30q57 -12 112 -49h12q24 0 24 38q1 19 12 19q140 -8 140 -31q51 0 76 -195v-15q0 -62 -20 -145q0 -141 -60 -436q-5 -1 -40 -111q-83 -194 -208 -257q-77 -38 -120 -38q-87 0 -180 107q-16 23 -52 134q0 25 108 61l12 -23 l4 4h4q28 -16 28 -69q36 -42 64 -42h16q54 0 120 73q25 21 64 226l16 99v19h-4q-97 -69 -152 -69l-8 -7h-48q-82 0 -156 61q-40 30 -88 92q-28 43 -48 122zM72 561l20 28v4q-20 -10 -20 -32zM100 605q12 0 12 12q7 0 20 24h4v4h-8l-28 -36v-4zM160 -363v-20h8l8 8zM164 153 h8l8 8v4l-16 16v-28zM172 389h4v52h-4v-52zM200 337q0 -26 80 -68q129 0 152 156v4q0 89 -60 156l-36 -4q0 6 -16 12q-65 0 -112 -140l-8 -56v-60zM216 -419v-4h16v4h-16zM220 709l36 20v4h-12q-8 -16 -24 -16v-8zM272 609l4 -4v-4q16 6 16 12h-4zM480 -371v-4h8q0 16 20 16 q49 69 56 96q12 0 12 20v8q-56 -88 -96 -136zM612 -147q10 0 24 52q7 0 24 84v12h-4l-20 -72zM668 25l8 8v8h-8v-16z" />
<glyph unicode="h" horiz-adv-x="748" d="M-3 1056v9l13 35l-4 62l21 18l8 22q145 0 145 -31l-8 -190q14 -332 29 -332h9q25 31 42 31q38 0 68 45h5q17 0 34 -14l17 5q154 0 255 -235l13 -53l-4 -4v-4l21 -84l-4 -27q11 0 21 -230q0 -119 -81 -119l-17 -5l-4 5h-4l-26 -9q-34 3 -34 9l-4 -5q-60 0 -60 45l13 66v22 l-4 40q8 22 8 79q0 165 -106 221q-23 0 -47 14q-96 0 -136 -120l-9 -75q14 -130 34 -168l5 -48l-13 -9l4 -5v-4q-4 -18 -17 -18l-72 9h-56q-33 0 -46 27l8 128l-4 57l4 27l-8 185l4 80l-9 119l5 18l-5 35l5 84v257zM61 26h8v5h-8v-5zM99 636l4 -18h9v9l-9 9h-4zM108 1136 q12 -20 12 -45h5l4 23q0 17 -17 26h-4v-4zM116 1167h9v4h-9v-4zM180 428l9 -8h4v8l-13 5v-5zM291 552h4v9h-4v-9zM291 588h4v53h-4v-53zM418 459l17 -17v4l-4 13h-13zM499 22l13 -14h13v5l-17 57h-9v-4l4 -4l-4 -23v-17zM533 428q5 -61 17 -61v8l-4 67h-8zM538 446h4v13h-4 v-13z" />
<glyph unicode="i" horiz-adv-x="378" d="M0 599v36q0 23 34 52h19l102 -21q0 16 24 26q0 16 10 16h4q20 -8 20 -36v-27q0 -91 48 -291l29 -255q-15 -78 -63 -78l-101 -21h-10q-53 0 -82 42l5 36v16l-29 401q-8 0 -10 104zM0 976q0 65 82 134l15 4q54 0 135 -71l10 -22q0 -92 -73 -134q-32 -31 -53 -31 q-106 35 -106 107zM63 614h14v5h-14v-5zM121 141q7 -21 14 -21v36l5 47l-5 52v31q0 27 -14 32l5 -105v-41zM211 68h7q17 0 19 15v21q-2 115 -10 115l-2 -6v-10q0 -84 -14 -135z" />
<glyph unicode="j" horiz-adv-x="671" d="M-11 -70q11 63 108 63h12l16 -21v-9l-4 -4q19 -70 108 -127h24q43 0 60 85q16 37 16 152q0 203 -24 267l4 4q-15 131 -36 186l-24 63q0 51 88 51l16 8l12 -4l24 4h12q92 -11 92 -67q0 -39 8 -51l-4 -13l4 -38l-4 -34l8 -42l-4 -46l20 -258l-12 -76l4 -30l-8 -25l4 -5v-4 l-4 -25l4 -13q-23 -153 -72 -207q-96 -93 -152 -93q-151 0 -240 118q-56 93 -56 174v17zM33 -62v-4q7 -19 24 -30v5q-9 29 -16 29h-8zM77 -185v-4l12 -17v5l-8 16h-4zM161 -311q0 -9 12 -9h4v4zM169 -227v-4l32 -13v9l-24 8h-8zM193 -320v-4l16 -4h4v4l-12 4h-8zM199 820v4 q5 81 48 81q0 36 64 50q83 0 111 -70v-27q0 -51 -92 -108l-23 -8h-20q-51 0 -88 78zM229 -332v-5h20v5h-20zM253 -261q17 -12 32 -12v21h-8v4q-24 -5 -24 -13zM269 -332v-5h40l32 13v21l8 34l-4 13h-8q-18 -26 -28 -26l8 -12q-10 -38 -36 -38h-12zM297 577l12 -22h4l44 43 h-52l-8 -9v-12zM337 796l4 -4h4l12 13v4h-8l-4 4l-4 -4zM345 352l8 -29h4v25l-4 4h-8zM365 915l8 -9v9h-8zM377 479l8 -46h4v29q-4 26 -12 26v-9zM389 847h4v21h-4v-21zM425 568h4v17h-4v-17zM453 154l12 -9l12 26q-4 67 -16 67h-8v-21l4 -38z" />
<glyph unicode="k" horiz-adv-x="693" d="M0 36q16 120 16 216l-4 4l4 24l24 552q0 233 -40 312l28 12h8l20 -20q-4 28 -16 28l-16 -4l-8 12v12q0 15 136 32l12 -4l36 8l12 -16l-8 -76l4 -12l-4 -36l4 -16q-8 -16 -8 -44v-32l4 -56l-4 -32l4 -80l-4 -80l4 -140l4 -4h4q135 192 172 192h20l48 -36q0 -25 68 -60 q20 0 20 -28v-16q-43 -38 -136 -152q-55 -58 -60 -80l40 -56l108 -156q35 -41 56 -116v-12q0 -17 -172 -44q-45 0 -168 208q-11 27 -28 36q20 -105 24 -176l-4 -32v-32q0 -25 -132 -36l-4 4h-4l-16 -4q-44 7 -44 36zM52 80l4 -4h8v4l-8 8l-4 -4v-4zM64 396h4l8 80l-4 16h-8 l4 -4v-4l-4 -4l4 -12l-4 -40v-32zM100 864h4v52h-4v-52zM100 976l4 -12h4v8l-4 12h-4v-8zM100 992h4v8h-4v-8zM100 1156h4v8h-4v-8zM108 728l4 -4h4l4 24l-4 4h-4zM120 484l4 -4h8v16l-4 36l4 12l-4 32h-4l-4 -24l4 -52zM128 200q0 -29 12 -32v12l-4 32l4 44v112 q0 44 -12 44l4 -60v-36l-4 -16l4 -4l-4 -28v-68zM148 80l16 -12l4 4v16l-8 8q0 -8 -12 -8v-8zM152 840l4 -72h4l4 16l-4 48l4 20l-4 16h-4zM152 968h4v24h-4v-24zM152 1056h4v12h-4v-12zM152 1084h4v28h-4v-28zM164 620h4v8h-4v-8zM168 536l4 -12h12v4q-6 16 -12 16v-8h-4z M200 472h8l12 32q-20 -10 -20 -32zM296 284h4v8h-4v-8zM332 212l4 -4h4v4l-4 12h-4v-12zM372 648q23 15 56 56v4l-12 12q-44 -60 -44 -72zM380 88l4 -20l8 8l-4 12h-8zM432 108q9 -24 16 -24v4q-9 24 -16 24v-4zM448 184l52 -100h4v4q0 35 -52 104h-4v-8z" />
<glyph unicode="l" horiz-adv-x="320" d="M0 965l4 77v21l-4 36q8 22 8 57l-4 41q1 9 28 32h32q17 -16 132 -16l12 -16l-8 -82v-8l-4 -4l4 -4l-4 -40v-110l4 -40q-20 -227 -24 -455l-4 -16l4 -24l-4 -73v-12l4 -65l-4 -13l4 -32l-4 -12l4 -41v-69l-4 -44l4 -4v-4q-8 -45 -24 -45q-144 0 -144 32v118l20 422l-4 16 l4 4v4zM56 1168q0 -11 48 -24l4 -4l4 20l-48 20h-8v-12zM60 20l4 -4h4q28 0 28 29l-4 24h-4q0 -14 -28 -45v-4zM92 872h4v12h-4v-12zM108 1192q0 -8 44 -16l4 12l-12 17l-36 -8v-5zM120 134h4v36h-4v-36z" />
<glyph unicode="m" horiz-adv-x="1055" d="M0 655q24 5 41 45l82 19h4q59 0 59 -41v-23q88 127 141 127q1 9 32 14h64q100 0 150 -168v-14h5q38 109 54 109q70 55 91 55h41q91 -31 91 -55q0 -17 37 -50l27 -191l-5 -13l9 -41l-4 -5q8 -31 18 -246l-5 -109l-45 -41h-5l-36 9l-32 -9q-36 12 -36 28q0 108 -27 236v64 l4 41q0 52 -73 86l-4 32h-9q-12 0 -23 -45l4 -5v-5q-40 -86 -40 -268q-13 -33 -23 -136l-5 -5h-9l-54 14l-10 -9h-13q-22 7 -55 68l5 277v96q-30 86 -78 86h-27q-69 0 -109 -182v-300q0 -91 -41 -91q-86 0 -86 -9q-41 8 -41 18q0 90 -32 109q-27 198 -27 419v18zM132 300 l4 -18h5v32h-5zM136 446h5v36h-5v-36zM136 509h5v41h-5v-41zM155 41l4 -5v-4q23 4 23 23l-5 4h-9l-13 -14v-4zM191 173h5v13h-5v-13zM305 600h4q59 4 59 23v9l-4 5v4q-23 0 -59 -36v-5zM555 350h4v18h-4v-18zM746 732q0 -13 36 -27l5 5v9l-5 22h-27zM823 73h5v9h-5v-9z" />
<glyph unicode="n" horiz-adv-x="796" d="M0 124l35 471l-9 117q9 20 18 22l53 -4q54 22 84 22h13l31 -35l-4 -26v-5q62 66 123 66l5 4q115 -9 141 -31q55 -19 150 -143l49 -140v-4l-4 -39l8 -22l-4 -5q22 -81 22 -222q0 -118 -35 -118l-27 5q-44 0 -132 -39l-22 26q4 59 13 74l-9 56l4 66l-8 78l4 18 q-18 164 -57 187q-11 39 -40 39l-44 13q-99 -26 -128 -213l8 -57l-4 -48v-4q13 -80 13 -174v-53l-13 -13l-40 5l-137 -31l-22 35l5 43l-5 53q-15 0 -35 26zM79 11q67 16 67 30v4q-15 0 -44 -21l-14 4l-9 -13v-4zM150 691l22 -27v-8h5v48zM199 412q13 4 13 26v17l-13 -13 l4 -4v-5zM203 37q9 0 9 13v87h-4v-87zM331 564h9v5h-9v-5zM512 638h18l4 5h5l-5 13h-17zM539 54h4l9 9v22h-9l-4 -22v-9z" />
<glyph unicode="o" horiz-adv-x="826" d="M0 409v9q0 126 72 219q42 78 131 110q28 25 88 25v5l30 -5h34l101 13q94 -26 122 -63l76 -106q36 -56 72 -169l-4 -4v-4l12 -122q-12 -100 -54 -173q-77 -94 -148 -114q-37 -30 -89 -30l-4 4h-4l-4 -4h-5q-144 19 -211 59q-14 24 -50 51l-17 -17q-58 52 -85 143 q-63 79 -63 173zM42 418h4l9 25v4h-4l-9 -25v-4zM55 473h8l9 29v13h-9zM106 249q0 -44 63 -97h8l-59 105h-4zM169 418q10 -75 32 -118q80 -148 157 -148q84 0 161 74q74 78 74 170v5q0 97 -138 204q-13 0 -56 27l-4 -5l-14 5l-88 -5h-4q-52 -37 -102 -135q-6 0 -18 -74z M181 232l5 -13h4v13h-9zM194 211q29 -76 63 -76v4l-59 72h-4zM224 654q93 24 93 38h-43q-50 -5 -50 -38zM371 713l43 -8l38 8q16 0 76 -80h4q0 34 25 34l4 4v4q-67 47 -139 47l-13 -4v4l-38 -4v-5zM591 604l8 -9v17l-8 8v-16zM595 207q21 17 21 38q-9 0 -21 -38zM608 561h4 v9h-4v-9zM620 519l9 -21h4v17l-13 13v-9zM633 443l4 -12h5v33h-5zM633 468h4v22h-4v-22z" />
<glyph unicode="p" horiz-adv-x="700" d="M-41 687l5 5v5l-5 29v10q0 16 161 50q27 0 37 -109l4 -5v-5h5l74 79q64 53 110 54h93q79 -25 129 -123q69 -144 69 -252v-84q0 -77 -111 -218q-70 -49 -92 -49h-65q-69 0 -184 94h-9v-45q14 -145 64 -459q4 -54 -17 -54q-51 -19 -120 -29q0 -15 15 -15q-74 0 -74 20v15 q0 60 23 118l-15 73q-28 237 -42 524q-12 29 -41 247l4 5v5q-4 67 -18 114zM19 706l14 -14q18 0 41 29h10q0 10 -14 10l-51 -10v-15zM28 420h9v25l-9 9v-34zM65 217l5 -19h4v69h-4zM84 514l9 10h-9v-10zM102 -375l5 -5h14q92 18 92 30l-10 -1q0 63 -4 63q-2 0 -6 -24 l-23 183l-4 -19l4 -30l-4 -40l24 -102q-9 -23 -18 -25h-23l-23 20q-24 0 -24 -50zM143 -35v-10l9 -9h9v19l-9 10zM166 262q24 -48 55 -79h14v10l-60 89h-9v-20zM180 613h4q19 8 19 34h-9q-14 -5 -14 -29v-5zM184 410l5 -15h5v89l-10 -10l5 -44zM196 409q49 -146 136 -146 q147 64 147 118q10 0 10 28v6q0 146 -94 202l-32 -12l-41 17h-32q-63 0 -94 -134v-79zM350 761l5 -5h14l9 10l-5 5h-13zM383 207h4q32 0 46 40h-9q-31 -14 -41 -35v-5zM397 667h9v10zM406 687h4q19 15 74 19q9 -14 9 -39h10q0 12 18 35q0 25 -97 69l-18 -65v-19zM410 158h10 l9 10l-9 10l-10 -10v-10zM475 618h5l4 24h-9v-24zM516 450h10v4l-10 10v-14z" />
<glyph unicode="q" horiz-adv-x="800" d="M0 367q22 147 79 236q69 97 167 132q52 30 127 30q63 0 89 -25h10q13 0 29 84l30 10l117 -25l15 -29l-5 -15l30 -241q-10 -82 -15 -349l10 -24l-5 -20l-10 -174l-5 -84l-1 -73l38 25q42 31 87 38q13 -34 21 -72l15 -24q0 -27 -32 -41q-22 -54 -64 -54q-31 -44 -184 -96 l-20 -8q-12 8 -17 109q-6 0 -6 84t6 252l5 35l-5 5h-25q0 -17 -132 -40l-128 25q-121 101 -152 103q-64 122 -64 177zM39 333l10 9v20h-10v-29zM62 216q0 -41 18 -59l5 10v15l-17 44zM118 293h5v10h-5v-10zM138 475q12 0 19 44h-5l-14 -15v-29zM162 333q0 -69 79 -89l78 -34 q44 0 123 88q39 37 39 157q-59 153 -117 153q-75 0 -163 -104q-39 -78 -39 -108v-63zM255 165l20 -19h15v15l-15 14h-20v-10zM314 637h5l15 5v5h-15l-5 -5v-5zM413 180h5q10 0 34 49v5q-39 -19 -39 -54zM423 711q0 -14 44 -20l5 5v5q0 11 -49 15v-5zM467 165l10 10v15h-10 v-25zM531 775l4 -15h25l25 25l-30 9zM540 -308v-25l10 -67h-6h5h12v28q24 -23 -6 14l-5 59zM565 -21v-25h5v25h-5zM614 33h10l15 88v54h-5q-10 0 -10 -24h-5l5 -15zM634 -215q6 -25 15 -25h5l4 25l-9 10h-5zM698 -303l5 -5h5q24 19 24 44l-5 5h-10q-11 0 -19 -44z" />
<glyph unicode="r" horiz-adv-x="659" d="M0 63l21 494v165l-8 12v4q0 12 46 22l34 -5q26 9 97 9q27 -8 30 -21v-8l-5 -67l38 37h4q0 9 89 33h46q16 -14 43 -16q1 -9 59 -38q0 -9 76 -76q12 -25 25 -114q0 -70 -101 -89q0 -6 -34 -8q-24 0 -38 97q-41 63 -72 63h-12q-9 -1 -82 -15q-65 -64 -65 -256v-95 q14 -57 14 -97q0 -75 -47 -94h-61q-93 8 -93 38zM158 191l2 -136h5v8zM371 688l17 -4h4v4l-16 4h-5v-4zM468 599q6 -25 17 -25l13 13h4q7 0 17 -30h8v4q-32 64 -54 64zM523 464l4 -12h5l4 29v51h-4z" />
<glyph unicode="s" horiz-adv-x="700" d="M0 256l4 40l-4 16l28 12l4 -4l20 4h44q72 0 72 -48q57 -92 116 -92h16q67 0 92 84v20q0 48 -156 84q-22 23 -140 48q-76 63 -76 108q-7 0 -8 20v76q42 120 88 120q19 22 104 36l16 -4l16 8q89 -12 120 -28q69 0 188 -100q0 -11 24 -36q52 -87 52 -100q-29 -36 -152 -36 q-17 3 -60 80l-88 84l-28 12h-4q-124 -15 -124 -96q0 -64 64 -92l48 -12l52 12l16 -4l76 4h4q61 0 100 -36q36 0 76 -80l16 -56q0 -126 -172 -232q-42 -33 -196 -68h-4q-118 0 -220 124q-23 62 -24 132zM88 456l20 -4v4l4 16v16l-8 8l-16 -28v-12zM108 128l12 -12h4v12h-16z M112 444l4 -4h16v8l-16 4l-4 -4v-4zM116 272h8v20l-8 -8v-12zM160 64q10 -28 48 -28h12v8q0 8 -56 32v-4l-4 -4v-4zM184 452h16v12l-12 4l-4 -4v-12zM212 440l24 -8v4l-12 12h-4zM252 704l4 -4v-4l16 12l-8 8h-4l-8 -8v-4zM256 88l8 -8h12l-16 16h-4v-8zM272 40l4 -4h4 q116 21 116 52l-4 4h-4q-15 -12 -28 -12v4q-21 -12 -68 -20zM320 392q0 -13 40 -20l4 4v4l-40 12h-4zM324 728l8 -8h12v4q0 9 -20 12v-8zM416 196h8l20 40l4 24h-12zM416 312l12 -8h8l8 8v4l-12 12q-12 -3 -16 -16zM444 676l36 -20l8 8q-24 24 -40 24h-4v-12zM452 420h16v8 h-8zM468 196q28 47 28 72h-4q-7 0 -12 -36l-12 -12v-24zM484 136h4v8h-4v-8zM528 592h8v16h-8v-16z" />
<glyph unicode="t" horiz-adv-x="641" d="M-20 815l4 65v4q0 25 32 25l73 12h64l24 -8l12 4l-8 135l4 49l-16 115v16q0 8 32 12q11 27 21 29h4q20 -11 20 -33l12 4q104 0 104 -49l-4 -45l41 -237q9 -16 32 -16l72 8q89 -10 89 -25v-36l4 -25l-4 -16l12 -78q0 -11 -20 -21l-24 5l-12 -5l-20 5q-133 -9 -133 -25 l-4 -29v-61l-4 -49q8 -54 8 -176v-4q13 -44 24 -155q24 -130 24 -168q0 -11 -81 -17l-16 5l-8 -13l4 -28v-4q0 -22 -12 -25q-9 0 -20 57h-8l-24 -4q-52 0 -52 41l4 16l-4 37v4l4 17l-4 4l4 61v49q-9 475 -37 475l-92 -17h-65q-52 0 -52 86zM16 868l4 -16h12l4 20l-4 12h-4 q-6 0 -12 -16zM24 807h41l52 -4l16 4l48 -4l32 4q0 13 -116 24l-12 4h-33q-28 0 -28 -28zM242 1118h8v12h-8v-12zM246 1163l4 -5h8l12 54q-7 0 -24 -49zM290 58l4 -20h4l4 4l4 12h4l-12 86l-8 -8v-74zM294 1163l8 -37h8l-8 41q7 20 24 20v12l-8 9q-14 0 -24 -13l4 -4z M306 1015h8v37l-8 8v-45zM322 75q7 -21 24 -21v8l-20 29zM371 839l4 -28h16l4 24q-9 25 -16 25h-4zM375 62l4 -12h16l8 8v49l-4 21q-8 0 -12 -45q-10 0 -12 -21zM407 807l20 -4h20q0 9 -36 16l-4 -4v-8zM451 803l8 -9h12v5zM519 864q0 -7 33 -16l8 12l-16 12h-16zM548 799h8 l-8 8v-8zM556 749l8 -8h4v29h-4l-8 -8v-13z" />
<glyph unicode="u" horiz-adv-x="756" d="M0 444l4 232l-3 75q10 40 58 40l31 -9l31 4q98 -13 102 -22q-5 -94 -23 -257q0 -162 67 -223h17q52 0 134 156l13 49l-8 275q22 9 45 36h22q10 0 13 -22h5q0 44 35 44q9 -6 9 -53q12 -18 62 -18q42 0 48 -31l18 -53l-4 -76l4 -66l-9 -81q9 -52 9 -146v-98 q0 -160 -49 -160l-31 -4l-22 4h-27q-87 0 -87 45q0 7 2 16l-57 -12q-61 -62 -191 -85l-14 -4q-35 0 -155 124q-32 51 -45 249zM36 538l4 -22l9 9v35l-9 9l-4 -4v-27zM37 693l4 -22h9v62l-9 9h-4v-49zM107 649l22 -213h9l4 53v93q0 94 -22 94q-9 0 -13 -27zM134 733l14 5v8 l-14 5v-18zM157 742q13 -15 13 -44h9l9 8v23l-14 13h-17zM204 284h9v9h-9v-9zM213 236l5 -5h13v13h-9zM218 84q6 -40 40 -40h4v18q-10 17 -35 31h-9v-9zM289 107q9 -23 31 -23q9 0 9 14q-9 26 -36 26l-4 -4v-13zM311 244l5 -13h13l22 5v8l-9 9h-22zM360 120l13 -13h5 q13 0 22 40l-4 4h-5q-24 0 -31 -18v-13zM369 289l9 -9h4l18 18v22h-4q-16 -4 -27 -27v-4zM444 249l9 -9l5 4v18h-14v-13zM498 76q33 -14 71 -14h22q8 0 18 27l-4 62v5h-14v-27q0 -34 -18 -40h-26l-27 22l-22 -31v-4zM605 489l8 -31q9 0 14 53l-9 89h-5z" />
<glyph unicode="v" horiz-adv-x="763" d="M7 764l15 6q170 0 170 -48q115 -201 163 -349l9 -11q15 0 93 235q65 82 94 82v11h5l-5 5v16l58 43h15q18 0 39 -22h34q29 -3 29 -16l-5 -43l5 -37q-10 -7 -51 -60q-82 -112 -189 -417l-83 -155l-34 -11h-14q-25 0 -25 11l-14 -6v-42l-10 -11h-5q-44 75 -63 75 q-54 0 -78 219q-8 5 -43 192q-63 212 -105 291zM46 722q43 -102 63 -107v10q-23 113 -53 113zM199 170q18 -15 29 -102l5 -5q0 -16 10 -16h5v26q-17 22 -39 134l-5 5h-5v-42zM398 159l10 -11l5 22l-5 5h-5l-5 -5v-11zM614 663h5v16h-5v-16zM629 690l5 -6h19l10 11l-5 5h-19z " />
<glyph unicode="w" horiz-adv-x="1048" d="M0 682v20q0 20 126 20h5l55 19q25 0 25 -44q0 -53 91 -285q0 -17 71 -162q20 0 55 94q75 191 90 191q30 0 41 -74q76 -170 80 -201h10q47 80 91 236q28 38 45 167q17 78 36 78h60q37 0 86 15h15q32 0 45 -29q0 -55 -96 -241l-121 -344q-12 0 -60 -117l-5 -5h-96 q-47 0 -120 127l-5 5h-6q-8 0 -35 -113l-30 -39h-15l-30 29l-41 -9h-80q-43 0 -141 294q-40 121 -70 182l-61 172zM81 663l15 -44q10 0 10 29l15 20l-5 5h-25zM161 673h5v14h-5v-14zM176 633l5 -24h5v29h-10v-5zM262 339l15 -15v10q0 25 -15 29v-24zM272 98q11 -31 40 -44h5 v10h5l-35 44h-5zM282 314q32 -97 50 -108l5 5v5q0 16 -45 88v10h-10zM327 118l10 -10v5l-10 10v-5zM383 172l5 -15h5l10 10v20l-10 9zM448 113h10v39h-5l-5 -24v-15zM453 260h5l5 25h-10v-25zM518 442h6v10h-6v-10zM539 191h5v10h-5v-10zM559 157h5v10h-5v-10zM589 255 q8 -34 15 -34q20 7 20 15q-15 17 -15 39h-5q-7 0 -15 -20zM690 64l15 -10q19 0 45 88v5q-30 0 -60 -83zM831 638h5q20 64 35 64h5q10 0 20 -29h10l10 24v5q0 10 -15 10q-70 -3 -70 -49v-25z" />
<glyph unicode="x" horiz-adv-x="852" d="M-6 720q96 0 126 21h5q10 0 163 -203q17 0 76 -77h9q64 116 166 209q24 60 36 60l85 -17h63q32 0 32 -25q-67 -104 -89 -137l-108 -154l-58 -65q0 -11 227 -285q9 0 9 -22q-5 -10 -117 -60l-5 -4h-31q-80 154 -146 209h-9l-18 -5l-32 26h-9q-94 -77 -153 -176l-36 -26 l-45 5h-27q-29 0 -54 -56h-23l-13 13l18 30v4q0 9 -36 13v26l229 266l-54 111l-118 193l-39 64v21q-18 0 -18 13l13 13zM8 672l9 -8h9v13l-14 13h-4v-18zM54 19h9q11 0 31 48h-4q-26 -18 -36 -39v-9zM99 530l9 -9v9h-9zM229 538h9v9h-9v-9zM324 204h4l23 17v17 q-27 -17 -27 -34zM328 350q17 -30 32 -30v12l-32 26v-8zM364 311q59 -86 95 -86l5 5v4q-78 81 -100 81v-4zM396 414h14l22 51h-9q0 -11 -27 -38v-13zM632 25l9 -8q44 11 45 21v4l-27 22h-4l9 -22q-11 -8 -32 -8v-9z" />
<glyph unicode="y" horiz-adv-x="868" d="M0 -408l5 127q0 22 150 38q73 0 73 17q0 3 -2 6q28 40 28 84q17 0 47 94q10 0 24 47q6 0 19 42l9 10l-70 136q0 14 -127 276l-42 99q-12 0 -64 180v24q0 11 24 14l145 5q42 0 87 -186q21 -17 52 -117q8 -4 56 -117l5 -14l4 -5q0 -14 10 -14q14 0 47 99q95 280 124 358 l28 5l150 -52l4 -4v-5q3 -28 3 -55q0 -94 -33 -168q-27 -91 -65 -173q0 -22 -94 -253l-117 -254l-15 -23q-24 -92 -44 -92q-4 0 -8 3q-37 -68 -89 -99q-26 -23 -108 -37v4q0 -15 -174 -23h-28q-11 0 -14 23zM70 -384v-9l14 4l19 -4q66 6 66 28l-10 9q-59 -28 -89 -28z M200 744l5 -5h5l4 5v9h-4zM238 720h4v10h-4v-10zM263 -351v-14h4v14h-4zM301 235q0 -14 43 -84q0 -23 46 -76h5v29q-60 77 -80 136h-4l-5 -5h-5zM334 441q0 -45 66 -164h9v10q-56 150 -65 154h-10zM381 -173v-19h5l9 10v23zM404 -131v-14l10 9v15zM419 -103v-4h4q10 0 14 28 l-4 4h-5zM442 -37v-5l9 -9l5 5v18h-5zM517 52l5 -23q28 24 28 46l-14 10q-19 -7 -19 -14v-19zM616 484h4l5 18h-9v-18zM644 404h4q19 7 19 33l-9 9zM662 601h5v9h-5v-9zM667 620h5l16 110h14l9 -10l12 -105h19l7 96q0 23 -75 33q-12 -4 -12 -50q0 -29 5 -74zM677 474 q37 39 37 70v5h-9q-11 0 -28 -65v-10z" />
<glyph unicode="z" horiz-adv-x="829" d="M0 242v12q73 110 289 289q14 0 23 23l-12 7h-11l-43 4l-169 -7q-58 8 -58 57l-4 20l8 119l-4 27l4 4h35l31 -4l19 4l81 -12h7v4l123 -12l35 8l54 -8l27 4l38 -4l47 8h19l11 -11l27 27l20 3q111 -16 111 -53l4 -54v-70q0 -28 -62 -61l-196 -166q-194 -158 -215 -158v-7 q0 -16 111 -16h23q73 -11 208 -19l100 -11q3 -12 31 -12l8 -11q-39 -32 -39 -39v-19q12 -14 12 -27q0 -42 -23 -81q-67 15 -193 23l-46 -4l-11 4l-16 -4l-196 16h-16l-73 -4l-15 4l-23 -4l-4 4l-46 -8q-18 6 -27 23v8l11 50q-3 95 -15 134zM42 235h16l7 7l-7 8h-16v-15z M46 115l16 -11l19 8v7l-31 8l-4 -4v-8zM96 281l8 -8h8l7 8v8l-23 -4v-4zM119 335h8q30 0 42 46q26 0 39 35l-4 4h-4q-81 -65 -81 -85zM177 154h12v12h-12v-12zM269 62l39 -4h73l4 19l-4 4h-23q-50 0 -89 -12v-7zM316 604l7 -7h12l8 7l-24 8l-3 -4v-4zM343 747h19v4l-8 7h-4 l-7 -7v-4zM427 431h12l7 8v4l-7 7h-4l-8 -7v-12zM435 527l8 -7l7 11h-15v-4zM458 477q6 -15 12 -15h3l16 15v12h-23q-8 0 -8 -12zM539 531h15l4 12l-4 4h-7l-8 -8v-8zM585 720q0 -8 12 -8l65 -4l12 12h3q-7 17 -15 19l-19 -4l-46 4l-12 -4v-15zM600 589l16 -4l15 12v7h-23 l-8 -7v-8zM616 58l15 -16h4v8l-11 12h-8v-4zM624 115h7v-3q16 5 16 11l-8 8h-8l-7 -8v-8zM658 650l16 -3l7 11v12l-7 7h-4l-12 -11v-16z" />
<glyph unicode="{" d="M40 45v1750l5 5h119q5 0 5 -12l2 2h2q8 -1 14 -13l-9 -3v-2l4 -7v-9l-16 -46v-41q10 -1 10 -7l-14 -5v-11q9 0 9 -5q-2 -7 -14 -7h-11l2 -11v-21q9 -1 9 -7v-7l-2 -2v-2h7q0 7 4 7h3q4 0 4 -10h5v-2l-2 -2l2 -2v-5l-19 -7q0 -4 17 -7v-4l-17 -14v-21q-4 -4 -4 -25 q-13 0 -16 -44q6 0 11 -94q12 -2 12 -11l-9 -17q11 0 11 -4l-18 -23v-5q7 0 7 -4l-3 -3l5 -4v-14l-2 -2v-3q11 0 11 -4v-5q0 -4 -9 -4l-2 -7l2 -21l-5 -5l5 -20l-12 -2v-10l-2 -16l5 -4l-3 -3v-2q7 0 7 -5v-13l-2 -3l2 -2v-16l-9 -14v-11l5 -7v-25q7 0 7 -5v-9q0 -5 -7 -5 v-4q9 -2 9 -7v-92q0 -5 -12 -5q0 -12 7 -20v-3q0 -4 -7 -4l7 -16v-7h-7v-14q10 0 10 -5v-2q-5 -11 -10 -11v-5q10 0 10 -5q0 -13 -10 -13v-5l5 -9l-7 -16q12 0 12 -14q-10 -3 -10 -7v-7q12 0 12 -4v-3q0 -4 -9 -4v-16l-3 -3v-2l12 -9l-5 -16q7 0 7 -5l-2 -11q10 0 16 -9v-3 q-14 0 -18 -11h2l18 2l3 -2v-7q0 -5 -14 -5q-19 -46 -26 -46h-6v-4l2 -12l-5 -4v-5l-2 -44l2 -16l-4 -46l4 -9l-9 -39q16 -14 16 -39l2 -7v-9l-6 -9q9 -61 16 -69v-23q-5 0 -10 -12v-32l-4 -4l2 -19l-2 -7l4 -4v-7l-4 -18l4 -5v-18q0 -12 7 -21l-4 -7l7 -32l-3 -12 q10 0 10 -4v-2l-10 -3q0 -11 16 -11l3 -3v-2l-7 -11l7 -10l-3 -2h-114zM118 348h2v9h-2v-9zM153 1411v17q3 29 9 29l2 -7q0 -43 -7 -43zM157 1276v2h5v-2h-5z" />
<glyph unicode="|" d="M91 66l8 82l-4 20l20 288v30l4 21l-4 20v62l4 26l-4 30l8 190q-12 127 -12 221l4 108q-11 55 -16 395l28 15h4q16 -6 16 -67h4v47l-4 15l4 5q-6 0 -16 36q0 18 40 36l32 -26q3 16 32 16q20 -9 20 -26l40 5l12 -31l-8 -261l4 -5v-6l-4 -5l8 -154l-8 -179q8 -95 12 -436 l-8 -401q-13 -133 -28 -133q-14 0 -32 21l-12 -11h-8l-12 11h-36q-28 -2 -28 -11q-56 0 -56 21zM147 1466h4v16h-4v-16zM255 1513h4v51h-4v-51z" />
<glyph unicode="}" d="M800 64l9 2v2l-4 7v9l16 46v42q-10 1 -10 6l14 5v11q-9 0 -9 5q2 7 14 7h11l-2 11v21q-9 1 -9 7v7l2 2v3h-7q0 -7 -4 -7h-3q-4 0 -4 9h-5v2l2 2l-2 3v4l19 7q0 4 -17 7v5l17 13v21q4 4 4 25q13 0 16 44q-6 0 -11 94q-12 2 -12 12l9 16q-11 0 -11 4l18 23v5q-7 0 -7 5l3 2 l-5 4v14l2 2v3q-11 0 -11 4v5q0 5 9 5l2 6l-2 21l5 5l-5 20l12 3v9l2 16l-5 5l3 2v2q-7 0 -7 5v14l2 2l-2 2v16l9 14v11l-5 7v26q-7 0 -7 4v9q0 5 7 5v5q-9 1 -9 6v92q0 5 12 5q0 12 -7 21v2q0 4 7 4l-7 17v6h7v14q-10 0 -10 5v2q5 12 10 12v4q-10 0 -10 5q0 14 10 14v4 l-5 9l7 16q-12 0 -12 14q10 4 10 7v7q-12 0 -12 5v2q0 4 9 4v17l3 2v2l-12 9l5 16q-7 0 -7 5l2 12q-10 0 -16 9v2q14 0 18 11h-2l-18 -2l-3 2v7q0 5 14 5q19 46 26 46h6v4l-2 12l5 5v4l2 44l-2 16l4 46l-4 9l9 39q-16 14 -16 39l-2 7v9l6 9q-9 62 -16 69v23q5 0 10 12v32 l4 4l-2 19l2 7l-4 4v7l4 19l-4 4v19q0 12 -7 20l4 7l-7 32l3 12q-10 0 -10 4v3l10 2q0 11 -16 11l-3 3v2l7 12l-7 9l3 2h114l5 -5v-1750l-5 -4h-119q-5 0 -5 11l-2 -2h-2q-8 2 -14 14zM823 390q0 43 7 43l4 -4v-16q-3 -30 -9 -30zM825 562v2h5v-2h-5zM867 1483h2v9h-2v-9z " />
<glyph unicode="~" horiz-adv-x="923" d="M194 1149q0 5 9 22h-1q2 4 1.5 2.5t1.5 2.5l8 18h-1l3 11v-1q2 8 5 16.5t8.5 16.5t14 14t22.5 9l-1 -1l35 16l11 5h-1q12 5 27 5q1 0 2 -0.5t2 -0.5h4q8 0 15 -0.5t15 -3.5l35 -14q13 -23 29.5 -45.5t34 -41.5t35.5 -30.5t33 -11.5q5 0 13.5 2.5t17 7.5t14.5 13t6 19 q0 6 -2.5 16t-5.5 21l-17 21l80 51l13 -19q10 -14 15 -29t9 -29q0 -2 1 -4.5t4 -10.5q-3 -9 -7 -18.5t-10 -20.5q-2 -30 -20 -54.5t-47 -44.5l-17 -8v1q-11 -6 -20 -7.5t-18 -1.5h-8q-20 0 -33 3t-21 5q-18 2 -59 47l-5 8l-10 11l-11 14q0 8 -4 16.5t-10 20.5v-1l-17 22 q-8 11 -25 11q-25 0 -44 -17t-19 -37q0 -8 10 -31l-1 1q1 -2 6 -6.5t11 -8.5l9 -9l-92 -48l-18 28q-7 11 -11 35t-4 43z" />
<glyph unicode="&#xa1;" horiz-adv-x="672" d="M122 -146l20 111l-4 63v85q0 42 -12 75l4 19l-4 23q15 59 24 164l-8 157l4 3v3l-8 46l4 16l-4 10l4 36v16l-4 30q13 75 84 75l28 3l16 -3q32 10 68 10q32 0 32 -66l-4 -10l4 -13l-4 -16l16 -111l-4 -79q0 -124 16 -258l-4 -16l24 -141l-4 -3v-3l16 -82v-6h-4l4 -23 l4 -121h-4l4 -4v-3q-11 -39 -28 -39l-168 7q-108 37 -108 42v3zM150 1027v30l40 72q37 27 76 27q35 0 80 -45q5 0 24 -45v-9q0 -96 -64 -130l-56 -9q-26 0 -72 45l4 9q-32 16 -32 55zM178 533l4 -42h8v57q0 22 12 24l24 -3l4 3v3l-36 69l-12 7l-4 -4v-3l4 -36zM190 -147v-9 l32 -6l4 3l-8 69v45l-8 6q-16 -24 -16 -78l4 -12zM214 660l16 -9l4 18l-4 3h-16v-12zM262 1057l4 -15h8l4 15v3l-8 6l-8 -6v-3zM306 647l12 -9l12 9v7l-8 6z" />
<glyph unicode="&#xa2;" horiz-adv-x="1139" />
<glyph unicode="&#xa3;" />
<glyph unicode="&#xa4;" />
<glyph unicode="&#xa5;" horiz-adv-x="1262" />
<glyph unicode="&#xa6;" />
<glyph unicode="&#xa7;" />
<glyph unicode="&#xa8;" horiz-adv-x="785" d="M73 1338q25 126 147 130q31 -30 44.5 -49.5t14.5 -28.5l1 -12q0 -44 -30 -75.5t-92 -53.5q-33 0 -49.5 8.5t-17.5 29.5q-16 1 -17 34zM420 1338q27 126 148 130q30 -30 43.5 -49.5t14.5 -28.5l1 -12q0 -44 -29.5 -75.5t-92.5 -53.5q-33 0 -49.5 8.5t-17.5 29.5 q-16 1 -17 34z" />
<glyph unicode="&#xa9;" horiz-adv-x="1707" />
<glyph unicode="&#xaa;" horiz-adv-x="648" />
<glyph unicode="&#xab;" horiz-adv-x="944" />
<glyph unicode="&#xac;" />
<glyph unicode="&#xad;" horiz-adv-x="1707" />
<glyph unicode="&#xae;" horiz-adv-x="1674" />
<glyph unicode="&#xaf;" horiz-adv-x="780" d="M36 1258l11 20q-7 1 -7 20q3 11 11 11l-3 25l13 7l106 -5l3 3h1l2 -3l63 5l72 -5q38 5 177 7l162 -4q54 -8 54 -17t-8 -20l5 -7v-5l-5 -8v-22q1 -16 5 -16q0 -34 -9 -34l-13 -4l-33 6l-8 -2l-117 12h-12l-8 2l-8 -2h-26l-11 2l-12 -2l-77 4q-51 -7 -89 -7l-44 3 q-22 -7 -160 -10l-6 17v2q2 10 28 10v3h-20l-6 -3l-2 3q0 -4 -14 -11q-8 0 -15 25zM70 1307h20v2h-20v-2zM102 1241h6v3h-6v-3zM613 1229l46 -3h2q16 0 20 11v4l-5 5h-1q-62 -13 -62 -17z" />
<glyph unicode="&#xb0;" horiz-adv-x="674" />
<glyph unicode="&#xb1;" />
<glyph unicode="&#xb2;" />
<glyph unicode="&#xb3;" />
<glyph unicode="&#xb4;" horiz-adv-x="785" d="M155 1263q0 33 15 63t33.5 53t35.5 37.5t20 16.5l14 8l17 -5l19 15q48 72 68 83l5 -10l11 6l20 29l6 -1l3 2q10 37 18 42q6 -2 12 -2q13 0 31 7q54 -77 67 -77q1 0 1 0.5t1 0.5l-1 -5l45 -49l6 -10q1 -9 1.5 -16.5t0.5 -13.5q0 -15 -31.5 -43.5t-82.5 -65t-116.5 -79.5 t-133.5 -87q-6 -3 -11 -3t-8 5l-12 30q-6 -3 -11 -3q-6 0 -9 6l-6 10l-6 20l-17 5l-2 3q-3 6 -3 28zM528 1339l3 11l14 8l6 -1q0 -1 0.5 -1.5t0.5 -1.5q0 -6 -16 -20l-4 -2zM585 1567l1 6l4 2l5 -2l2 -3l-1 -6l-4 -2zM625 1462l11 6l5 -2l-3 -11l-11 3zM632 1424l4 2l3 -7 l-3 -2z" />
<glyph unicode="&#xb5;" horiz-adv-x="1180" />
<glyph unicode="&#xb6;" horiz-adv-x="1024" />
<glyph unicode="&#xb7;" horiz-adv-x="508" />
<glyph unicode="&#xb8;" horiz-adv-x="1024" d="M93 -375l34 118l70 -39q34 -13 57.5 -20t42.5 -7q32 0 52 12t31 26.5t15 27t4 13.5q-4 22 -16 53t-65.5 45t-60.5 37t-21 74l32 62l110 -4l-28 -69l32 -21q25 -16 56 -23l42 -24q70 -82 71 -97q0 -3 -1 -4l-1 -2q1 -1 2.5 -10.5t1.5 -20.5q0 -20 -7.5 -45t-24.5 -48 l-18 -14q-79 -55 -155 -69q-33 -5 -54 -5q-55 0 -86 5.5t-115 48.5zM403 -307l4 -3l5 3v6zM461 -243h4l2 5l-1 3z" />
<glyph unicode="&#xb9;" />
<glyph unicode="&#xba;" horiz-adv-x="718" />
<glyph unicode="&#xbb;" horiz-adv-x="944" />
<glyph unicode="&#xbc;" horiz-adv-x="1708" />
<glyph unicode="&#xbd;" horiz-adv-x="1964" />
<glyph unicode="&#xbe;" horiz-adv-x="1708" />
<glyph unicode="&#xbf;" horiz-adv-x="748" />
<glyph unicode="&#xc0;" horiz-adv-x="1224" d="M0 58v8q0 8 16 8l-4 19l77 198q6 2 55 125q14 19 23 54q31 15 31 43l4 4q0 8 12 8l-8 11v24q0 20 35 73q21 42 27 86q28 24 39 62q39 10 39 78l19 35q0 31 35 97q20 0 20 31q12 19 27 19l27 47q-8 21 -8 66q0 35 39 66q0 78 51 78q6 39 35 39h11q20 0 27 -121l39 -151 q6 0 20 -59l43 -116q27 -54 69 -183q16 -40 67 -120l139 -299q82 -148 82 -187q-5 -23 -12 -23h-4q-14 0 -15 31h-12l12 -47h-4l4 -4v-4l-12 -11q-19 8 -19 31l-16 -4l-4 4h-3l-16 -4l-43 23l-11 -4l-12 4l4 -4v-7h-8q-16 6 -16 23q-23 -3 -23 -12v-4l16 -27l-4 -4l4 -4v-7 h-8q-15 0 -39 77q-8 36 -70 175q-30 81 -81 140l-32 -4l-31 4l-15 -4l-109 8l-39 -4q-35 3 -35 8l-4 -4h-35q-32 0 -70 -120q-7 0 -11 -28q-30 -57 -74 -186q-9 0 -12 -27q-16 -4 -35 -55q-14 0 -46 -27h-12q-7 0 -19 31v8l11 15v8h-19l-8 -8l12 -15l-24 -8q-7 0 -35 27h-11 q-8 0 -8 -11l-4 -4h-15zM220 480h4l8 40v4h-4l-8 -32v-12zM340 1657l4 1l10 -5l-2 -3l-9 -2zM342 1618l1 6l5 -2l-4 -6zM372 1635q0 5 0.5 10.5t1.5 12.5l5 8l40 41l-1 4h1q12 0 60 63q15 -6 26 -6q3 0 11 2q2 -2 6.5 -10.5t9.5 -24.5l3 -2l5 1l18 -24l9 -5l5 8 q19 -11 59 -69l17 -12l15 4l12 -7q3 -2 18 -14.5t31 -32t29 -45t13 -54.5q0 -12 -2 -18l-17 -6l-5 -17l-6 -8q-3 -5 -9 -5l-8 2l-11 -25q-2 -3 -6 -3t-10 2q-61 37 -118.5 73t-102.5 66.5t-72 54t-27 36.5zM379 1738v5l1 2l5 2l4 -6l-6 -5zM418 1564q0 1 1 2l5 1l12 -6 l3 -10l-3 -5l-4 1q-14 11 -14 17zM452 780q0 -16 44 -32l4 -20l-4 -32l28 -36q21 12 40 12h4l16 -4l24 8l16 -8q0 8 20 8q-36 88 -96 172q-20 0 -20 12h-8q0 -31 -24 -56q-7 0 -20 40h-4q0 -18 -20 -64zM492 888h8l-8 8v-8zM500 772v12l8 8l4 -4v-12l-8 -8zM588 868 q3 -16 20 -32v-16l12 4q-13 44 -24 44h-8zM620 1300h4v16h-4v-16zM624 804l4 -20h4v8h4l-12 16v-4zM632 912l20 -48h8v4q0 19 -24 44h-4zM640 760l4 -12h8v8l-12 12v-8zM648 1052q56 -185 92 -232q65 -208 88 -208v8q-16 21 -32 92l-40 116q-76 157 -96 224h-12zM664 848 l4 -20h4v20h-8zM680 808l4 -20h8v12l-12 12v-4zM836 264l8 8l-4 4h-4v-12zM848 228q16 -11 36 -80h12v32l-44 76h-4v-28zM952 356l8 -8v8h-8zM972 316h4v8h-4v-8zM1008 56v8h8v-8h-8z" />
<glyph unicode="&#xc1;" horiz-adv-x="1224" d="M0 58v8q0 8 16 8l-4 19l77 198q6 2 55 125q14 19 23 54q31 15 31 43l4 4q0 8 12 8l-8 11v24q0 20 35 73q21 42 27 86q28 24 39 62q39 10 39 78l19 35q0 31 35 97q20 0 20 31q12 19 27 19l27 47q-8 21 -8 66q0 35 39 66q0 78 51 78q6 39 35 39h11q20 0 27 -121l39 -151 q6 0 20 -59l43 -116q27 -54 69 -183q16 -40 67 -120l139 -299q82 -148 82 -187q-5 -23 -12 -23h-4q-14 0 -15 31h-12l12 -47h-4l4 -4v-4l-12 -11q-19 8 -19 31l-16 -4l-4 4h-3l-16 -4l-43 23l-11 -4l-12 4l4 -4v-7h-8q-16 6 -16 23q-23 -3 -23 -12v-4l16 -27l-4 -4l4 -4v-7 h-8q-15 0 -39 77q-8 36 -70 175q-30 81 -81 140l-32 -4l-31 4l-15 -4l-109 8l-39 -4q-35 3 -35 8l-4 -4h-35q-32 0 -70 -120q-7 0 -11 -28q-30 -57 -74 -186q-9 0 -12 -27q-16 -4 -35 -55q-14 0 -46 -27h-12q-7 0 -19 31v8l11 15v8h-19l-8 -8l12 -15l-24 -8q-7 0 -35 27h-11 q-8 0 -8 -11l-4 -4h-15zM220 480h4l8 40v4h-4l-8 -32v-12zM407 1480q0 29 13 54.5t29 45.5t30.5 32t18.5 14l12 7l15 -4l17 12q41 60 64 61l9 5l18 24l5 -1l3 2q11 31 16 35q6 -2 11 -2q11 0 26 6q48 -63 59 -63h2l-1 -4l40 -41l5 -8q11 -14 11 -25q0 -7 -27 -28.5 t-72.5 -52.5t-105 -69t-124.5 -78q-3 -2 -5.5 -2h-4.5q-5 0 -6 3l-11 25q-3 -1 -5 -1.5t-4 -0.5q-5 0 -8 5l-6 8l-5 17l-17 6q-2 2 -2 18zM452 780q0 -16 44 -32l4 -20l-4 -32l28 -36q21 12 40 12h4l16 -4l24 8l16 -8q0 8 20 8q-36 88 -96 172q-20 0 -20 12h-8 q0 -31 -24 -56q-7 0 -20 40h-4q0 -18 -20 -64zM492 888h8l-8 8v-8zM500 772v12l8 8l4 -4v-12l-8 -8zM588 868q3 -16 20 -32v-16l12 4q-13 44 -24 44h-8zM620 1300h4v16h-4v-16zM624 804l4 -20h4v8h4l-12 16v-4zM632 912l20 -48h8v4q0 19 -24 44h-4zM640 760l4 -12h8v8 l-12 12v-8zM648 1052q56 -185 92 -232q65 -208 88 -208v8q-16 21 -32 92l-40 116q-76 157 -96 224h-12zM664 848l4 -20h4v20h-8zM680 808l4 -20h8v12l-12 12v-4zM836 264l8 8l-4 4h-4v-12zM848 228q16 -11 36 -80h12v32l-44 76h-4v-28zM952 356l8 -8v8h-8zM972 316h4v8h-4 v-8zM1008 56v8h8v-8h-8z" />
<glyph unicode="&#xc2;" horiz-adv-x="1224" d="M0 58v8q0 8 16 8l-4 19l77 198q6 2 55 125q14 19 23 54q31 15 31 43l4 4q0 8 12 8l-8 11v24q0 20 35 73q21 42 27 86q28 24 39 62q39 10 39 78l19 35q0 31 35 97q20 0 20 31q12 19 27 19l27 47q-8 21 -8 66q0 35 39 66q0 78 51 78q6 39 35 39h11q20 0 27 -121l39 -151 q6 0 20 -59l43 -116q27 -54 69 -183q16 -40 67 -120l139 -299q82 -148 82 -187q-5 -23 -12 -23h-4q-14 0 -15 31h-12l12 -47h-4l4 -4v-4l-12 -11q-19 8 -19 31l-16 -4l-4 4h-3l-16 -4l-43 23l-11 -4l-12 4l4 -4v-7h-8q-16 6 -16 23q-23 -3 -23 -12v-4l16 -27l-4 -4l4 -4v-7 h-8q-15 0 -39 77q-8 36 -70 175q-30 81 -81 140l-32 -4l-31 4l-15 -4l-109 8l-39 -4q-35 3 -35 8l-4 -4h-35q-32 0 -70 -120q-7 0 -11 -28q-30 -57 -74 -186q-9 0 -12 -27q-16 -4 -35 -55q-14 0 -46 -27h-12q-7 0 -19 31v8l11 15v8h-19l-8 -8l12 -15l-24 -8q-7 0 -35 27h-11 q-8 0 -8 -11l-4 -4h-15zM220 480h4l8 40v4h-4l-8 -32v-12zM325 1524q23 21 32 42q32 10 63 61l42 43q5 0 25 24q69 54 88 54l35 23h2q29 -26 53 -51.5t46 -52.5t44 -55t46 -56q16 -10 26 -24l7 -7h-1q6 -8 12.5 -18t6.5 -16v-6q-5 -6 -16 -8l-9 2l-13 -2q-14 1 -14 3l-3 -1 h-60l-22 -4q-9 0 -14.5 11t-18.5 33l-3 8q-15 19 -40 44t-59 56q-12 -6 -26 -15.5t-27.5 -24.5t-24.5 -35.5t-17 -48.5q20 -12 20 -19q-3 -7 -30 1l-40 -8q-98 14 -98 25q-12 20 -12 22zM350 1510q6 -8 20 -8q5 0 7 8l-7 4h-20v-4zM407 1584h3l20 19v7l-5 4h-3zM422 1519 l15 3v7h-7l-8 -5v-5zM452 780q0 -16 44 -32l4 -20l-4 -32l28 -36q21 12 40 12h4l16 -4l24 8l16 -8q0 8 20 8q-36 88 -96 172q-20 0 -20 12h-8q0 -31 -24 -56q-7 0 -20 40h-4q0 -18 -20 -64zM452 1522l5 -3h5q10 3 10 12v7h-5l-15 -12v-4zM452 1568q18 7 18 16v3h-3 q-5 0 -15 -12v-7zM492 888h8l-8 8v-8zM494 1582h11l12 14v2h-3q0 -8 -14 -8l-6 -5v-3zM500 772v12l8 8l4 -4v-12l-8 -8zM548 1624q32 23 32 30h-8q-20 -19 -24 -30zM588 868q3 -16 20 -32v-16l12 4q-13 44 -24 44h-8zM620 1300h4v16h-4v-16zM624 804l4 -20h4v8h4l-12 16v-4z M632 912l20 -48h8v4q0 19 -24 44h-4zM640 760l4 -12h8v8l-12 12v-8zM640 1717l2 -6h5v4l-5 4h-2v-2zM648 1052q56 -185 92 -232q65 -208 88 -208v8q-16 21 -32 92l-40 116q-76 157 -96 224h-12zM649 1664l6 -3l2 3l-8 6v-6zM649 1708q2 -11 8 -11h2q-3 13 -10 13v-2z M662 1690q10 -7 10 -17l2 -2h6v5l-18 18v-4zM664 848l4 -20h4v20h-8zM680 808l4 -20h8v12l-12 12v-4zM690 1598q0 -17 42 -35h7q-24 40 -44 40zM773 1516q19 -24 24 -24h12l5 4v2l-29 20zM836 264l8 8l-4 4h-4v-12zM848 228q16 -11 36 -80h12v32l-44 76h-4v-28zM952 356 l8 -8v8h-8zM972 316h4v8h-4v-8zM1008 56v8h8v-8h-8z" />
<glyph unicode="&#xc3;" horiz-adv-x="1224" d="M0 58v8q0 8 16 8l-4 19l77 198q6 2 55 125q14 19 23 54q31 15 31 43l4 4q0 8 12 8l-8 11v24q0 20 35 73q21 42 27 86q28 24 39 62q39 10 39 78l19 35q0 31 35 97q20 0 20 31q12 19 27 19l27 47q-8 21 -8 66q0 35 39 66q0 78 51 78q6 39 35 39h11q20 0 27 -121l39 -151 q6 0 20 -59l43 -116q27 -54 69 -183q16 -40 67 -120l139 -299q82 -148 82 -187q-5 -23 -12 -23h-4q-14 0 -15 31h-12l12 -47h-4l4 -4v-4l-12 -11q-19 8 -19 31l-16 -4l-4 4h-3l-16 -4l-43 23l-11 -4l-12 4l4 -4v-7h-8q-16 6 -16 23q-23 -3 -23 -12v-4l16 -27l-4 -4l4 -4v-7 h-8q-15 0 -39 77q-8 36 -70 175q-30 81 -81 140l-32 -4l-31 4l-15 -4l-109 8l-39 -4q-35 3 -35 8l-4 -4h-35q-32 0 -70 -120q-7 0 -11 -28q-30 -57 -74 -186q-9 0 -12 -27q-16 -4 -35 -55q-14 0 -46 -27h-12q-7 0 -19 31v8l11 15v8h-19l-8 -8l12 -15l-24 -8q-7 0 -35 27h-11 q-8 0 -8 -11l-4 -4h-15zM220 480h4l8 40v4h-4l-8 -32v-12zM342 1622q0 5 9 22h-1q2 4 1.5 2.5t1.5 2.5l8 18h-1l3 11v-1q2 8 5 16.5t8.5 16.5t14 14t22.5 9l-1 -1l35 16l11 5h-1q12 5 27 5q1 0 2 -0.5t2 -0.5h4q8 0 15 -0.5t15 -3.5l35 -14q13 -23 29.5 -45.5t34 -41.5 t35.5 -30.5t33 -11.5q5 0 13.5 2.5t17 7.5t14.5 13t6 19q0 6 -2.5 16t-5.5 21l-17 21l80 51l13 -19q10 -14 15 -29t9 -29q0 -2 1 -4.5t4 -10.5q-3 -9 -7 -18.5t-10 -20.5q-2 -30 -20 -54.5t-47 -44.5l-17 -8v1q-11 -6 -20 -7.5t-18 -1.5h-8q-20 0 -33 3t-21 5q-18 2 -59 47 l-5 8l-10 11l-11 14q0 8 -4 16.5t-10 20.5v-1l-17 22q-8 11 -25 11q-25 0 -44 -17t-19 -37q0 -8 10 -31l-1 1q1 -2 6 -6.5t11 -8.5l9 -9l-92 -48l-18 28q-7 11 -11 35t-4 43zM452 780q0 -16 44 -32l4 -20l-4 -32l28 -36q21 12 40 12h4l16 -4l24 8l16 -8q0 8 20 8 q-36 88 -96 172q-20 0 -20 12h-8q0 -31 -24 -56q-7 0 -20 40h-4q0 -18 -20 -64zM492 888h8l-8 8v-8zM500 772v12l8 8l4 -4v-12l-8 -8zM588 868q3 -16 20 -32v-16l12 4q-13 44 -24 44h-8zM620 1300h4v16h-4v-16zM624 804l4 -20h4v8h4l-12 16v-4zM632 912l20 -48h8v4 q0 19 -24 44h-4zM640 760l4 -12h8v8l-12 12v-8zM648 1052q56 -185 92 -232q65 -208 88 -208v8q-16 21 -32 92l-40 116q-76 157 -96 224h-12zM664 848l4 -20h4v20h-8zM680 808l4 -20h8v12l-12 12v-4zM836 264l8 8l-4 4h-4v-12zM848 228q16 -11 36 -80h12v32l-44 76h-4v-28z M952 356l8 -8v8h-8zM972 316h4v8h-4v-8zM1008 56v8h8v-8h-8z" />
<glyph unicode="&#xc4;" horiz-adv-x="1224" d="M0 58v8q0 8 16 8l-4 19l77 198q6 2 55 125q14 19 23 54q31 15 31 43l4 4q0 8 12 8l-8 11v24q0 20 35 73q21 42 27 86q28 24 39 62q39 10 39 78l19 35q0 31 35 97q20 0 20 31q12 19 27 19l27 47q-8 21 -8 66q0 35 39 66q0 78 51 78q6 39 35 39h11q20 0 27 -121l39 -151 q6 0 20 -59l43 -116q27 -54 69 -183q16 -40 67 -120l139 -299q82 -148 82 -187q-5 -23 -12 -23h-4q-14 0 -15 31h-12l12 -47h-4l4 -4v-4l-12 -11q-19 8 -19 31l-16 -4l-4 4h-3l-16 -4l-43 23l-11 -4l-12 4l4 -4v-7h-8q-16 6 -16 23q-23 -3 -23 -12v-4l16 -27l-4 -4l4 -4v-7 h-8q-15 0 -39 77q-8 36 -70 175q-30 81 -81 140l-32 -4l-31 4l-15 -4l-109 8l-39 -4q-35 3 -35 8l-4 -4h-35q-32 0 -70 -120q-7 0 -11 -28q-30 -57 -74 -186q-9 0 -12 -27q-16 -4 -35 -55q-14 0 -46 -27h-12q-7 0 -19 31v8l11 15v8h-19l-8 -8l12 -15l-24 -8q-7 0 -35 27h-11 q-8 0 -8 -11l-4 -4h-15zM220 480h4l8 40v4h-4l-8 -32v-12zM306 1636q25 126 147 130q31 -30 44.5 -49.5t14.5 -28.5l1 -12q0 -44 -30 -75.5t-92 -53.5q-33 0 -49.5 8.5t-17.5 29.5q-16 1 -17 34zM452 780q0 -16 44 -32l4 -20l-4 -32l28 -36q21 12 40 12h4l16 -4l24 8l16 -8 q0 8 20 8q-36 88 -96 172q-20 0 -20 12h-8q0 -31 -24 -56q-7 0 -20 40h-4q0 -18 -20 -64zM492 888h8l-8 8v-8zM500 772v12l8 8l4 -4v-12l-8 -8zM588 868q3 -16 20 -32v-16l12 4q-13 44 -24 44h-8zM620 1300h4v16h-4v-16zM624 804l4 -20h4v8h4l-12 16v-4zM632 912l20 -48h8v4 q0 19 -24 44h-4zM640 760l4 -12h8v8l-12 12v-8zM648 1052q56 -185 92 -232q65 -208 88 -208v8q-16 21 -32 92l-40 116q-76 157 -96 224h-12zM653 1636q27 126 148 130q30 -30 43.5 -49.5t14.5 -28.5l1 -12q0 -44 -29.5 -75.5t-92.5 -53.5q-33 0 -49.5 8.5t-17.5 29.5 q-16 1 -17 34zM664 848l4 -20h4v20h-8zM680 808l4 -20h8v12l-12 12v-4zM836 264l8 8l-4 4h-4v-12zM848 228q16 -11 36 -80h12v32l-44 76h-4v-28zM952 356l8 -8v8h-8zM972 316h4v8h-4v-8zM1008 56v8h8v-8h-8z" />
<glyph unicode="&#xc5;" horiz-adv-x="1224" d="M0 58v8q0 8 16 8l-4 19l77 198q6 2 55 125q14 19 23 54q31 15 31 43l4 4q0 8 12 8l-8 11v24q0 20 35 73q21 42 27 86q28 24 39 62q39 10 39 78l19 35q0 31 35 97q20 0 20 31q12 19 27 19l27 47q-8 21 -8 66q0 35 39 66q0 78 51 78q6 39 35 39h11q20 0 27 -121l39 -151 q6 0 20 -59l43 -116q27 -54 69 -183q16 -40 67 -120l139 -299q82 -148 82 -187q-5 -23 -12 -23h-4q-14 0 -15 31h-12l12 -47h-4l4 -4v-4l-12 -11q-19 8 -19 31l-16 -4l-4 4h-3l-16 -4l-43 23l-11 -4l-12 4l4 -4v-7h-8q-16 6 -16 23q-23 -3 -23 -12v-4l16 -27l-4 -4l4 -4v-7 h-8q-15 0 -39 77q-8 36 -70 175q-30 81 -81 140l-32 -4l-31 4l-15 -4l-109 8l-39 -4q-35 3 -35 8l-4 -4h-35q-32 0 -70 -120q-7 0 -11 -28q-30 -57 -74 -186q-9 0 -12 -27q-16 -4 -35 -55q-14 0 -46 -27h-12q-7 0 -19 31v8l11 15v8h-19l-8 -8l12 -15l-24 -8q-7 0 -35 27h-11 q-8 0 -8 -11l-4 -4h-15zM220 480h4l8 40v4h-4l-8 -32v-12zM412 1623q0 23 9.5 48.5t27 47t42.5 35.5t56 14h27l48 3q45 -11 56 -25l36 -43q11 -15 31 -70l4 -49q-6 -39 -22.5 -64t-37 -39.5t-41 -20t-33.5 -5.5l-3 2l-3 -2q-26 3 -42 6t-28 7.5t-23 11.5t-26 17l-8 -6 q-12 7 -24 23t-22.5 35t-17 39t-6.5 35zM431 1640l6 1l3 -10h-1l1 7l-6 -14l1 9zM440 1646l3 12h1q0 -2 0.5 -6t1.5 -6h-6zM452 780q0 -16 44 -32l4 -20l-4 -32l28 -36q21 12 40 12h4l16 -4l24 8l16 -8q0 8 20 8q-36 88 -96 172q-20 0 -20 12h-8q0 -31 -24 -56q-7 0 -20 40 h-4q0 -18 -20 -64zM466 1555q2 -17 23 -32zM489 1523q2 -2 3 -2h4l-2 -5zM492 888h8l-8 8v-8zM495 1623q5 -24 15.5 -42.5t22 -32t23.5 -20.5t20 -7q18 0 36.5 7.5t34 20.5t25 30.5t9.5 36.5q0 23 -22 44t-65 44h-7l-37 -1l-3 -5q-13 -7 -29.5 -25t-22.5 -50zM500 772v12 l8 8l4 -4v-12l-8 -8zM503 1538l3 4l6 -13zM515 1719h4v-3zM519 1719q14 3 21.5 5t11.5 4h-13q-16 0 -20 -9zM588 868q3 -16 20 -32v-16l12 4q-13 44 -24 44h-8zM597 1740q1 0 2 -0.5t2 -0.5l11 2h-12zM612 1741l6 1q3 0 8 -3q-4 1 -7 1.5t-7 0.5zM620 1300h4v16h-4v-16z M624 804l4 -20h4v8h4l-12 16v-4zM626 1739q5 -2 11 -8l16 -16q3 9 12 9v1q-10 5 -19 8.5t-20 5.5zM632 912l20 -48h8v4q0 19 -24 44h-4zM640 760l4 -12h8v8l-12 12v-8zM648 1052q56 -185 92 -232q65 -208 88 -208v8q-16 21 -32 92l-40 116q-76 157 -96 224h-12zM664 848 l4 -20h4v20h-8zM680 808l4 -20h8v12l-12 12v-4zM680 1701l5 2v-5l3 -3l-5 -2v5zM683 1540q9 7 9 15l3 -3q-3 0 -7 -15zM688 1679l2 3l3 -3h-5zM693 1666l5 2v-5q1 -2 3 -4l3 -3l-5 -2v6zM699 1652v9h6l2 -19h-6v16zM703 1629v12l3 -3l-1 -4l3 -3zM836 264l8 8l-4 4h-4v-12z M848 228q16 -11 36 -80h12v32l-44 76h-4v-28zM952 356l8 -8v8h-8zM972 316h4v8h-4v-8zM1008 56v8h8v-8h-8z" />
<glyph unicode="&#xc6;" horiz-adv-x="1725" d="M62 7v8q0 8 17 8l-4 19l81 196q5 1 58 125q15 19 24 54q33 13 33 42l4 4q0 8 13 8l-9 11v24q0 7 8.5 23t20 37t22 46.5t15.5 51.5q29 24 41 62q41 11 41 78l20 34q0 32 37 97q10 0 14 8t7.5 17t9 17t18.5 8l29 46q-9 21 -9 66q0 34 41 66q0 77 54 77q7 39 37 39h12 q20 0 28 -120l41 -151q8 0 21 -58l46 -116q28 -52 72 -182q16 -38 36 -114l-9 -261q277 -189 277 -228q-2 -6 -4 -6q-7 0 -23 48h-5q-7 0 -7 -9t6 -25h-12l-2 18h-5l5 -4v-4l-13 -11q-20 8 -20 31l-17 -4l-7 4l-17 -4l-31 -41l-17 13l-7 -13v13l-1 -7h-9q-5 -5 -7 -5 q-4 0 -4 10q-24 -3 -24 -11v-4v37l-2 -4l4 -4v-7h-9q-12 0 -20 9.5t-17.5 31.5t-23.5 57.5t-39 87.5q-32 83 -85 140l-34 -4l-33 4l-15 -4h-115l-41 4q-37 3 -37 8l-5 -4h-36q-34 0 -74 -120q-1 0 -9 -16t-20.5 -44.5t-28.5 -67.5t-32 -85q-8 0 -13 -26q-17 -5 -36 -55 q-15 0 -49 -27h-13q-7 0 -20 31v8l12 15v8h-20l-8 -8l12 -15l-25 -8q-9 0 -37 27h-12q-8 0 -8 -11l-4 -4h-16zM319 425h4l8 40v4h-4l-8 -32v-12zM539 725q0 -16 46 -32l4 -20l-4 -32l29 -35q24 11 43 11l21 -4v25l14 -8q9 -3 15 -3q8 0 8 6q0 33 -22 76t-53 84q-21 0 -21 11 h-9q0 -30 -25 -55q-8 0 -21 40h-4q0 -18 -21 -64zM591 833h8l-8 8v-8zM599 717v12l8 8l4 -4v-12l-8 -8zM674 130v39l10 43l-10 141l15 78l-5 5v5l34 315l-5 15l19 248q-19 29 -24 92l15 53l-10 44v5q3 29 14 29q34 0 39 -44h5v10h5l-15 39v10q0 11 34 24l5 -5h5l20 5l19 -15 h5l10 10l218 -14l58 9l195 -9l39 9q68 -16 68 -34q0 -19 43 -19q15 -24 15 -54l-15 -58l5 -121v-5q-6 -49 -19 -49q-25 0 -29 15v5l19 63l-10 87h-9v-82q0 -28 -20 -54l5 -24l-19 -15h-15l-126 -9l-107 24l-5 -5l-34 5h-29l-20 -5l-38 10q-27 0 -34 -24l38 -209l25 -15 q0 10 102 15l43 -5l49 5v-5l49 10l14 -5l112 14l10 -29v-14l34 4l9 -14l-4 -83l14 -58v-15q0 -27 -53 -77l-29 4l-20 -9l-78 14l-34 -5l-189 30h-10l-39 -15l-43 19q-43 0 -49 -116v-73l24 -5l5 5h5q13 -10 107 -19q128 4 155 19l161 -10l68 15q22 -10 24 -20v-24 q39 -1 39 -19v-25q-25 -204 -58 -204l-25 -19l-14 15q39 33 39 102q19 7 19 34l-15 9l-4 -5l4 -4v-25q-32 -82 -68 -82l-9 9l14 20h-9q-20 -11 -20 -39l-5 -5h-48q-49 0 -49 10l-5 -5h-19l-20 5l-5 -5l-160 10l-19 -5l-34 10q-48 -10 -141 -10h-10l-14 10l-25 -10l-19 14v5 l10 15v5h-5l-20 -10q-19 7 -19 15v9l10 15v14l-15 -14v-15q0 -17 19 -39v-14l-14 -15h-10q-34 0 -87 63zM687 813q3 -16 20 -32v-16l12 4q-13 44 -24 44h-8zM719 1245h4v16h-4v-16zM723 749l4 -20h4v8h4l-12 16v-4zM731 857l20 -48h8v4q0 19 -24 44h-4zM739 705l4 -12h8v8 l-12 12v-8zM747 645h5l14 150l-5 5h-9v-10h-5l5 -4v-10l-5 -126v-5zM747 997q56 -185 92 -232q65 -208 88 -208v8q-16 21 -32 92l-40 116q-76 157 -96 224h-12zM763 793l4 -20h4v20h-8zM766 907l10 10v53l5 20l-5 14h-5l-5 -58v-39zM779 753l4 -20h8v12l-12 12v-4zM791 630 l4 -24h5l5 73l-5 14h-5l-4 -58v-5zM820 897h5q0 71 14 102l-5 15q-14 0 -14 -73v-44zM844 635h5v19h-5v-19zM935 209l8 8l-4 4h-4v-12zM947 173q16 -11 36 -80h12v32l-44 76h-4v-28zM970 849l10 -63h5l5 14l-10 54h-10v-5zM1071 261h4v8h-4v-8zM1093 66v8h8v-8h-8zM1116 154 h24v5h-24v-5zM1364 1228h29v9h-5l-24 -5v-4zM1427 1150l5 -5h10l9 10v29l-9 10h-5zM1437 241h5l9 10h-5zM1485 183h5v15h-5v-15z" />
<glyph unicode="&#xc7;" horiz-adv-x="1300" d="M0 608l19 43l-5 43q0 92 43 238l53 110q20 33 62 67l10 -19l23 15l-4 23v10q80 110 148 110q0 22 272 48q62 0 77 -24h4l5 5l24 -5l38 5q65 -16 86 -43l182 -134q11 -24 43 -48l29 19q28 0 71 -210l5 -58q0 -109 -24 -109l-24 -5l-28 5l-34 -24h-14q-12 0 -15 19h-4 q0 -19 -15 -19h-14q-56 49 -76 153q-20 89 -215 186l-115 43q-42 72 -62 72l-19 4l-72 -23q-43 -29 -43 -53q-14 0 -14 -14l-5 -5h-5l5 -5v-10q-46 -32 -86 -133l-15 -91q9 -405 158 -497q117 -105 230 -105h52q52 0 143 48l82 143q9 0 19 38l5 5h9l24 -5l19 5l91 -10l24 5 q25 0 38 -67q0 -24 -110 -224q0 -19 -67 -91l-57 -19l-10 9l-9 -9h-15q-9 0 -9 48q-42 -27 -57 -77l-39 -19l-4 5v5l-29 -10q-10 0 -10 48q-18 19 -52 19q-1 -15 -34 -29q0 -24 -124 -24q-22 0 -105 53l-10 9h-19l-14 -9h-24l-10 9l10 24q0 10 -119 110v-5l71 -76v-10 q-36 0 -105 82h-5v-5q0 -11 29 -29l43 -48l-10 -9q-129 75 -186 210q-67 126 -67 206zM295 444q16 -44 42 -74v9q-24 64 -42 70v-5zM393 267q2 -10 23 -19h5v5l-28 18v-4zM420 -375l34 118l70 -39q34 -13 57.5 -20t42.5 -7q32 0 52 12t31 26.5t15 27t4 13.5q-4 22 -16 53 t-65.5 45t-60.5 37t-21 74l32 62l110 -4l-28 -69l32 -21q25 -16 56 -23l42 -24q70 -82 71 -97q0 -3 -1 -4l-1 -2q1 -1 2.5 -10.5t1.5 -20.5q0 -20 -7.5 -45t-24.5 -48l-18 -14q-79 -55 -155 -69q-33 -5 -54 -5q-55 0 -86 5.5t-115 48.5zM730 -307l4 -3l5 3v6zM788 -243h4 l2 5l-1 3z" />
<glyph unicode="&#xc8;" horiz-adv-x="955" d="M0 146v39l10 43l-10 141l15 78l-5 5v5l34 315l-5 15l19 248q-19 29 -24 92l15 53l-10 44v5q3 29 14 29q34 0 39 -44h5v10h5l-15 39v10q0 11 34 24l5 -5h5l20 5l19 -15h5l10 10l218 -14l58 9l195 -9l39 9q68 -16 68 -34q0 -19 43 -19q15 -24 15 -54l-15 -58l5 -121v-5 q-6 -49 -19 -49q-25 0 -29 15v5l19 63l-10 87h-9v-82q0 -28 -20 -54l5 -24l-19 -15h-15l-126 -9l-107 24l-5 -5l-34 5h-29l-20 -5l-38 10q-27 0 -34 -24l38 -209l25 -15q0 10 102 15l43 -5l49 5v-5l49 10l14 -5l112 14l10 -29v-14l34 4l9 -14l-4 -83l14 -58v-15 q0 -27 -53 -77l-29 4l-20 -9l-78 14l-34 -5l-189 30h-10l-39 -15l-43 19q-43 0 -49 -116v-73l24 -5l5 5h5q13 -10 107 -19q128 4 155 19l161 -10l68 15q22 -10 24 -20v-24q39 -1 39 -19v-25q-25 -204 -58 -204l-25 -19l-14 15q39 33 39 102q19 7 19 34l-15 9l-4 -5l4 -4v-25 q-32 -82 -68 -82l-9 9l14 20h-9q-20 -11 -20 -39l-5 -5h-48q-49 0 -49 10l-5 -5h-19l-20 5l-5 -5l-160 10l-19 -5l-34 10q-48 -10 -141 -10h-10l-14 10l-25 -10l-19 14v5l10 15v5h-5l-20 -10q-19 7 -19 15v9l10 15v14l-15 -14v-15q0 -17 19 -39v-14l-14 -15h-10 q-34 0 -87 63zM73 661h5l14 150l-5 5h-9v-10h-5l5 -4v-10l-5 -126v-5zM92 923l10 10v53l5 20l-5 14h-5l-5 -58v-39zM117 646l4 -24h5l5 73l-5 14h-5l-4 -58v-5zM137 1660l4 1l10 -5l-2 -3l-9 -2zM139 1621l2 6l4 -2l-4 -6zM146 913h5q0 71 14 102l-5 15q-14 0 -14 -73v-44z M170 651h5v19h-5v-19zM171 1661l5 8l40 41l-1 4q10 -5 61 63q24 -9 37 -4q6 -5 16 -35l3 -2l5 1l3 -2l15 -22l9 -5l5 8q19 -10 59 -69l17 -12l15 4l12 -7q30 -15 89 -107q4 -49 0 -57l-2 -2l-15 -4l-5 -17l-6 -8q-4 -8 -17 -3l-9 -21l-2 -4q-3 -6 -16 -1q-237 146 -316 214 q-6 4 -2 39zM176 1741v5l1 2l5 2l3 -2l1 -4l-2 -3l-4 -2zM216 1569l5 1l12 -6l3 -10l-3 -5l-4 1q-17 14 -13 19zM296 865l10 -63h5l5 14l-10 54h-10v-5zM442 170h24v5h-24v-5zM690 1244h29v9h-5l-24 -5v-4zM753 1166l5 -5h10l9 10v29l-9 10h-5zM763 257h5l9 10h-5zM811 199 h5v15h-5v-15z" />
<glyph unicode="&#xc9;" horiz-adv-x="955" d="M0 146v39l10 43l-10 141l15 78l-5 5v5l34 315l-5 15l19 248q-19 29 -24 92l15 53l-10 44v5q3 29 14 29q34 0 39 -44h5v10h5l-15 39v10q0 11 34 24l5 -5h5l20 5l19 -15h5l10 10l218 -14l58 9l195 -9l39 9q68 -16 68 -34q0 -19 43 -19q15 -24 15 -54l-15 -58l5 -121v-5 q-6 -49 -19 -49q-25 0 -29 15v5l19 63l-10 87h-9v-82q0 -28 -20 -54l5 -24l-19 -15h-15l-126 -9l-107 24l-5 -5l-34 5h-29l-20 -5l-38 10q-27 0 -34 -24l38 -209l25 -15q0 10 102 15l43 -5l49 5v-5l49 10l14 -5l112 14l10 -29v-14l34 4l9 -14l-4 -83l14 -58v-15 q0 -27 -53 -77l-29 4l-20 -9l-78 14l-34 -5l-189 30h-10l-39 -15l-43 19q-43 0 -49 -116v-73l24 -5l5 5h5q13 -10 107 -19q128 4 155 19l161 -10l68 15q22 -10 24 -20v-24q39 -1 39 -19v-25q-25 -204 -58 -204l-25 -19l-14 15q39 33 39 102q19 7 19 34l-15 9l-4 -5l4 -4v-25 q-32 -82 -68 -82l-9 9l14 20h-9q-20 -11 -20 -39l-5 -5h-48q-49 0 -49 10l-5 -5h-19l-20 5l-5 -5l-160 10l-19 -5l-34 10q-48 -10 -141 -10h-10l-14 10l-25 -10l-19 14v5l10 15v5h-5l-20 -10q-19 7 -19 15v9l10 15v14l-15 -14v-15q0 -17 19 -39v-14l-14 -15h-10 q-34 0 -87 63zM73 661h5l14 150l-5 5h-9v-10h-5l5 -4v-10l-5 -126v-5zM92 923l10 10v53l5 20l-5 14h-5l-5 -58v-39zM117 646l4 -24h5l5 73l-5 14h-5l-4 -58v-5zM146 913h5q0 71 14 102l-5 15q-14 0 -14 -73v-44zM170 651h5v19h-5v-19zM293 1454q-4 8 0 57q59 92 89 107l12 7 l15 -4l17 12q40 59 64 61l9 5l15 22l3 2l5 -1l3 2q10 30 16 35q13 -5 37 4q51 -68 61 -63l-1 -4l40 -41l5 -8q24 -32 -2 -39q-79 -68 -316 -214q-13 -5 -16 1l-2 4l-9 21q-13 -5 -17 3l-6 8l-5 17l-15 4zM296 865l10 -63h5l5 14l-10 54h-10v-5zM442 170h24v5h-24v-5z M690 1244h29v9h-5l-24 -5v-4zM753 1166l5 -5h10l9 10v29l-9 10h-5zM763 257h5l9 10h-5zM811 199h5v15h-5v-15z" />
<glyph unicode="&#xca;" horiz-adv-x="955" d="M0 146v39l10 43l-10 141l15 78l-5 5v5l34 315l-5 15l19 248q-19 29 -24 92l15 53l-10 44v5q3 29 14 29q34 0 39 -44h5v10h5l-15 39v10q0 11 34 24l5 -5h5l20 5l19 -15h5l10 10l218 -14l58 9l195 -9l39 9q68 -16 68 -34q0 -19 43 -19q15 -24 15 -54l-15 -58l5 -121v-5 q-6 -49 -19 -49q-25 0 -29 15v5l19 63l-10 87h-9v-82q0 -28 -20 -54l5 -24l-19 -15h-15l-126 -9l-107 24l-5 -5l-34 5h-29l-20 -5l-38 10q-27 0 -34 -24l38 -209l25 -15q0 10 102 15l43 -5l49 5v-5l49 10l14 -5l112 14l10 -29v-14l34 4l9 -14l-4 -83l14 -58v-15 q0 -27 -53 -77l-29 4l-20 -9l-78 14l-34 -5l-189 30h-10l-39 -15l-43 19q-43 0 -49 -116v-73l24 -5l5 5h5q13 -10 107 -19q128 4 155 19l161 -10l68 15q22 -10 24 -20v-24q39 -1 39 -19v-25q-25 -204 -58 -204l-25 -19l-14 15q39 33 39 102q19 7 19 34l-15 9l-4 -5l4 -4v-25 q-32 -82 -68 -82l-9 9l14 20h-9q-20 -11 -20 -39l-5 -5h-48q-49 0 -49 10l-5 -5h-19l-20 5l-5 -5l-160 10l-19 -5l-34 10q-48 -10 -141 -10h-10l-14 10l-25 -10l-19 14v5l10 15v5h-5l-20 -10q-19 7 -19 15v9l10 15v14l-15 -14v-15q0 -17 19 -39v-14l-14 -15h-10 q-34 0 -87 63zM73 661h5l14 150l-5 5h-9v-10h-5l5 -4v-10l-5 -126v-5zM92 923l10 10v53l5 20l-5 14h-5l-5 -58v-39zM117 646l4 -24h5l5 73l-5 14h-5l-4 -58v-5zM146 913h5q0 71 14 102l-5 15q-14 0 -14 -73v-44zM170 651h5v19h-5v-19zM193 1515q23 22 32 42q32 11 63 61 l42 43q5 0 25 24q69 54 88 54l37 23q28 -26 52 -52t46.5 -53t44.5 -54.5t46 -55.5q15 -9 26 -24l7 -7h-1q6 -8 12.5 -18t6.5 -16v-6q-5 -6 -16 -8l-9 2l-13 -2q-14 2 -14 3l-63 -1l-22 -4q-9 0 -14.5 11t-18.5 33l-3 8q-15 19 -40 44t-59 56q-12 -6 -26 -15.5t-27.5 -24.5 t-24.5 -35.5t-17 -48.5q20 -12 20 -19q-2 -3 -8 -3q-9 0 -22 4l-40 -8q-98 14 -98 25q-12 19 -12 22zM218 1501q6 -8 20 -8q5 0 7 8l-7 4h-20v-4zM275 1575h3l20 19v7l-8 4zM290 1510l15 3v7h-7l-8 -5v-5zM296 865l10 -63h5l5 14l-10 54h-10v-5zM320 1513l5 -3h5q10 3 10 12 v7h-5l-15 -12v-4zM320 1559q18 7 18 16v3h-3q-5 0 -15 -12v-7zM362 1573h11l12 16h-3q0 -8 -14 -8l-6 -5v-3zM416 1615q32 23 32 30h-8q-20 -20 -24 -30zM442 170h24v5h-24v-5zM508 1708l2 -6h5v4l-7 4v-2zM517 1655l6 -3l2 3l-8 6v-6zM517 1699q2 -11 8 -11h2q-3 13 -10 13 v-2zM530 1681q10 -7 10 -17l2 -2h6v5l-18 18v-4zM558 1589q0 -17 42 -35h7q-24 40 -44 40zM641 1507q19 -24 24 -24h12l5 6l-29 20zM690 1244h29v9h-5l-24 -5v-4zM753 1166l5 -5h10l9 10v29l-9 10h-5zM763 257h5l9 10h-5zM811 199h5v15h-5v-15z" />
<glyph unicode="&#xcb;" horiz-adv-x="955" d="M0 146v39l10 43l-10 141l15 78l-5 5v5l34 315l-5 15l19 248q-19 29 -24 92l15 53l-10 44v5q3 29 14 29q34 0 39 -44h5v10h5l-15 39v10q0 11 34 24l5 -5h5l20 5l19 -15h5l10 10l218 -14l58 9l195 -9l39 9q68 -16 68 -34q0 -19 43 -19q15 -24 15 -54l-15 -58l5 -121v-5 q-6 -49 -19 -49q-25 0 -29 15v5l19 63l-10 87h-9v-82q0 -28 -20 -54l5 -24l-19 -15h-15l-126 -9l-107 24l-5 -5l-34 5h-29l-20 -5l-38 10q-27 0 -34 -24l38 -209l25 -15q0 10 102 15l43 -5l49 5v-5l49 10l14 -5l112 14l10 -29v-14l34 4l9 -14l-4 -83l14 -58v-15 q0 -27 -53 -77l-29 4l-20 -9l-78 14l-34 -5l-189 30h-10l-39 -15l-43 19q-43 0 -49 -116v-73l24 -5l5 5h5q13 -10 107 -19q128 4 155 19l161 -10l68 15q22 -10 24 -20v-24q39 -1 39 -19v-25q-25 -204 -58 -204l-25 -19l-14 15q39 33 39 102q19 7 19 34l-15 9l-4 -5l4 -4v-25 q-32 -82 -68 -82l-9 9l14 20h-9q-20 -11 -20 -39l-5 -5h-48q-49 0 -49 10l-5 -5h-19l-20 5l-5 -5l-160 10l-19 -5l-34 10q-48 -10 -141 -10h-10l-14 10l-25 -10l-19 14v5l10 15v5h-5l-20 -10q-19 7 -19 15v9l10 15v14l-15 -14v-15q0 -17 19 -39v-14l-14 -15h-10 q-34 0 -87 63zM73 661h5l14 150l-5 5h-9v-10h-5l5 -4v-10l-5 -126v-5zM92 923l10 10v53l5 20l-5 14h-5l-5 -58v-39zM117 646l4 -24h5l5 73l-5 14h-5l-4 -58v-5zM146 913h5q0 71 14 102l-5 15q-14 0 -14 -73v-44zM170 651h5v19h-5v-19zM183 1640q25 126 147 130 q31 -30 44.5 -49.5t14.5 -28.5l1 -12q0 -44 -30 -75.5t-92 -53.5q-33 0 -49.5 8.5t-17.5 29.5q-16 1 -17 34zM296 865l10 -63h5l5 14l-10 54h-10v-5zM442 170h24v5h-24v-5zM530 1640q27 126 148 130q30 -30 43.5 -49.5t14.5 -28.5l1 -12q0 -44 -29.5 -75.5t-92.5 -53.5 q-33 0 -49.5 8.5t-17.5 29.5q-16 1 -17 34zM690 1244h29v9h-5l-24 -5v-4zM753 1166l5 -5h10l9 10v29l-9 10h-5zM763 257h5l9 10h-5zM811 199h5v15h-5v-15z" />
<glyph unicode="&#xcc;" horiz-adv-x="349" d="M-88 1646l4 1l10 -5l-2 -3l-9 -2zM-86 1607l2 6l4 -2l-4 -6zM-54 1647l5 8l40 41l-1 4q10 -5 61 63q24 -9 37 -4q6 -5 16 -35l3 -2l5 1l3 -2l15 -22l9 -5l5 8q19 -10 59 -69l17 -12l15 4l12 -7q30 -15 89 -107q4 -49 0 -57l-2 -2l-15 -4l-5 -17l-6 -8q-4 -8 -17 -3 l-9 -21l-2 -4q-3 -6 -16 -1q-237 146 -316 214q-6 4 -2 39zM-49 1727v5l1 2l5 2l3 -2l1 -4l-2 -3l-4 -2zM-9 1555l5 1l12 -6l3 -10l-3 -5l-4 1q-17 14 -13 19zM0 48l8 64l-4 16l20 224v24l4 16l-4 16v48l4 20l-4 24l8 148q-12 99 -12 172l4 84q-11 43 -16 308l28 12h4 q16 -5 16 -52h4v36l-4 12l4 4q-6 0 -16 28q0 14 40 28l32 -20q3 12 32 12q20 -7 20 -20l40 4l12 -24l-8 -204l4 -4v-4l-4 -4l8 -120l-8 -140q8 -74 12 -340l-8 -312q-13 -104 -28 -104q-14 0 -32 16l-12 -8h-8l-12 8h-36q-28 -1 -28 -8q-56 0 -56 16zM32 76q0 -31 16 -36h8 l8 8v4q-22 116 -28 116l-4 -88v-4zM56 1140h4v12h-4v-12zM164 1176h4v40h-4v-40z" />
<glyph unicode="&#xcd;" horiz-adv-x="349" d="M-53 1471q-4 8 0 57q59 92 89 107l12 7l15 -4l17 12q40 59 64 61l9 5l15 22l3 2l5 -1l3 2q10 30 16 35q13 -5 37 4q51 -68 61 -63l-1 -4l40 -41l5 -8q24 -32 -2 -39q-79 -68 -316 -214q-13 -5 -16 1l-2 4l-9 21q-13 -5 -17 3l-6 8l-5 17l-15 4zM0 48l8 64l-4 16l20 224 v24l4 16l-4 16v48l4 20l-4 24l8 148q-12 99 -12 172l4 84q-11 43 -16 308l28 12h4q16 -5 16 -52h4v36l-4 12l4 4q-6 0 -16 28q0 14 40 28l32 -20q3 12 32 12q20 -7 20 -20l40 4l12 -24l-8 -204l4 -4v-4l-4 -4l8 -120l-8 -140q8 -74 12 -340l-8 -312q-13 -104 -28 -104 q-14 0 -32 16l-12 -8h-8l-12 8h-36q-28 -1 -28 -8q-56 0 -56 16zM32 76q0 -31 16 -36h8l8 8v4q-22 116 -28 116l-4 -88v-4zM56 1140h4v12h-4v-12zM164 1176h4v40h-4v-40z" />
<glyph unicode="&#xce;" horiz-adv-x="349" d="M-153 1515q23 21 32 42q32 10 63 61l42 43q5 0 25 24q69 54 88 54l35 23h2q29 -26 53 -51.5t46 -52.5t44 -55t46 -56q16 -10 26 -24l7 -7h-1q6 -8 12.5 -18t6.5 -16v-6q-5 -6 -16 -8l-9 2l-13 -2q-14 1 -14 3l-3 -1h-60l-22 -4q-9 0 -14.5 11t-18.5 33l-3 8 q-15 19 -40 44t-59 56q-12 -6 -26 -15.5t-27.5 -24.5t-24.5 -35.5t-17 -48.5q20 -12 20 -19q-3 -7 -30 1l-40 -8q-98 14 -98 25q-12 20 -12 22zM-128 1501q6 -8 20 -8q5 0 7 8l-7 4h-20v-4zM-71 1575h3l20 19v7l-5 4h-3zM-56 1510l15 3v7h-7l-8 -5v-5zM-26 1513l5 -3h5 q10 3 10 12v7h-5l-15 -12v-4zM-26 1559q18 7 18 16v3h-3q-5 0 -15 -12v-7zM0 48l8 64l-4 16l20 224v24l4 16l-4 16v48l4 20l-4 24l8 148q-12 99 -12 172l4 84q-11 43 -16 308l28 12h4q16 -5 16 -52h4v36l-4 12l4 4q-6 0 -16 28q0 14 40 28l32 -20q3 12 32 12q20 -7 20 -20 l40 4l12 -24l-8 -204l4 -4v-4l-4 -4l8 -120l-8 -140q8 -74 12 -340l-8 -312q-13 -104 -28 -104q-14 0 -32 16l-12 -8h-8l-12 8h-36q-28 -1 -28 -8q-56 0 -56 16zM16 1573h11l12 14v2h-3q0 -8 -14 -8l-6 -5v-3zM32 76q0 -31 16 -36h8l8 8v4q-22 116 -28 116l-4 -88v-4z M56 1140h4v12h-4v-12zM70 1615q32 23 32 30h-8q-20 -19 -24 -30zM162 1708l2 -6h5v4l-5 4h-2v-2zM164 1176h4v40h-4v-40zM171 1655l6 -3l2 3l-8 6v-6zM171 1699q2 -11 8 -11h2q-3 13 -10 13v-2zM184 1681q10 -7 10 -17l2 -2h6v5l-18 18v-4zM212 1589q0 -17 42 -35h7 q-24 40 -44 40zM295 1507q19 -24 24 -24h12l5 4v2l-29 20z" />
<glyph unicode="&#xcf;" horiz-adv-x="349" d="M-185 1636q25 126 147 130q31 -30 44.5 -49.5t14.5 -28.5l1 -12q0 -44 -30 -75.5t-92 -53.5q-33 0 -49.5 8.5t-17.5 29.5q-16 1 -17 34zM0 48l8 64l-4 16l20 224v24l4 16l-4 16v48l4 20l-4 24l8 148q-12 99 -12 172l4 84q-11 43 -16 308l28 12h4q16 -5 16 -52h4v36l-4 12 l4 4q-6 0 -16 28q0 14 40 28l32 -20q3 12 32 12q20 -7 20 -20l40 4l12 -24l-8 -204l4 -4v-4l-4 -4l8 -120l-8 -140q8 -74 12 -340l-8 -312q-13 -104 -28 -104q-14 0 -32 16l-12 -8h-8l-12 8h-36q-28 -1 -28 -8q-56 0 -56 16zM32 76q0 -31 16 -36h8l8 8v4q-22 116 -28 116 l-4 -88v-4zM56 1140h4v12h-4v-12zM162 1636q27 126 148 130q30 -30 43.5 -49.5t14.5 -28.5l1 -12q0 -44 -29.5 -75.5t-92.5 -53.5q-33 0 -49.5 8.5t-17.5 29.5q-16 1 -17 34zM164 1176h4v40h-4v-40z" />
<glyph unicode="&#xd0;" horiz-adv-x="1100" d="M-121 624l9 25q-6 2 -6 25q3 15 9 15l-2 31l11 9l88 -6l2 3h1l2 -3l52 6l60 -6q32 6 147 9l135 -6q45 -10 45 -21t-7 -25l4 -9v-7l-4 -9v-28q1 -21 4 -21q0 -43 -7 -43l-11 -4l-27 7l-7 -3l-97 15h-10l-7 3l-7 -3h-21l-9 3l-10 -3l-64 6q-43 -9 -74 -9l-37 3 q-18 -8 -133 -12l-5 21v3q2 13 23 13v3h-16l-5 -3l-2 3q0 -5 -12 -13q-6 0 -12 31zM0 80l10 56v71l19 174l-4 14l19 202q-7 639 -24 639v24l14 14q17 -33 40 -33v5q2 19 14 19q10 -19 25 -19l14 4l30 -4l44 4l15 -4l24 14h20q33 -5 34 -14l5 4h5l171 -65q12 -21 177 -108 q3 -15 117 -76l138 -164l44 -80q34 -77 34 -141q0 -284 -113 -404q-100 -125 -166 -146q-101 -57 -260 -57h-34l-54 -9h-10l-127 14l-15 -5l-103 5h-20q-78 12 -78 42zM200 879l25 -633l-6 -5v-5l6 -21v-15h12q141 0 254 56q61 0 186 123q50 100 50 153v82q0 123 -149 301 q-76 75 -359 138q-19 -18 -19 -61v-113zM301 1139h17v3h-17v-3zM328 1056h5v3h-5v-3zM603 94h10l9 9v5h-5zM730 273l10 9v5h-10v-14zM730 503h5l5 24v117h-5l-5 -136v-5zM753 1040l38 -3h2q13 0 16 13v6l-4 6h-1q-51 -17 -51 -22zM813 809l10 -10v5l-10 9v-4zM853 804h5v9 h-5v-9zM858 851q29 -39 68 -127h5v5q0 18 -64 122h-9zM862 785l15 -14v5l-15 14v-5zM897 329q31 32 49 146v23l-5 24h-5q0 -63 -39 -193zM931 715l10 -76h5l5 24l-15 56h-5v-4z" />
<glyph unicode="&#xd1;" horiz-adv-x="1000" d="M0 1045v96q0 24 15 24l12 -4v4l-12 46q25 31 46 31h31l54 -31l54 -93q37 0 72 -73q11 -5 43 -70q182 -251 318 -492l12 -27h11v20l-7 46l11 62l-4 46l4 12l-4 23q0 285 -11 442l7 124v27q0 10 39 19q80 -11 80 -19l27 4h19q28 0 35 -151l15 -117l-7 -96v-55l3 -89l-3 -35 l19 -193l19 -139q-12 -98 -12 -202v-147q0 -8 -23 -8q0 -37 -103 -42l-19 4l-50 -4q-41 0 -119 143l-54 74q-9 27 -92 162q-13 14 -35 74l-107 209q-12 23 -19 23l-4 -50q0 -116 50 -480v-51q-13 -104 -31 -104h-23l-23 11q-26 0 -42 -11h-8l-30 4l-77 -12q-31 11 -31 39 v344l-4 58l4 47q0 105 -15 151q0 183 -31 426zM58 878l7 -8h4v28l-4 19h-7v-39zM73 611l4 -19h4v23h-8v-4zM130 34l4 -19l12 11v4l-8 8h-8v-4zM161 30l12 -7h4q11 0 11 65h-4q-7 0 -7 -27zM223 1626q0 5 9 22h-1q2 4 1.5 2.5t1.5 2.5l8 18h-1l3 11v-1q2 8 5 16.5t8.5 16.5 t14 14t22.5 9l-1 -1l35 16l11 5h-1q12 5 27 5q1 0 2 -0.5t2 -0.5h4q8 0 15 -0.5t15 -3.5l35 -14q13 -23 29.5 -45.5t34 -41.5t35.5 -30.5t33 -11.5q5 0 13.5 2.5t17 7.5t14.5 13t6 19q0 6 -2.5 16t-5.5 21l-17 21l80 51l13 -19q10 -14 15 -29t9 -29q0 -2 1 -4.5t4 -10.5 q-3 -9 -7 -18.5t-10 -20.5q-2 -30 -20 -54.5t-47 -44.5l-17 -8v1q-11 -6 -20 -7.5t-18 -1.5h-8q-20 0 -33 3t-21 5q-18 2 -59 47l-5 8l-10 11l-11 14q0 8 -4 16.5t-10 20.5v-1l-17 22q-8 11 -25 11q-25 0 -44 -17t-19 -37q0 -8 10 -31l-1 1q1 -2 6 -6.5t11 -8.5l9 -9 l-92 -48l-18 28q-7 11 -11 35t-4 43zM226 359q4 -73 20 -73h3l4 19q-11 24 -15 78h-8zM226 406l4 -12l8 8v4l-4 19h-4zM261 46h8l3 46v58l-3 27l-8 -7v-124zM292 723q0 -12 27 -46l26 -54h4v15q-22 81 -42 97h-15v-12zM388 534l3 -16h4v16h-7zM549 255q0 -31 50 -101 q33 -60 42 -62h4v4q0 12 -46 85l-46 78h-4v-4zM649 81l3 -12l8 8l-11 8v-4zM695 1145l7 -7q0 6 27 19v4q-3 86 -23 89q-11 -14 -11 -27v-78zM741 96l3 -11l8 7v16h-4q-7 0 -7 -12zM802 1006q3 -66 15 -66h8v12q0 88 -11 205h-8l-4 -16l4 -34zM825 65h4v16h-4v-16zM837 448 l11 -11v23l-4 27h-7v-39z" />
<glyph unicode="&#xd2;" horiz-adv-x="1407" d="M0 672q0 90 45 258q0 26 45 84q14 37 60 94q31 43 81 75q1 8 45 27q19 51 195 102h25l25 -4l95 9h20q51 -1 51 -9l15 4q110 -13 170 -53l85 -40q142 -115 236 -236q70 -118 70 -204q10 0 15 -94q0 -115 -70 -329q0 -19 -50 -98q-145 -169 -166 -169q-115 -79 -190 -93 q-73 -36 -181 -36l-150 36q-95 26 -145 53l-90 53q-93 71 -146 205q-90 201 -90 365zM45 605h5v31h-5v-31zM80 436l5 -22h10l5 26l-10 63h-5l-5 -45v-22zM150 329q0 -35 30 -35h10l10 9l-5 62h-5q0 -40 -15 -40h-5l-20 13v-9zM165 489l5 -75h5v84zM170 645l20 -18 q10 36 10 94h-10l-20 -71v-5zM210 187l10 -9l6 4v5l-6 4h-10v-4zM236 601q0 -140 100 -258q168 -161 315 -161l41 5l30 -5l60 14l15 -5q65 25 145 116q0 13 20 13q95 143 95 289v32q0 170 -65 240q-20 44 -55 44q-34 0 -65 49q-113 120 -145 120q-47 14 -86 14h-20l-55 -5 l-25 5q-155 -43 -230 -174q-75 -195 -75 -293v-40zM276 329h5v14h-5v-14zM296 222l10 -8l5 4v4l-5 14h-10v-14zM301 1170h5q20 7 20 31h-5l-20 -18v-13zM417 1635l4 1l10 -5l-2 -3l-9 -2zM419 1596l2 6l4 -2l-4 -6zM451 1636l5 8l40 41l-1 4q10 -5 61 63q24 -9 37 -4 q6 -5 16 -35l3 -2l5 1l3 -2l15 -22l9 -5l5 8q19 -10 59 -69l17 -12l15 4l12 -7q30 -15 89 -107q4 -49 0 -57l-2 -2l-15 -4l-5 -17l-6 -8q-4 -8 -17 -3l-9 -21l-2 -4q-3 -6 -16 -1q-237 146 -316 214q-6 4 -2 39zM456 1716v5l1 2l5 2l3 -2l1 -4l-2 -3l-4 -2zM496 1544l5 1 l12 -6l3 -10l-3 -5l-4 1q-17 14 -13 19zM757 36h10q40 0 40 31h-15l-35 -27v-4zM832 147h10l10 9v9h-20v-18zM1007 160q46 21 70 80l-5 31l-10 -8v-41q-11 0 -55 -48v-14zM1117 979q50 -77 66 -116l-5 -44q18 -4 35 -58h5l5 4v5q0 102 -101 218l-5 -5v-4zM1233 681h5v26h-5 v-26z" />
<glyph unicode="&#xd3;" horiz-adv-x="1407" d="M0 672q0 90 45 258q0 26 45 84q14 37 60 94q31 43 81 75q1 8 45 27q19 51 195 102h25l25 -4l95 9h20q51 -1 51 -9l15 4q110 -13 170 -53l85 -40q142 -115 236 -236q70 -118 70 -204q10 0 15 -94q0 -115 -70 -329q0 -19 -50 -98q-145 -169 -166 -169q-115 -79 -190 -93 q-73 -36 -181 -36l-150 36q-95 26 -145 53l-90 53q-93 71 -146 205q-90 201 -90 365zM45 605h5v31h-5v-31zM80 436l5 -22h10l5 26l-10 63h-5l-5 -45v-22zM150 329q0 -35 30 -35h10l10 9l-5 62h-5q0 -40 -15 -40h-5l-20 13v-9zM165 489l5 -75h5v84zM170 645l20 -18 q10 36 10 94h-10l-20 -71v-5zM210 187l10 -9l6 4v5l-6 4h-10v-4zM236 601q0 -140 100 -258q168 -161 315 -161l41 5l30 -5l60 14l15 -5q65 25 145 116q0 13 20 13q95 143 95 289v32q0 170 -65 240q-20 44 -55 44q-34 0 -65 49q-113 120 -145 120q-47 14 -86 14h-20l-55 -5 l-25 5q-155 -43 -230 -174q-75 -195 -75 -293v-40zM276 329h5v14h-5v-14zM296 222l10 -8l5 4v4l-5 14h-10v-14zM301 1170h5q20 7 20 31h-5l-20 -18v-13zM450 1454q-4 8 0 57q59 92 89 107l12 7l15 -4l17 12q40 59 64 61l9 5l15 22l3 2l5 -1l3 2q10 30 16 35q13 -5 37 4 q51 -68 61 -63l-1 -4l40 -41l5 -8q24 -32 -2 -39q-79 -68 -316 -214q-13 -5 -16 1l-2 4l-9 21q-13 -5 -17 3l-6 8l-5 17l-15 4zM757 36h10q40 0 40 31h-15l-35 -27v-4zM832 147h10l10 9v9h-20v-18zM1007 160q46 21 70 80l-5 31l-10 -8v-41q-11 0 -55 -48v-14zM1117 979 q50 -77 66 -116l-5 -44q18 -4 35 -58h5l5 4v5q0 102 -101 218l-5 -5v-4zM1233 681h5v26h-5v-26z" />
<glyph unicode="&#xd4;" horiz-adv-x="1407" d="M0 672q0 90 45 258q0 26 45 84q14 37 60 94q31 43 81 75q1 8 45 27q19 51 195 102h25l25 -4l95 9h20q51 -1 51 -9l15 4q110 -13 170 -53l85 -40q142 -115 236 -236q70 -118 70 -204q10 0 15 -94q0 -115 -70 -329q0 -19 -50 -98q-145 -169 -166 -169q-115 -79 -190 -93 q-73 -36 -181 -36l-150 36q-95 26 -145 53l-90 53q-93 71 -146 205q-90 201 -90 365zM45 605h5v31h-5v-31zM80 436l5 -22h10l5 26l-10 63h-5l-5 -45v-22zM150 329q0 -35 30 -35h10l10 9l-5 62h-5q0 -40 -15 -40h-5l-20 13v-9zM165 489l5 -75h5v84zM170 645l20 -18 q10 36 10 94h-10l-20 -71v-5zM210 187l10 -9l6 4v5l-6 4h-10v-4zM236 601q0 -140 100 -258q168 -161 315 -161l41 5l30 -5l60 14l15 -5q65 25 145 116q0 13 20 13q95 143 95 289v32q0 170 -65 240q-20 44 -55 44q-34 0 -65 49q-113 120 -145 120q-47 14 -86 14h-20l-55 -5 l-25 5q-155 -43 -230 -174q-75 -195 -75 -293v-40zM276 329h5v14h-5v-14zM296 222l10 -8l5 4v4l-5 14h-10v-14zM301 1170h5q20 7 20 31h-5l-20 -18v-13zM391 1519q23 22 32 42q32 11 63 61l42 43q5 0 25 24q69 54 88 54l37 23q28 -26 52 -52t46.5 -53t44.5 -54.5t46 -55.5 q15 -9 26 -24l7 -7h-1q6 -8 12.5 -18t6.5 -16v-6q-5 -6 -16 -8l-9 2l-13 -2q-14 2 -14 3l-63 -1l-22 -4q-9 0 -14.5 11t-18.5 33l-3 8q-15 19 -40 44t-59 56q-12 -6 -26 -15.5t-27.5 -24.5t-24.5 -35.5t-17 -48.5q20 -12 20 -19q-2 -3 -8 -3q-9 0 -22 4l-40 -8 q-98 14 -98 25q-12 19 -12 22zM416 1505q6 -8 20 -8q5 0 7 8l-7 4h-20v-4zM473 1579h3l20 19v7l-8 4zM488 1514l15 3v7h-7l-8 -5v-5zM518 1517l5 -3h5q10 3 10 12v7h-5l-15 -12v-4zM518 1563q18 7 18 16v3h-3q-5 0 -15 -12v-7zM560 1577h11l12 16h-3q0 -8 -14 -8l-6 -5v-3z M614 1619q32 23 32 30h-8q-20 -20 -24 -30zM706 1712l2 -6h5v4l-7 4v-2zM715 1659l6 -3l2 3l-8 6v-6zM715 1703q2 -11 8 -11h2q-3 13 -10 13v-2zM728 1685q10 -7 10 -17l2 -2h6v5l-18 18v-4zM756 1593q0 -17 42 -35h7q-24 40 -44 40zM757 36h10q40 0 40 31h-15l-35 -27v-4z M832 147h10l10 9v9h-20v-18zM839 1511q19 -24 24 -24h12l5 6l-29 20zM1007 160q46 21 70 80l-5 31l-10 -8v-41q-11 0 -55 -48v-14zM1117 979q50 -77 66 -116l-5 -44q18 -4 35 -58h5l5 4v5q0 102 -101 218l-5 -5v-4zM1233 681h5v26h-5v-26z" />
<glyph unicode="&#xd5;" horiz-adv-x="1407" d="M0 672q0 90 45 258q0 26 45 84q14 37 60 94q31 43 81 75q1 8 45 27q19 51 195 102h25l25 -4l95 9h20q51 -1 51 -9l15 4q110 -13 170 -53l85 -40q142 -115 236 -236q70 -118 70 -204q10 0 15 -94q0 -115 -70 -329q0 -19 -50 -98q-145 -169 -166 -169q-115 -79 -190 -93 q-73 -36 -181 -36l-150 36q-95 26 -145 53l-90 53q-93 71 -146 205q-90 201 -90 365zM45 605h5v31h-5v-31zM80 436l5 -22h10l5 26l-10 63h-5l-5 -45v-22zM150 329q0 -35 30 -35h10l10 9l-5 62h-5q0 -40 -15 -40h-5l-20 13v-9zM165 489l5 -75h5v84zM170 645l20 -18 q10 36 10 94h-10l-20 -71v-5zM210 187l10 -9l6 4v5l-6 4h-10v-4zM236 601q0 -140 100 -258q168 -161 315 -161l41 5l30 -5l60 14l15 -5q65 25 145 116q0 13 20 13q95 143 95 289v32q0 170 -65 240q-20 44 -55 44q-34 0 -65 49q-113 120 -145 120q-47 14 -86 14h-20l-55 -5 l-25 5q-155 -43 -230 -174q-75 -195 -75 -293v-40zM276 329h5v14h-5v-14zM296 222l10 -8l5 4v4l-5 14h-10v-14zM301 1170h5q20 7 20 31h-5l-20 -18v-13zM384 1631q0 5 9 22h-1q2 4 1.5 2.5t1.5 2.5l8 18h-1l3 11v-1q2 8 5 16.5t8.5 16.5t14 14t22.5 9l-1 -1l35 16l11 5h-1 q12 5 27 5q1 0 2 -0.5t2 -0.5h4q8 0 15 -0.5t15 -3.5l35 -14q13 -23 29.5 -45.5t34 -41.5t35.5 -30.5t33 -11.5q5 0 13.5 2.5t17 7.5t14.5 13t6 19q0 6 -2.5 16t-5.5 21l-17 21l80 51l13 -19q10 -14 15 -29t9 -29q0 -2 1 -4.5t4 -10.5q-3 -9 -7 -18.5t-10 -20.5 q-2 -30 -20 -54.5t-47 -44.5l-17 -8v1q-11 -6 -20 -7.5t-18 -1.5h-8q-20 0 -33 3t-21 5q-18 2 -59 47l-5 8l-10 11l-11 14q0 8 -4 16.5t-10 20.5v-1l-17 22q-8 11 -25 11q-25 0 -44 -17t-19 -37q0 -8 10 -31l-1 1q1 -2 6 -6.5t11 -8.5l9 -9l-92 -48l-18 28q-7 11 -11 35 t-4 43zM757 36h10q40 0 40 31h-15l-35 -27v-4zM832 147h10l10 9v9h-20v-18zM1007 160q46 21 70 80l-5 31l-10 -8v-41q-11 0 -55 -48v-14zM1117 979q50 -77 66 -116l-5 -44q18 -4 35 -58h5l5 4v5q0 102 -101 218l-5 -5v-4zM1233 681h5v26h-5v-26z" />
<glyph unicode="&#xd6;" horiz-adv-x="1407" d="M0 672q0 90 45 258q0 26 45 84q14 37 60 94q31 43 81 75q1 8 45 27q19 51 195 102h25l25 -4l95 9h20q51 -1 51 -9l15 4q110 -13 170 -53l85 -40q142 -115 236 -236q70 -118 70 -204q10 0 15 -94q0 -115 -70 -329q0 -19 -50 -98q-145 -169 -166 -169q-115 -79 -190 -93 q-73 -36 -181 -36l-150 36q-95 26 -145 53l-90 53q-93 71 -146 205q-90 201 -90 365zM45 605h5v31h-5v-31zM80 436l5 -22h10l5 26l-10 63h-5l-5 -45v-22zM150 329q0 -35 30 -35h10l10 9l-5 62h-5q0 -40 -15 -40h-5l-20 13v-9zM165 489l5 -75h5v84zM170 645l20 -18 q10 36 10 94h-10l-20 -71v-5zM210 187l10 -9l6 4v5l-6 4h-10v-4zM236 601q0 -140 100 -258q168 -161 315 -161l41 5l30 -5l60 14l15 -5q65 25 145 116q0 13 20 13q95 143 95 289v32q0 170 -65 240q-20 44 -55 44q-34 0 -65 49q-113 120 -145 120q-47 14 -86 14h-20l-55 -5 l-25 5q-155 -43 -230 -174q-75 -195 -75 -293v-40zM276 329h5v14h-5v-14zM296 222l10 -8l5 4v4l-5 14h-10v-14zM301 1170h5q20 7 20 31h-5l-20 -18v-13zM356 1636q25 126 147 130q31 -30 44.5 -49.5t14.5 -28.5l1 -12q0 -44 -30 -75.5t-92 -53.5q-33 0 -49.5 8.5t-17.5 29.5 q-16 1 -17 34zM703 1636q27 126 148 130q30 -30 43.5 -49.5t14.5 -28.5l1 -12q0 -44 -29.5 -75.5t-92.5 -53.5q-33 0 -49.5 8.5t-17.5 29.5q-16 1 -17 34zM757 36h10q40 0 40 31h-15l-35 -27v-4zM832 147h10l10 9v9h-20v-18zM1007 160q46 21 70 80l-5 31l-10 -8v-41 q-11 0 -55 -48v-14zM1117 979q50 -77 66 -116l-5 -44q18 -4 35 -58h5l5 4v5q0 102 -101 218l-5 -5v-4zM1233 681h5v26h-5v-26z" />
<glyph unicode="&#xd7;" horiz-adv-x="1707" />
<glyph unicode="&#xd8;" horiz-adv-x="1407" d="M0 672q0 90 45 258q0 26 45 84q14 37 60 94q31 43 81 75q1 8 45 27q19 51 195 102h25l25 -4l95 9h20q51 -1 51 -9l15 4q110 -13 170 -53l85 -40q142 -115 236 -236q70 -118 70 -204q10 0 15 -94q0 -115 -70 -329q0 -19 -50 -98q-145 -169 -166 -169q-115 -79 -190 -93 q-73 -36 -181 -36l-150 36q-95 26 -145 53l-90 53q-93 71 -146 205q-90 201 -90 365zM45 605h5v31h-5v-31zM80 436l5 -22h10l5 26l-10 63h-5l-5 -45v-22zM150 329q0 -35 30 -35h10l10 9l-5 62h-5q0 -40 -15 -40h-5l-20 13v-9zM165 489l5 -75h5v84zM170 645l20 -18 q10 36 10 94h-10l-20 -71v-5zM210 187l10 -9l6 4v5l-6 4h-10v-4zM236 601q0 -140 100 -258q168 -161 315 -161l41 5l30 -5l60 14l15 -5q65 25 145 116q0 13 20 13q95 143 95 289v32q0 170 -65 240q-20 44 -55 44q-34 0 -65 49q-113 120 -145 120q-47 14 -86 14h-20l-55 -5 l-25 5q-155 -43 -230 -174q-75 -195 -75 -293v-40zM249 -301l9 36l39 88l5 25l131 313l12 35l12 22l5 24l25 69l13 26l9 37l82 208q39 146 75 251l47 119q12 65 142 446l31 8l4 -2q12 -12 -12 -80l4 -1l18 51l2 19l6 4q-6 2 -1 46q8 19 52 27l18 -40q8 16 35 6q15 -16 8 -35 l39 -8l-1 -39l-112 -289l2 -6l-2 -7l-6 -3l-54 -175l-78 -197q-29 -110 -161 -492l-165 -444q-65 -144 -79 -139q-12 5 -20 34l-15 -8l-7 3l-8 16l-31 11q-27 9 -30 -1q-51 19 -43 42zM276 329h5v14h-5v-14zM296 222l10 -8l5 4v4l-5 14h-10v-14zM297 -293l7 -3l11 9l3 6 q38 173 33 176l-48 -126l-2 -5q-16 -44 -4 -57zM301 1170h5q20 7 20 31h-5l-20 -18v-13zM757 36h10q40 0 40 31h-15l-35 -27v-4zM832 147h10l10 9v9h-20v-18zM862 1279l4 -2l6 18l-4 1zM978 1294l4 -1l19 56l-3 1zM1007 160q46 21 70 80l-5 31l-10 -8v-41q-11 0 -55 -48v-14 zM1117 979q50 -77 66 -116l-5 -44q18 -4 35 -58h5l5 4v5q0 102 -101 218l-5 -5v-4zM1233 681h5v26h-5v-26z" />
<glyph unicode="&#xd9;" horiz-adv-x="1000" d="M0 1212q5 36 16 36l20 -4v8h8v-16l24 8l40 -4l48 8q56 -4 56 -28h4q0 40 12 40l20 -24l-4 -80v-88l4 -100l-8 -76v-24l-4 -16q27 -169 56 -448q25 -86 104 -164q37 -16 92 -16t112 60q29 0 64 128l-4 4v4l-16 276l4 24l-12 108l4 56v44q-28 159 -28 200q0 88 28 88 q0 6 36 16l72 -8l20 8l28 -4q16 0 16 16l36 4l16 -20v-12l-12 -48q0 -219 44 -432l20 -204l-12 -92v-12q0 -172 -28 -204q-72 -123 -124 -136q-49 -36 -216 -72l-12 -4h-8l-12 8h-4l-64 -20h-12q-195 43 -240 92q-164 135 -164 404q0 102 8 164l-16 180v8h4l-4 100v148 q0 57 -12 116zM100 1184l4 -12h4l8 8v20h-4zM104 560h8v20h-8v-20zM172 272l32 -140h16v4q0 42 -44 156h-4v-20zM212 1012h4l4 64l-4 16v12l4 16l-4 16v12l4 16l-4 24h-4v-176zM216 1204h4v12h-4v-12zM220 1651l4 1l10 -5l-2 -3l-9 -2zM222 1612l1 6l5 -2l-4 -6zM252 440 l20 -92h4v4l-20 92h-4v-4zM252 1629q0 5 0.5 10.5t1.5 12.5l5 8l40 41l-1 4h1q12 0 60 63q15 -6 26 -6q5 0 11 2q5 -4 16 -35l3 -2l5 1l18 -24l9 -5l5 8q18 -10 59 -69l17 -12l15 4l12 -7q3 -2 18 -14t31 -32t29 -45.5t13 -54.5q0 -14 -2 -18l-17 -6l-5 -17l-6 -8 q-3 -5 -9 -5q-2 0 -8 2l-11 -25q-2 -3 -6 -3q-6 0 -10 2q-61 37 -118.5 73t-102.5 66.5t-72 54t-27 36.5zM259 1732v5l1 2l5 2l4 -6l-6 -5zM288 188q14 -28 20 -28h8v4q0 20 -28 44v-20zM298 1558q0 1 1 2l5 1l12 -6l3 -10l-3 -5l-4 1q-14 11 -14 17zM396 128l44 -12l4 4v4 l-28 20q0 -8 -16 -8l-4 -4v-4zM456 56l4 -4h4v12zM480 56l8 -8h8l8 8v8q0 8 -12 8l-12 -4v-12zM652 1108q9 -88 24 -88v96l16 64v4l-20 4q-20 -9 -20 -60v-20zM684 804l20 -104h4v20l-4 92l-12 8zM732 1180l8 -48h4q12 4 12 24v24l-12 12h-8zM740 536h4v12h-4v-12zM788 608 q16 -46 16 -68l8 8q-7 174 -16 200h-8v-68l4 -32l-4 -32v-8zM812 348l4 -20h8l8 60v4l-4 20q-16 0 -16 -56v-8zM820 1088h4l4 32l-4 24v8l4 16v4h-4l-4 -20v-64zM824 1028h4v8h-4v-8zM824 1072h4v8h-4v-8zM836 872q36 -166 36 -236l4 -76h4l4 28l-4 24v8l4 12q0 93 -44 248 h-4v-8zM872 396h4l4 68v8h-4l-4 -40v-36zM880 540h4v8h-4v-8z" />
<glyph unicode="&#xda;" horiz-adv-x="1000" d="M0 1212q5 36 16 36l20 -4v8h8v-16l24 8l40 -4l48 8q56 -4 56 -28h4q0 40 12 40l20 -24l-4 -80v-88l4 -100l-8 -76v-24l-4 -16q27 -169 56 -448q25 -86 104 -164q37 -16 92 -16t112 60q29 0 64 128l-4 4v4l-16 276l4 24l-12 108l4 56v44q-28 159 -28 200q0 88 28 88 q0 6 36 16l72 -8l20 8l28 -4q16 0 16 16l36 4l16 -20v-12l-12 -48q0 -219 44 -432l20 -204l-12 -92v-12q0 -172 -28 -204q-72 -123 -124 -136q-49 -36 -216 -72l-12 -4h-8l-12 8h-4l-64 -20h-12q-195 43 -240 92q-164 135 -164 404q0 102 8 164l-16 180v8h4l-4 100v148 q0 57 -12 116zM100 1184l4 -12h4l8 8v20h-4zM104 560h8v20h-8v-20zM172 272l32 -140h16v4q0 42 -44 156h-4v-20zM212 1012h4l4 64l-4 16v12l4 16l-4 16v12l4 16l-4 24h-4v-176zM216 1204h4v12h-4v-12zM252 440l20 -92h4v4l-20 92h-4v-4zM265 1471q-4 8 0 57q59 92 89 107 l12 7l15 -4l17 12q40 59 64 61l9 5l15 22l3 2l5 -1l3 2q10 30 16 35q13 -5 37 4q51 -68 61 -63l-1 -4l40 -41l5 -8q24 -32 -2 -39q-79 -68 -316 -214q-13 -5 -16 1l-2 4l-9 21q-13 -5 -17 3l-6 8l-5 17l-15 4zM288 188q14 -28 20 -28h8v4q0 20 -28 44v-20zM396 128l44 -12 l4 4v4l-28 20q0 -8 -16 -8l-4 -4v-4zM456 56l4 -4h4v12zM480 56l8 -8h8l8 8v8q0 8 -12 8l-12 -4v-12zM652 1108q9 -88 24 -88v96l16 64v4l-20 4q-20 -9 -20 -60v-20zM684 804l20 -104h4v20l-4 92l-12 8zM732 1180l8 -48h4q12 4 12 24v24l-12 12h-8zM740 536h4v12h-4v-12z M788 608q16 -46 16 -68l8 8q-7 174 -16 200h-8v-68l4 -32l-4 -32v-8zM812 348l4 -20h8l8 60v4l-4 20q-16 0 -16 -56v-8zM820 1088h4l4 32l-4 24v8l4 16v4h-4l-4 -20v-64zM824 1028h4v8h-4v-8zM824 1072h4v8h-4v-8zM836 872q36 -166 36 -236l4 -76h4l4 28l-4 24v8l4 12 q0 93 -44 248h-4v-8zM872 396h4l4 68v8h-4l-4 -40v-36zM880 540h4v8h-4v-8z" />
<glyph unicode="&#xdb;" horiz-adv-x="1000" d="M0 1212q5 36 16 36l20 -4v8h8v-16l24 8l40 -4l48 8q56 -4 56 -28h4q0 40 12 40l20 -24l-4 -80v-88l4 -100l-8 -76v-24l-4 -16q27 -169 56 -448q25 -86 104 -164q37 -16 92 -16t112 60q29 0 64 128l-4 4v4l-16 276l4 24l-12 108l4 56v44q-28 159 -28 200q0 88 28 88 q0 6 36 16l72 -8l20 8l28 -4q16 0 16 16l36 4l16 -20v-12l-12 -48q0 -219 44 -432l20 -204l-12 -92v-12q0 -172 -28 -204q-72 -123 -124 -136q-49 -36 -216 -72l-12 -4h-8l-12 8h-4l-64 -20h-12q-195 43 -240 92q-164 135 -164 404q0 102 8 164l-16 180v8h4l-4 100v148 q0 57 -12 116zM100 1184l4 -12h4l8 8v20h-4zM104 560h8v20h-8v-20zM172 272l32 -140h16v4q0 42 -44 156h-4v-20zM180 1520q23 22 32 42q32 11 63 61l42 43q5 0 25 24q69 54 88 54l37 23q28 -26 52 -52t46.5 -53t44.5 -54.5t46 -55.5q15 -9 26 -24l7 -7h-1q6 -8 12.5 -18 t6.5 -16v-6q-5 -6 -16 -8l-9 2l-13 -2q-14 2 -14 3l-63 -1l-22 -4q-9 0 -14.5 11t-18.5 33l-3 8q-15 19 -40 44t-59 56q-12 -6 -26 -15.5t-27.5 -24.5t-24.5 -35.5t-17 -48.5q20 -12 20 -19q-2 -3 -8 -3q-9 0 -22 4l-40 -8q-98 14 -98 25q-12 19 -12 22zM205 1506 q6 -8 20 -8q5 0 7 8l-7 4h-20v-4zM212 1012h4l4 64l-4 16v12l4 16l-4 16v12l4 16l-4 24h-4v-176zM216 1204h4v12h-4v-12zM252 440l20 -92h4v4l-20 92h-4v-4zM262 1580h3l20 19v7l-8 4zM277 1515l15 3v7h-7l-8 -5v-5zM288 188q14 -28 20 -28h8v4q0 20 -28 44v-20zM307 1518 l5 -3h5q10 3 10 12v7h-5l-15 -12v-4zM307 1564q18 7 18 16v3h-3q-5 0 -15 -12v-7zM349 1578h11l12 16h-3q0 -8 -14 -8l-6 -5v-3zM396 128l44 -12l4 4v4l-28 20q0 -8 -16 -8l-4 -4v-4zM403 1620q32 23 32 30h-8q-20 -20 -24 -30zM456 56l4 -4h4v12zM480 56l8 -8h8l8 8v8 q0 8 -12 8l-12 -4v-12zM495 1713l2 -6h5v4l-7 4v-2zM504 1660l6 -3l2 3l-8 6v-6zM504 1704q2 -11 8 -11h2q-3 13 -10 13v-2zM517 1686q10 -7 10 -17l2 -2h6v5l-18 18v-4zM545 1594q0 -17 42 -35h7q-24 40 -44 40zM628 1512q19 -24 24 -24h12l5 6l-29 20zM652 1108 q9 -88 24 -88v96l16 64v4l-20 4q-20 -9 -20 -60v-20zM684 804l20 -104h4v20l-4 92l-12 8zM732 1180l8 -48h4q12 4 12 24v24l-12 12h-8zM740 536h4v12h-4v-12zM788 608q16 -46 16 -68l8 8q-7 174 -16 200h-8v-68l4 -32l-4 -32v-8zM812 348l4 -20h8l8 60v4l-4 20 q-16 0 -16 -56v-8zM820 1088h4l4 32l-4 24v8l4 16v4h-4l-4 -20v-64zM824 1028h4v8h-4v-8zM824 1072h4v8h-4v-8zM836 872q36 -166 36 -236l4 -76h4l4 28l-4 24v8l4 12q0 93 -44 248h-4v-8zM872 396h4l4 68v8h-4l-4 -40v-36zM880 540h4v8h-4v-8z" />
<glyph unicode="&#xdc;" horiz-adv-x="1000" d="M0 1212q5 36 16 36l20 -4v8h8v-16l24 8l40 -4l48 8q56 -4 56 -28h4q0 40 12 40l20 -24l-4 -80v-88l4 -100l-8 -76v-24l-4 -16q27 -169 56 -448q25 -86 104 -164q37 -16 92 -16t112 60q29 0 64 128l-4 4v4l-16 276l4 24l-12 108l4 56v44q-28 159 -28 200q0 88 28 88 q0 6 36 16l72 -8l20 8l28 -4q16 0 16 16l36 4l16 -20v-12l-12 -48q0 -219 44 -432l20 -204l-12 -92v-12q0 -172 -28 -204q-72 -123 -124 -136q-49 -36 -216 -72l-12 -4h-8l-12 8h-4l-64 -20h-12q-195 43 -240 92q-164 135 -164 404q0 102 8 164l-16 180v8h4l-4 100v148 q0 57 -12 116zM100 1184l4 -12h4l8 8v20h-4zM104 560h8v20h-8v-20zM153 1637q25 126 147 130q31 -30 44.5 -49.5t14.5 -28.5l1 -12q0 -44 -30 -75.5t-92 -53.5q-33 0 -49.5 8.5t-17.5 29.5q-16 1 -17 34zM172 272l32 -140h16v4q0 42 -44 156h-4v-20zM212 1012h4l4 64l-4 16 v12l4 16l-4 16v12l4 16l-4 24h-4v-176zM216 1204h4v12h-4v-12zM252 440l20 -92h4v4l-20 92h-4v-4zM288 188q14 -28 20 -28h8v4q0 20 -28 44v-20zM396 128l44 -12l4 4v4l-28 20q0 -8 -16 -8l-4 -4v-4zM456 56l4 -4h4v12zM480 56l8 -8h8l8 8v8q0 8 -12 8l-12 -4v-12zM500 1637 q27 126 148 130q30 -30 43.5 -49.5t14.5 -28.5l1 -12q0 -44 -29.5 -75.5t-92.5 -53.5q-33 0 -49.5 8.5t-17.5 29.5q-16 1 -17 34zM652 1108q9 -88 24 -88v96l16 64v4l-20 4q-20 -9 -20 -60v-20zM684 804l20 -104h4v20l-4 92l-12 8zM732 1180l8 -48h4q12 4 12 24v24l-12 12 h-8zM740 536h4v12h-4v-12zM788 608q16 -46 16 -68l8 8q-7 174 -16 200h-8v-68l4 -32l-4 -32v-8zM812 348l4 -20h8l8 60v4l-4 20q-16 0 -16 -56v-8zM820 1088h4l4 32l-4 24v8l4 16v4h-4l-4 -20v-64zM824 1028h4v8h-4v-8zM824 1072h4v8h-4v-8zM836 872q36 -166 36 -236l4 -76 h4l4 28l-4 24v8l4 12q0 93 -44 248h-4v-8zM872 396h4l4 68v8h-4l-4 -40v-36zM880 540h4v8h-4v-8z" />
<glyph unicode="&#xdd;" horiz-adv-x="1066" d="M-20 1262l11 14h7q13 0 41 -18l55 7l11 -3l23 7l3 -4l19 8q42 0 77 -107q37 -37 78 -144q52 -100 99 -126q0 -15 33 -33h4l70 67q90 73 107 95q8 0 30 30q104 89 118 89q38 45 85 77l18 7q32 -11 107 -22q27 -17 70 -29l7 -30q0 -30 -99 -125q0 -7 -67 -63l-118 -122 q-31 -50 -114 -110q0 -7 -41 -30q-62 -48 -62 -66l-26 -421l4 -33v-155q18 -3 18 -11v-4l-7 -7h-4q-7 0 -7 18h-8l-37 -11l-7 -7q-31 8 -41 22h-7l-37 -22l-15 22h-11q-6 0 -14 -22h-45l-7 7v19h7q0 -10 33 -15l8 7q-22 31 -22 41q10 19 26 210l-4 4v4l4 18l-4 33 q7 191 37 310q-33 70 -100 166q-11 0 -11 22q-96 134 -96 159q-23 13 -51 85q-23 37 -34 37q-27 8 -48 62q-21 20 -36 48q-25 0 -30 45zM312 100v14l7 8h4v-15l-7 -7h-4zM343 1463q-4 8 0 57q59 92 89 107l12 7l15 -4l17 12q40 59 64 61l9 5l15 22l3 2l5 -1l3 2q10 30 16 35 q13 -5 37 4q51 -68 61 -63l-1 -4l40 -41l5 -8q24 -32 -2 -39q-79 -68 -316 -214q-13 -5 -16 1l-2 4l-9 21q-13 -5 -17 3l-6 8l-5 17l-15 4zM353 771q41 -63 59 -103h7q7 0 7 11q-33 76 -70 103h-3v-11zM865 1144h8v3l-8 8v-11zM913 1158q5 -18 11 -18l11 11v15l-7 7h-4 l-3 -4l-4 -11h-4z" />
<glyph unicode="&#xde;" horiz-adv-x="1707" />
<glyph unicode="&#xdf;" horiz-adv-x="1707" />
<glyph unicode="&#xe0;" horiz-adv-x="857" d="M6 294q0 219 153 352q113 83 206 95h37q71 0 152 -53q0 32 29 32q0 21 17 21l37 -11l21 11l20 -6l33 11l8 -16l-4 -21l13 -336v-53l12 -173l-4 -32l4 -42v-37q0 -16 -25 -16q0 -26 -66 -26l-29 5l-24 -5l-17 37l4 21l-12 21q-76 -79 -206 -79l-4 5h-4l-17 -5 q-103 32 -124 47l-16 -5q-17 8 -17 16l9 16h-9l-16 -11q-136 62 -136 137q-25 39 -25 100zM35 394l4 -6h4v32h-4zM132 1119l4 1l10 -5l-2 -3l-9 -2zM134 1080l2 6l4 -2l-4 -6zM146 353q0 -132 188 -207l17 -5q185 0 232 156v23q0 80 -90 201q-56 67 -176 67 q-116 -46 -159 -140l-12 -67v-28zM166 1120l5 8l40 41l-1 4q10 -5 61 63q24 -9 37 -4q6 -5 16 -35l3 -2l5 1l3 -2l15 -22l9 -5l5 8q19 -10 59 -69l17 -12l15 4l12 -7q30 -15 89 -107q4 -49 0 -57l-2 -2l-15 -4l-5 -17l-6 -8q-4 -8 -17 -3l-9 -21l-2 -4q-3 -6 -16 -1 q-237 146 -316 214q-6 4 -2 39zM171 1200v5l1 2l5 2l3 -2l1 -4l-2 -3l-4 -2zM211 1028l5 1l12 -6l3 -10l-3 -5l-4 1q-17 14 -13 19zM237 199h8v5h-8v-5zM324 31l24 -21h9l8 10l-37 16h-4v-5zM361 630q15 0 24 -21l17 -5h25q0 25 -62 32h-4v-6zM612 20l8 -10h9q0 8 -17 16v-6 zM686 683l5 -63l8 10v53h-13z" />
<glyph unicode="&#xe1;" horiz-adv-x="845" d="M0 300q0 219 153 352q113 83 206 95h37q71 0 152 -53q0 32 29 32q0 21 17 21l37 -11l21 11l20 -6l33 11l8 -16l-4 -21l13 -336v-53l12 -173l-4 -32l4 -42v-37q0 -16 -25 -16q0 -26 -66 -26l-29 5l-24 -5l-17 37l4 21l-12 21q-76 -79 -206 -79l-4 5h-4l-17 -5 q-103 32 -124 47l-16 -5q-17 8 -17 16l9 16h-9l-16 -11q-136 62 -136 137q-25 39 -25 100zM29 400l4 -6h4v32h-4zM140 359q0 -132 188 -207l17 -5q185 0 232 156v23q0 80 -90 201q-56 67 -176 67q-116 -46 -159 -140l-12 -67v-28zM231 205h8v5h-8v-5zM273 927q-4 8 0 57 q59 92 89 107l12 7l15 -4l17 12q40 59 64 61l9 5l15 22l3 2l5 -1l3 2q10 30 16 35q13 -5 37 4q51 -68 61 -63l-1 -4l40 -41l5 -8q24 -32 -2 -39q-79 -68 -316 -214q-13 -5 -16 1l-2 4l-9 21q-13 -5 -17 3l-6 8l-5 17l-15 4zM318 37l24 -21h9l8 10l-37 16h-4v-5zM355 636 q15 0 24 -21l17 -5h25q0 25 -62 32h-4v-6zM606 26l8 -10h9q0 8 -17 16v-6zM680 689l5 -63l8 10v53h-13z" />
<glyph unicode="&#xe2;" horiz-adv-x="845" d="M0 300q0 219 153 352q113 83 206 95h37q71 0 152 -53q0 32 29 32q0 21 17 21l37 -11l21 11l20 -6l33 11l8 -16l-4 -21l13 -336v-53l12 -173l-4 -32l4 -42v-37q0 -16 -25 -16q0 -26 -66 -26l-29 5l-24 -5l-17 37l4 21l-12 21q-76 -79 -206 -79l-4 5h-4l-17 -5 q-103 32 -124 47l-16 -5q-17 8 -17 16l9 16h-9l-16 -11q-136 62 -136 137q-25 39 -25 100zM29 400l4 -6h4v32h-4zM140 359q0 -132 188 -207l17 -5q185 0 232 156v23q0 80 -90 201q-56 67 -176 67q-116 -46 -159 -140l-12 -67v-28zM148 1054q23 21 32 42q32 10 63 61l42 43 q5 0 25 24q69 54 88 54l35 23h2q29 -26 53 -51.5t46 -52.5t44 -55t46 -56q16 -10 26 -24l7 -7h-1q6 -8 12.5 -18t6.5 -16v-6q-5 -6 -16 -8l-9 2l-13 -2q-14 1 -14 3l-3 -1h-60l-22 -4q-9 0 -14.5 11t-18.5 33l-3 8q-15 19 -40 44t-59 56q-12 -6 -26 -15.5t-27.5 -24.5 t-24.5 -35.5t-17 -48.5q20 -12 20 -19q-3 -7 -30 1l-40 -8q-98 14 -98 25q-12 20 -12 22zM173 1040q6 -8 20 -8q5 0 7 8l-7 4h-20v-4zM230 1114h3l20 19v7l-5 4h-3zM231 205h8v5h-8v-5zM245 1049l15 3v7h-7l-8 -5v-5zM275 1052l5 -3h5q10 3 10 12v7h-5l-15 -12v-4zM275 1098 q18 7 18 16v3h-3q-5 0 -15 -12v-7zM317 1112h11l12 14v2h-3q0 -8 -14 -8l-6 -5v-3zM318 37l24 -21h9l8 10l-37 16h-4v-5zM355 636q15 0 24 -21l17 -5h25q0 25 -62 32h-4v-6zM371 1154q32 23 32 30h-8q-20 -19 -24 -30zM463 1247l2 -6h5v4l-5 4h-2v-2zM472 1194l6 -3l2 3 l-8 6v-6zM472 1238q2 -11 8 -11h2q-3 13 -10 13v-2zM485 1220q10 -7 10 -17l2 -2h6v5l-18 18v-4zM513 1128q0 -17 42 -35h7q-24 40 -44 40zM596 1046q19 -24 24 -24h12l5 4v2l-29 20zM606 26l8 -10h9q0 8 -17 16v-6zM680 689l5 -63l8 10v53h-13z" />
<glyph unicode="&#xe3;" horiz-adv-x="845" d="M1 300q0 219 153 352q113 83 206 95h37q71 0 152 -53q0 32 29 32q0 21 17 21l37 -11l21 11l20 -6l33 11l8 -16l-4 -21l13 -336v-53l12 -173l-4 -32l4 -42v-37q0 -16 -25 -16q0 -26 -66 -26l-29 5l-24 -5l-17 37l4 21l-12 21q-76 -79 -206 -79l-4 5h-4l-17 -5 q-103 32 -124 47l-16 -5q-17 8 -17 16l9 16h-9l-16 -11q-136 62 -136 137q-25 39 -25 100zM30 400l4 -6h4v32h-4zM141 359q0 -132 188 -207l17 -5q185 0 232 156v23q0 80 -90 201q-56 67 -176 67q-116 -46 -159 -140l-12 -67v-28zM194 1149q0 5 9 22h-1q2 4 1.5 2.5t1.5 2.5 l8 18h-1l3 11v-1q2 8 5 16.5t8.5 16.5t14 14t22.5 9l-1 -1l35 16l11 5h-1q12 5 27 5q1 0 2 -0.5t2 -0.5h4q8 0 15 -0.5t15 -3.5l35 -14q13 -23 29.5 -45.5t34 -41.5t35.5 -30.5t33 -11.5q5 0 13.5 2.5t17 7.5t14.5 13t6 19q0 6 -2.5 16t-5.5 21l-17 21l80 51l13 -19 q10 -14 15 -29t9 -29q0 -2 1 -4.5t4 -10.5q-3 -9 -7 -18.5t-10 -20.5q-2 -30 -20 -54.5t-47 -44.5l-17 -8v1q-11 -6 -20 -7.5t-18 -1.5h-8q-20 0 -33 3t-21 5q-18 2 -59 47l-5 8l-10 11l-11 14q0 8 -4 16.5t-10 20.5v-1l-17 22q-8 11 -25 11q-25 0 -44 -17t-19 -37 q0 -8 10 -31l-1 1q1 -2 6 -6.5t11 -8.5l9 -9l-92 -48l-18 28q-7 11 -11 35t-4 43zM232 205h8v5h-8v-5zM319 37l24 -21h9l8 10l-37 16h-4v-5zM356 636q15 0 24 -21l17 -5h25q0 25 -62 32h-4v-6zM607 26l8 -10h9q0 8 -17 16v-6zM681 689l5 -63l8 10v53h-13z" />
<glyph unicode="&#xe4;" horiz-adv-x="845" d="M0 300q0 219 153 352q113 83 206 95h37q71 0 152 -53q0 32 29 32q0 21 17 21l37 -11l21 11l20 -6l33 11l8 -16l-4 -21l13 -336v-53l12 -173l-4 -32l4 -42v-37q0 -16 -25 -16q0 -26 -66 -26l-29 5l-24 -5l-17 37l4 21l-12 21q-76 -79 -206 -79l-4 5h-4l-17 -5 q-103 32 -124 47l-16 -5q-17 8 -17 16l9 16h-9l-16 -11q-136 62 -136 137q-25 39 -25 100zM29 400l4 -6h4v32h-4zM121 1173q25 126 147 130q31 -30 44.5 -49.5t14.5 -28.5l1 -12q0 -44 -30 -75.5t-92 -53.5q-33 0 -49.5 8.5t-17.5 29.5q-16 1 -17 34zM140 359 q0 -132 188 -207l17 -5q185 0 232 156v23q0 80 -90 201q-56 67 -176 67q-116 -46 -159 -140l-12 -67v-28zM231 205h8v5h-8v-5zM318 37l24 -21h9l8 10l-37 16h-4v-5zM355 636q15 0 24 -21l17 -5h25q0 25 -62 32h-4v-6zM468 1173q27 126 148 130q30 -30 43.5 -49.5t14.5 -28.5 l1 -12q0 -44 -29.5 -75.5t-92.5 -53.5q-33 0 -49.5 8.5t-17.5 29.5q-16 1 -17 34zM606 26l8 -10h9q0 8 -17 16v-6zM680 689l5 -63l8 10v53h-13z" />
<glyph unicode="&#xe5;" horiz-adv-x="845" d="M0 300q0 219 153 352q113 83 206 95h37q71 0 152 -53q0 32 29 32q0 21 17 21l37 -11l21 11l20 -6l33 11l8 -16l-4 -21l13 -336v-53l12 -173l-4 -32l4 -42v-37q0 -16 -25 -16q0 -26 -66 -26l-29 5l-24 -5l-17 37l4 21l-12 21q-76 -79 -206 -79l-4 5h-4l-17 -5 q-103 32 -124 47l-16 -5q-17 8 -17 16l9 16h-9l-16 -11q-136 62 -136 137q-25 39 -25 100zM29 400l4 -6h4v32h-4zM140 359q0 -132 188 -207l17 -5q185 0 232 156v23q0 80 -90 201q-56 67 -176 67q-116 -46 -159 -140l-12 -67v-28zM231 205h8v5h-8v-5zM238 1162 q0 23 9.5 48.5t27 47t42.5 35.5t56 14h27l48 3q45 -11 56 -25l36 -43q11 -15 31 -70l4 -49q-6 -39 -22.5 -64t-37 -39.5t-41 -20t-33.5 -5.5l-3 2l-3 -2q-26 3 -42 6t-28 7.5t-23 11.5t-26 17l-8 -6q-12 7 -24 23t-22.5 35t-17 39t-6.5 35zM257 1179l6 1l3 -10h-1l1 7 l-6 -14l1 9zM266 1185l3 12h1q0 -2 0.5 -6t1.5 -6h-6zM292 1094q2 -17 23 -32zM315 1062q2 -2 3 -2h4l-2 -5zM318 37l24 -21h9l8 10l-37 16h-4v-5zM321 1162q5 -24 15.5 -42.5t22 -32t23.5 -20.5t20 -7q18 0 36.5 7.5t34 20.5t25 30.5t9.5 36.5q0 23 -22 44t-65 44h-7 l-37 -1l-3 -5q-13 -7 -29.5 -25t-22.5 -50zM329 1077l3 4l6 -13zM341 1258h4v-3zM345 1258q14 3 21.5 5t11.5 4h-13q-16 0 -20 -9zM355 636q15 0 24 -21l17 -5h25q0 25 -62 32h-4v-6zM423 1279q1 0 2 -0.5t2 -0.5l11 2h-12zM438 1280l6 1q3 0 8 -3q-4 1 -7 1.5t-7 0.5z M452 1278q5 -2 11 -8l16 -16q3 9 12 9v1q-10 5 -19 8.5t-20 5.5zM506 1240l5 2v-5l3 -3l-5 -2v5zM509 1079q9 7 9 15l3 -3q-3 0 -7 -15zM514 1218l2 3l3 -3h-5zM519 1205l5 2v-5q1 -2 3 -4l3 -3l-5 -2v6zM525 1191v9h6l2 -19h-6v16zM529 1168v12l3 -3l-1 -4l3 -3zM606 26 l8 -10h9q0 8 -17 16v-6zM680 689l5 -63l8 10v53h-13z" />
<glyph unicode="&#xe6;" horiz-adv-x="1346" d="M0 300q0 219 153 352q113 83 206 95h37q71 0 152 -53q0 32 29 32q0 21 17 21l37 -11l21 11l20 -6l33 11l8 -16l-4 -21l13 -336v-53l12 -173l-4 -32l4 -42v-37q0 -16 -25 -16q0 -26 -66 -26l-29 5l-24 -5l-17 37l4 21l-12 21q-76 -79 -206 -79l-4 5h-4l-17 -5 q-103 32 -124 47l-16 -5q-17 8 -17 16l9 16h-9l-16 -11q-136 62 -136 137q-25 39 -25 100zM29 400l4 -6h4v32h-4zM140 359q0 -132 188 -207l17 -5q185 0 232 156v23q0 80 -90 201q-56 67 -176 67q-116 -46 -159 -140l-12 -67v-28zM231 205h8v5h-8v-5zM318 37l24 -21h9l8 10 l-37 16h-4v-5zM355 636q15 0 24 -21l17 -5h25q0 25 -62 32h-4v-6zM581 442q26 103 71 151q66 79 173 130q76 27 114 27q50 1 162 -33q83 -84 100 -154l17 -17q1 -132 -20 -133q-95 -23 -200 -33l-127 3l-66 -17l7 -58q17 -93 133 -118q105 -15 123 61l10 21v4q62 12 76.5 13 t59.5 1l-4 -21l10 -4q-16 -63 -33 -101q-50 -152 -257 -164q-116 19 -235 130q0 10 -56 79q-57 133 -57 167zM606 26l8 -10h9q0 8 -17 16v-6zM607 359h5l-1 22h-4v-22zM607 403h4v31h-4v-31zM634 262l8 -9h5q-5 27 -13 27v-18zM655 227l5 -13h4v4l-4 18h-5v-9zM673 187h8v5 h-8v-5zM680 689l5 -63l8 10v53h-13zM696 386l1 -22h4v22h-5zM718 351l13 5v13l-13 -14v-4zM792 215q13 -33 38 -53l9 1v13l-47 43v-4zM795 496l143 2h67l20 21q-1 56 -68 96q-132 18 -162 -119zM846 255l1 -4l12 -9v5zM921 66h8v9h-8v-9zM953 627q17 7 17 13v9h-4l-13 -4 v-18zM975 124l1 -17l16 13l-4 13h-4zM1113 435q22 0 25 13v9h-4l-21 -5v-17z" />
<glyph unicode="&#xe7;" horiz-adv-x="742" d="M0 451q9 233 138 269q63 40 212 40h38q25 0 85 -22l5 4h26q154 -147 154 -206l11 -98q-30 -18 -175 -27q-27 89 -106 139l-43 13q-128 0 -175 -138q0 -63 53 -175q119 -33 181 -35h5q27 17 74 98l16 -5l27 5l79 -5l38 5q28 0 42 -58q0 -32 -74 -99q-39 -51 -170 -138 q-60 -18 -138 -18q-199 0 -299 274zM93 -375l34 118l70 -39q34 -13 57.5 -20t42.5 -7q32 0 52 12t31 26.5t15 27t4 13.5q-4 22 -16 53t-65.5 45t-60.5 37t-21 74l32 62l110 -4l-28 -69l32 -21q25 -16 56 -23l42 -24q70 -82 71 -97q0 -3 -1 -4l-1 -2q1 -1 2.5 -10.5 t1.5 -20.5q0 -20 -7.5 -45t-24.5 -48l-18 -14q-79 -55 -155 -69q-33 -5 -54 -5q-55 0 -86 5.5t-115 48.5zM154 192h5v9h-5v-9zM196 103l22 -27l53 22v9l-11 9q-28 -13 -64 -13zM255 192l26 5v4l-26 22v-31zM297 76l6 -4h5l27 22v4l-6 5v4q-32 -10 -32 -31zM377 40l11 -9 q36 15 53 36v5h-16q-18 -14 -48 -18v-14zM377 711l11 -9h5l11 9l-6 4h-21v-4zM388 125q15 0 26 -18q22 6 32 23v4q0 14 -42 18q0 -9 -16 -9v-18zM403 -307l4 -3l5 3v6zM430 653l11 -9v13h-11v-4zM461 -243h4l2 5l-1 3z" />
<glyph unicode="&#xe8;" horiz-adv-x="754" d="M-1 442q26 103 71 151q66 79 173 130q76 27 114 27q50 1 162 -33q83 -84 100 -154l17 -17q1 -132 -20 -133q-95 -23 -200 -33l-127 3l-66 -17l7 -58q17 -93 133 -118q105 -15 123 61l10 21v4q62 12 76.5 13t59.5 1l-4 -21l10 -4q-16 -63 -33 -101q-50 -152 -257 -164 q-116 19 -235 130q0 10 -56 79q-57 133 -57 167zM25 359h5l-1 22h-4v-22zM25 403h4v31h-4v-31zM52 262l8 -9h5q-5 27 -13 27v-18zM73 227l5 -13h4v4l-4 18h-5v-9zM91 187h8v5h-8v-5zM114 386l1 -22h4v22h-5zM132 1119l4 1l10 -5l-2 -3l-9 -2zM134 1080l1 6l5 -2l-4 -6z M136 351l13 5v13l-13 -14v-4zM164 1097q0 5 0.5 10.5t1.5 12.5l5 8l40 41l-1 4h1q12 0 60 63q15 -6 26 -6q5 0 11 2q5 -4 16 -35l3 -2l5 1l18 -24l9 -5l5 8q18 -10 59 -69l17 -12l15 4l12 -7q3 -2 18 -14t31 -32t29 -45.5t13 -54.5q0 -14 -2 -18l-17 -6l-5 -17l-6 -8 q-3 -5 -9 -5q-2 0 -8 2l-11 -25q-2 -3 -6 -3q-6 0 -10 2q-61 37 -118.5 73t-102.5 66.5t-72 54t-27 36.5zM171 1200v5l1 2l5 2l4 -6l-6 -5zM210 215q13 -33 38 -53l9 1v13l-47 43v-4zM210 1026q0 1 1 2l5 1l12 -6l3 -10l-3 -5l-4 1q-14 11 -14 17zM213 496l143 2h67l20 21 q-1 56 -68 96q-132 18 -162 -119zM264 255l1 -4l12 -9v5zM339 66h8v9h-8v-9zM371 627q17 7 17 13v9h-4l-13 -4v-18zM393 124l1 -17l16 13l-4 13h-4zM531 435q22 0 25 13v9h-4l-21 -5v-17z" />
<glyph unicode="&#xe9;" horiz-adv-x="754" d="M-1 442q26 103 71 151q66 79 173 130q76 27 114 27q50 1 162 -33q83 -84 100 -154l17 -17q1 -132 -20 -133q-95 -23 -200 -33l-127 3l-66 -17l7 -58q17 -93 133 -118q105 -15 123 61l10 21v4q62 12 76.5 13t59.5 1l-4 -21l10 -4q-16 -63 -33 -101q-50 -152 -257 -164 q-116 19 -235 130q0 10 -56 79q-57 133 -57 167zM25 359h5l-1 22h-4v-22zM25 403h4v31h-4v-31zM52 262l8 -9h5q-5 27 -13 27v-18zM73 227l5 -13h4v4l-4 18h-5v-9zM91 187h8v5h-8v-5zM114 386l1 -22h4v22h-5zM136 351l13 5v13l-13 -14v-4zM210 215q13 -33 38 -53l9 1v13 l-47 43v-4zM213 496l143 2h67l20 21q-1 56 -68 96q-132 18 -162 -119zM217 927q-4 8 0 57q59 92 89 107l12 7l15 -4l17 12q40 59 64 61l9 5l15 22l3 2l5 -1l3 2q10 30 16 35q13 -5 37 4q51 -68 61 -63l-1 -4l40 -41l5 -8q24 -32 -2 -39q-79 -68 -316 -214q-13 -5 -16 1l-2 4 l-9 21q-13 -5 -17 3l-6 8l-5 17l-15 4zM264 255l1 -4l12 -9v5zM339 66h8v9h-8v-9zM371 627q17 7 17 13v9h-4l-13 -4v-18zM393 124l1 -17l16 13l-4 13h-4zM531 435q22 0 25 13v9h-4l-21 -5v-17z" />
<glyph unicode="&#xea;" horiz-adv-x="754" d="M-1 442q26 103 71 151q66 79 173 130q76 27 114 27q50 1 162 -33q83 -84 100 -154l17 -17q1 -132 -20 -133q-95 -23 -200 -33l-127 3l-66 -17l7 -58q17 -93 133 -118q105 -15 123 61l10 21v4q62 12 76.5 13t59.5 1l-4 -21l10 -4q-16 -63 -33 -101q-50 -152 -257 -164 q-116 19 -235 130q0 10 -56 79q-57 133 -57 167zM25 359h5l-1 22h-4v-22zM25 403h4v31h-4v-31zM52 262l8 -9h5q-5 27 -13 27v-18zM73 227l5 -13h4v4l-4 18h-5v-9zM91 187h8v5h-8v-5zM98 1054q23 21 32 42q32 10 63 61l42 43q5 0 25 24q69 54 88 54l35 23h2q29 -26 53 -51.5 t46 -52.5t44 -55t46 -56q16 -10 26 -24l7 -7h-1q6 -8 12.5 -18t6.5 -16v-6q-5 -6 -16 -8l-9 2l-13 -2q-14 1 -14 3l-3 -1h-60l-22 -4q-9 0 -14.5 11t-18.5 33l-3 8q-15 19 -40 44t-59 56q-12 -6 -26 -15.5t-27.5 -24.5t-24.5 -35.5t-17 -48.5q20 -12 20 -19q-3 -7 -30 1 l-40 -8q-98 14 -98 25q-12 20 -12 22zM114 386l1 -22h4v22h-5zM123 1040q6 -8 20 -8q5 0 7 8l-7 4h-20v-4zM136 351l13 5v13l-13 -14v-4zM180 1114h3l20 19v7l-5 4h-3zM195 1049l15 3v7h-7l-8 -5v-5zM210 215q13 -33 38 -53l9 1v13l-47 43v-4zM213 496l143 2h67l20 21 q-1 56 -68 96q-132 18 -162 -119zM225 1052l5 -3h5q10 3 10 12v7h-5l-15 -12v-4zM225 1098q18 7 18 16v3h-3q-5 0 -15 -12v-7zM264 255l1 -4l12 -9v5zM267 1112h11l12 14v2h-3q0 -8 -14 -8l-6 -5v-3zM321 1154q32 23 32 30h-8q-20 -19 -24 -30zM339 66h8v9h-8v-9zM371 627 q17 7 17 13v9h-4l-13 -4v-18zM393 124l1 -17l16 13l-4 13h-4zM413 1247l2 -6h5v4l-5 4h-2v-2zM422 1194l6 -3l2 3l-8 6v-6zM422 1238q2 -11 8 -11h2q-3 13 -10 13v-2zM435 1220q10 -7 10 -17l2 -2h6v5l-18 18v-4zM463 1128q0 -17 42 -35h7q-24 40 -44 40zM531 435 q22 0 25 13v9h-4l-21 -5v-17zM546 1046q19 -24 24 -24h12l5 4v2l-29 20z" />
<glyph unicode="&#xeb;" horiz-adv-x="754" d="M-1 442q26 103 71 151q66 79 173 130q76 27 114 27q50 1 162 -33q83 -84 100 -154l17 -17q1 -132 -20 -133q-95 -23 -200 -33l-127 3l-66 -17l7 -58q17 -93 133 -118q105 -15 123 61l10 21v4q62 12 76.5 13t59.5 1l-4 -21l10 -4q-16 -63 -33 -101q-50 -152 -257 -164 q-116 19 -235 130q0 10 -56 79q-57 133 -57 167zM25 359h5l-1 22h-4v-22zM25 403h4v31h-4v-31zM52 262l8 -9h5q-5 27 -13 27v-18zM73 227l5 -13h4v4l-4 18h-5v-9zM84 1169q25 126 147 130q31 -30 44.5 -49.5t14.5 -28.5l1 -12q0 -44 -30 -75.5t-92 -53.5q-33 0 -49.5 8.5 t-17.5 29.5q-16 1 -17 34zM91 187h8v5h-8v-5zM114 386l1 -22h4v22h-5zM136 351l13 5v13l-13 -14v-4zM210 215q13 -33 38 -53l9 1v13l-47 43v-4zM213 496l143 2h67l20 21q-1 56 -68 96q-132 18 -162 -119zM264 255l1 -4l12 -9v5zM339 66h8v9h-8v-9zM371 627q17 7 17 13v9h-4 l-13 -4v-18zM393 124l1 -17l16 13l-4 13h-4zM431 1169q27 126 148 130q30 -30 43.5 -49.5t14.5 -28.5l1 -12q0 -44 -29.5 -75.5t-92.5 -53.5q-33 0 -49.5 8.5t-17.5 29.5q-16 1 -17 34zM531 435q22 0 25 13v9h-4l-21 -5v-17z" />
<glyph unicode="&#xec;" horiz-adv-x="489" d="M-8 1162l4 1l10 -5l-2 -3l-9 -2zM-6 1123l1 6l5 -2l-4 -6zM24 1140q0 5 0.5 10.5t1.5 12.5l5 8l40 41l-1 4h1q12 0 60 63q15 -6 26 -6q5 0 11 2q5 -4 16 -35l3 -2l5 1l18 -24l9 -5l5 8q18 -10 59 -69l17 -12l15 4l12 -7q3 -2 18 -14t31 -32t29 -45.5t13 -54.5 q0 -14 -2 -18l-17 -6l-5 -17l-6 -8q-3 -5 -9 -5q-2 0 -8 2l-11 -25q-2 -3 -6 -3q-6 0 -10 2q-61 37 -118.5 73t-102.5 66.5t-72 54t-27 36.5zM31 1243v5l1 2l5 2l4 -6l-6 -5zM70 1069q0 1 1 2l5 1l12 -6l3 -10l-3 -5l-4 1q-14 11 -14 17zM75 705v43q0 26 35 61h19l104 -25 q0 5 5 13.5t11.5 16.5t12.5 14l5 6h4q21 -11 21 -43v-31q0 -108 48 -343l30 -300q-15 -92 -64 -92l-103 -25h-10q-55 0 -83 49l5 62l-30 472q-3 0 -6.5 30.5t-3.5 91.5zM139 723h14v6h-14v-6zM153 166q19 -6 30 -10.5t16.5 -8t8 -5t4.5 -1.5v43l5 55l-5 61v37q0 32 -14 38z M290 80h7q17 0 19 18v24q0 69 -3.5 102.5t-6.5 33.5l-2 -19q0 -89 -14 -159z" />
<glyph unicode="&#xed;" horiz-adv-x="406" d="M-107 927q-4 8 0 57q59 92 89 107l12 7l15 -4l17 12q40 59 64 61l9 5l15 22l3 2l5 -1l3 2q10 30 16 35q13 -5 37 4q51 -68 61 -63l-1 -4l40 -41l5 -8q24 -32 -2 -39q-79 -68 -316 -214q-13 -5 -16 1l-2 4l-9 21q-13 -5 -17 3l-6 8l-5 17l-15 4zM-5 705v43q0 26 35 61h19 l104 -25q0 5 5 13.5t11.5 16.5t12.5 14l5 6h4q21 -11 21 -43v-31q0 -108 48 -343l30 -300q-15 -92 -64 -92l-103 -25h-10q-55 0 -83 49l5 62l-30 472q-3 0 -6.5 30.5t-3.5 91.5zM59 723h14v6h-14v-6zM73 166q19 -6 30 -10.5t16.5 -8t8 -5t4.5 -1.5v43l5 55l-5 61v37 q0 32 -14 38zM210 80h7q17 0 19 18v24q0 69 -3.5 102.5t-6.5 33.5l-2 -19q0 -89 -14 -159z" />
<glyph unicode="&#xee;" horiz-adv-x="516" d="M-97 1067q23 22 32 42q32 11 63 61l42 43q5 0 25 24q69 54 88 54l37 23q28 -26 52 -52t46.5 -53t44.5 -54.5t46 -55.5q15 -9 26 -24l7 -7h-1q6 -8 12.5 -18t6.5 -16v-6q-5 -6 -16 -8l-9 2l-13 -2q-14 2 -14 3l-63 -1l-22 -4q-9 0 -14.5 11t-18.5 33l-3 8q-15 19 -40 44 t-59 56q-12 -6 -26 -15.5t-27.5 -24.5t-24.5 -35.5t-17 -48.5q20 -12 20 -19q-2 -3 -8 -3q-9 0 -22 4l-40 -8q-98 14 -98 25q-12 19 -12 22zM-72 1053q6 -8 20 -8q5 0 7 8l-7 4h-20v-4zM-15 1127h3l20 19v7l-8 4zM0 1062l15 3v7h-7l-8 -5v-5zM30 1065l5 -3h5q10 3 10 12v7 h-5l-15 -12v-4zM30 1111q18 7 18 16v3h-3q-5 0 -15 -12v-7zM55 705v43q0 26 35 61h19l104 -25q0 5 5 13.5t11.5 16.5t12.5 14l5 6h4q21 -11 21 -43v-31q0 -108 48 -343l30 -300q-15 -92 -64 -92l-103 -25h-10q-55 0 -83 49l5 62l-30 472q-3 0 -6.5 30.5t-3.5 91.5zM72 1125 h11l12 16h-3q0 -8 -14 -8l-6 -5v-3zM119 723h14v6h-14v-6zM126 1167q32 23 32 30h-8q-20 -20 -24 -30zM133 166q19 -6 30 -10.5t16.5 -8t8 -5t4.5 -1.5v43l5 55l-5 61v37q0 32 -14 38zM218 1260l2 -6h5v4l-7 4v-2zM227 1207l6 -3l2 3l-8 6v-6zM227 1251q2 -11 8 -11h2 q-3 13 -10 13v-2zM240 1233q10 -7 10 -17l2 -2h6v5l-18 18v-4zM268 1141q0 -17 42 -35h7q-24 40 -44 40zM270 80h7q17 0 19 18v24q0 69 -3.5 102.5t-6.5 33.5l-2 -19q0 -89 -14 -159zM351 1059q19 -24 24 -24h12l5 6l-29 20z" />
<glyph unicode="&#xef;" horiz-adv-x="588" d="M-14 1180q25 126 147 130q31 -30 44.5 -49.5t14.5 -28.5l1 -12q0 -44 -30 -75.5t-92 -53.5q-33 0 -49.5 8.5t-17.5 29.5q-16 1 -17 34zM135 705v43q0 26 35 61h19l104 -25q0 5 5 13.5t11.5 16.5t12.5 14l5 6h4q21 -11 21 -43v-31q0 -108 48 -343l30 -300q-15 -92 -64 -92 l-103 -25h-10q-55 0 -83 49l5 62l-30 472q-3 0 -6.5 30.5t-3.5 91.5zM199 723h14v6h-14v-6zM213 166q19 -6 30 -10.5t16.5 -8t8 -5t4.5 -1.5v43l5 55l-5 61v37q0 32 -14 38zM333 1180q27 126 148 130q30 -30 43.5 -49.5t14.5 -28.5l1 -12q0 -44 -29.5 -75.5t-92.5 -53.5 q-33 0 -49.5 8.5t-17.5 29.5q-16 1 -17 34zM350 80h7q17 0 19 18v24q0 69 -3.5 102.5t-6.5 33.5l-2 -19q0 -89 -14 -159z" />
<glyph unicode="&#xf0;" horiz-adv-x="934" d="M0 301v4q19 134 56 188q0 40 106 76l7 -8v-8l-3 -3q18 0 37 11q0 8 -26 15v4q106 37 128 37l23 -3l67 3l87 -7l7 11v8l-146 211q-90 119 -256 365l7 15q31 0 53 19l30 -8v4l4 4v15l-8 11v7l8 8h11l30 -38l45 8l27 -4q27 0 124 -181l162 -252l116 -181q55 -46 83 -150 q64 -147 64 -192v-45q0 -31 -15 -76l-37 -79q-34 -8 -46 -30q-59 -25 -75 -41q-169 -60 -309 -60v3q-18 0 -18 8q-65 5 -72 11v4l4 4l75 -4q16 0 26 23l19 -4h12q27 0 30 11q0 8 -27 11l-37 -3h-8q0 -15 -7 -15h-83l-19 -19h-4l-94 22q-97 60 -124 117q-23 31 -34 173z M26 290l4 -26h11l4 3l-4 68l-3 11q-12 -2 -12 -30v-26zM60 256l8 -34h4v8l-4 34h-8v-8zM64 962l11 27q-7 2 -7 28q3 16 10 16l-2 34l12 10l100 -7l2 4h1l3 -4l59 7l68 -7q36 7 166 10l153 -6q51 -11 51 -23t-8 -28l5 -10v-7l-5 -10v-31q2 -23 5 -23q0 -47 -8 -47l-12 -5 l-31 8l-8 -3l-110 16h-11l-8 3l-8 -3h-24l-10 3l-12 -3l-72 7q-49 -10 -84 -10l-42 3q-20 -9 -151 -13l-5 23v3q2 15 26 15v3h-18l-6 -3l-2 3q0 -6 -14 -14q-7 0 -14 34zM94 271l8 -7v15h-8v-8zM96 1030h19v3h-19v-3zM109 79l8 -7v7h-8zM117 215l7 -8h4l8 8l-8 7h-4zM124 64 l8 -7v11h-8v-4zM124 335l8 -45h11l4 19v4q0 28 -15 33h-4zM127 939h5v3h-5v-3zM128 1193q35 -56 41 -56h8l4 19q-33 52 -42 52q-5 0 -11 -15zM132 143l34 -26l3 4l-11 15v11q0 7 11 7v15l-7 8q-8 0 -8 -23l-18 -7zM154 422h8l4 11v4l-12 -12v-3zM184 1208q22 -33 31 -33v3 l3 4q0 21 -22 34h-4zM196 90q0 -7 22 -11h4q-7 17 -15 19h-11v-8zM200 1099q0 -13 97 -150l15 3v8q-62 88 -109 139h-3zM211 158l11 -11h4v11l-11 4zM215 387q0 -110 39 -152q76 -81 148 -92l13 9l-5 22l13 13q21 -26 79 -26l52 13q32 0 48 130q0 127 -226 187l-22 -4l-22 4 h-4q-113 -39 -113 -91v-13zM222 557l4 -4q51 0 94 27v4l-15 3q-56 0 -83 -22v-8zM230 520l7 -8q15 15 75 15h4v8h-37l-27 3q-6 -11 -22 -11v-7zM252 1193q40 -85 79 -131l49 -61h8v8q-14 27 -45 60q-25 68 -34 68q-40 56 -53 56h-4zM279 154l22 -26h15l12 11v4l-38 19 q-11 0 -11 -8zM350 565q0 -10 45 -12l57 4l22 -4v4l4 4v8q-9 16 -26 22q-22 -11 -102 -22v-4zM422 520l7 -8v8h-7zM501 410v4h15q15 -7 15 -22q-29 10 -30 18zM501 576q35 -38 56 -38h4v15l-53 31h-7v-8zM550 719q35 -67 49 -75h3q-9 39 -52 83v-8zM576 38l11 -4 q108 25 136 45v4h-12q-135 -19 -135 -38v-7zM609 921l43 -3h2q15 0 18 14v7l-4 6h-2q-57 -18 -57 -24zM640 309q0 -10 68 -38l11 8q0 8 -68 37l-11 -3v-4zM678 121l3 -4l12 4v7h-12l-3 -4v-3zM685 218q0 -22 23 -22h3l8 7v15l-8 8h-15zM749 113h4q23 0 38 34q0 15 -16 19h-7 q-5 -32 -19 -45v-8zM764 226l8 -8q30 0 30 57q-5 26 -15 26h-4l-19 -68v-7z" />
<glyph unicode="&#xf1;" horiz-adv-x="796" d="M0 124l35 471l-9 117q9 20 18 22l53 -4q54 22 84 22h13l31 -35l-4 -26v-5q62 66 123 66l5 4q115 -9 141 -31q55 -19 150 -143l49 -140v-4l-4 -39l8 -22l-4 -5q22 -81 22 -222q0 -118 -35 -118l-27 5q-44 0 -132 -39l-22 26q4 59 13 74l-9 56l4 66l-8 78l4 18 q-18 164 -57 187q-11 39 -40 39l-44 13q-99 -26 -128 -213l8 -57l-4 -48v-4q13 -80 13 -174v-53l-13 -13l-40 5l-137 -31l-22 35l5 43l-5 53q-15 0 -35 26zM79 11q67 16 67 30v4q-15 0 -44 -21l-14 4l-9 -13v-4zM128 1141q0 5 9 22h-1q2 4 1.5 2.5t1.5 2.5l8 18h-1l3 11v-1 q2 8 5 16.5t8.5 16.5t14 14t22.5 9l-1 -1l35 16l11 5h-1q12 5 27 5q1 0 2 -0.5t2 -0.5h4q8 0 15 -0.5t15 -3.5l35 -14q13 -23 29.5 -45.5t34 -41.5t35.5 -30.5t33 -11.5q5 0 13.5 2.5t17 7.5t14.5 13t6 19q0 6 -2.5 16t-5.5 21l-17 21l80 51l13 -19q10 -14 15 -29t9 -29 q0 -2 1 -4.5t4 -10.5q-3 -9 -7 -18.5t-10 -20.5q-2 -30 -20 -54.5t-47 -44.5l-17 -8v1q-11 -6 -20 -7.5t-18 -1.5h-8q-20 0 -33 3t-21 5q-18 2 -59 47l-5 8l-10 11l-11 14q0 8 -4 16.5t-10 20.5v-1l-17 22q-8 11 -25 11q-25 0 -44 -17t-19 -37q0 -8 10 -31l-1 1q1 -2 6 -6.5 t11 -8.5l9 -9l-92 -48l-18 28q-7 11 -11 35t-4 43zM150 691l22 -27v-8h5v48zM199 412q13 4 13 26v17l-13 -13l4 -4v-5zM203 37q9 0 9 13v87h-4v-87zM331 564h9v5h-9v-5zM512 638h18l4 5h5l-5 13h-17zM539 54h4l9 9v22h-9l-4 -22v-9z" />
<glyph unicode="&#xf2;" horiz-adv-x="826" d="M0 409v9q0 126 72 219q42 78 131 110q28 25 88 25v5l30 -5h34l101 13q94 -26 122 -63l76 -106q36 -56 72 -169l-4 -4v-4l12 -122q-12 -100 -54 -173q-77 -94 -148 -114q-37 -30 -89 -30l-4 4h-4l-4 -4h-5q-144 19 -211 59q-14 24 -50 51l-17 -17q-58 52 -85 143 q-63 79 -63 173zM42 418h4l9 25v4h-4l-9 -25v-4zM55 473h8l9 29v13h-9zM106 249q0 -44 63 -97h8l-59 105h-4zM132 1119l4 1l10 -5l-2 -3l-9 -2zM134 1080l2 6l4 -2l-4 -6zM166 1120l5 8l40 41l-1 4q10 -5 61 63q24 -9 37 -4q6 -5 16 -35l3 -2l5 1l3 -2l15 -22l9 -5l5 8 q19 -10 59 -69l17 -12l15 4l12 -7q30 -15 89 -107q4 -49 0 -57l-2 -2l-15 -4l-5 -17l-6 -8q-4 -8 -17 -3l-9 -21l-2 -4q-3 -6 -16 -1q-237 146 -316 214q-6 4 -2 39zM169 418q10 -75 32 -118q80 -148 157 -148q84 0 161 74q74 78 74 170v5q0 97 -138 204q-13 0 -56 27l-4 -5 l-14 5l-88 -5h-4q-52 -37 -102 -135q-6 0 -18 -74zM171 1200v5l1 2l5 2l3 -2l1 -4l-2 -3l-4 -2zM181 232l5 -13h4v13h-9zM194 211q29 -76 63 -76v4l-59 72h-4zM211 1028l5 1l12 -6l3 -10l-3 -5l-4 1q-17 14 -13 19zM224 654q93 24 93 38h-43q-50 -5 -50 -38zM371 713l43 -8 l38 8q16 0 76 -80h4q0 34 25 34l4 4v4q-67 47 -139 47l-13 -4v4l-38 -4v-5zM591 604l8 -9v17l-8 8v-16zM595 207q21 17 21 38q-9 0 -21 -38zM608 561h4v9h-4v-9zM620 519l9 -21h4v17l-13 13v-9zM633 443l4 -12h5v33h-5zM633 468h4v22h-4v-22z" />
<glyph unicode="&#xf3;" horiz-adv-x="826" d="M0 409v9q0 126 72 219q42 78 131 110q28 25 88 25v5l30 -5h34l101 13q94 -26 122 -63l76 -106q36 -56 72 -169l-4 -4v-4l12 -122q-12 -100 -54 -173q-77 -94 -148 -114q-37 -30 -89 -30l-4 4h-4l-4 -4h-5q-144 19 -211 59q-14 24 -50 51l-17 -17q-58 52 -85 143 q-63 79 -63 173zM42 418h4l9 25v4h-4l-9 -25v-4zM55 473h8l9 29v13h-9zM106 249q0 -44 63 -97h8l-59 105h-4zM169 418q10 -75 32 -118q80 -148 157 -148q84 0 161 74q74 78 74 170v5q0 97 -138 204q-13 0 -56 27l-4 -5l-14 5l-88 -5h-4q-52 -37 -102 -135q-6 0 -18 -74z M181 232l5 -13h4v13h-9zM194 211q29 -76 63 -76v4l-59 72h-4zM224 654q93 24 93 38h-43q-50 -5 -50 -38zM273 927q-4 8 0 57q59 92 89 107l12 7l15 -4l17 12q40 59 64 61l9 5l15 22l3 2l5 -1l3 2q10 30 16 35q13 -5 37 4q51 -68 61 -63l-1 -4l40 -41l5 -8q24 -32 -2 -39 q-79 -68 -316 -214q-13 -5 -16 1l-2 4l-9 21q-13 -5 -17 3l-6 8l-5 17l-15 4zM371 713l43 -8l38 8q16 0 76 -80h4q0 34 25 34l4 4v4q-67 47 -139 47l-13 -4v4l-38 -4v-5zM591 604l8 -9v17l-8 8v-16zM595 207q21 17 21 38q-9 0 -21 -38zM608 561h4v9h-4v-9zM620 519l9 -21h4 v17l-13 13v-9zM633 443l4 -12h5v33h-5zM633 468h4v22h-4v-22z" />
<glyph unicode="&#xf4;" horiz-adv-x="826" d="M0 409v9q0 126 72 219q42 78 131 110q28 25 88 25v5l30 -5h34l101 13q94 -26 122 -63l76 -106q36 -56 72 -169l-4 -4v-4l12 -122q-12 -100 -54 -173q-77 -94 -148 -114q-37 -30 -89 -30l-4 4h-4l-4 -4h-5q-144 19 -211 59q-14 24 -50 51l-17 -17q-58 52 -85 143 q-63 79 -63 173zM42 418h4l9 25v4h-4l-9 -25v-4zM55 473h8l9 29v13h-9zM106 249q0 -44 63 -97h8l-59 105h-4zM148 1054q23 21 32 42q32 10 63 61l42 43q5 0 25 24q69 54 88 54l35 23h2q29 -26 53 -51.5t46 -52.5t44 -55t46 -56q16 -10 26 -24l7 -7h-1q6 -8 12.5 -18t6.5 -16 v-6q-5 -6 -16 -8l-9 2l-13 -2q-14 1 -14 3l-3 -1h-60l-22 -4q-9 0 -14.5 11t-18.5 33l-3 8q-15 19 -40 44t-59 56q-12 -6 -26 -15.5t-27.5 -24.5t-24.5 -35.5t-17 -48.5q20 -12 20 -19q-3 -7 -30 1l-40 -8q-98 14 -98 25q-12 20 -12 22zM169 418q10 -75 32 -118 q80 -148 157 -148q84 0 161 74q74 78 74 170v5q0 97 -138 204q-13 0 -56 27l-4 -5l-14 5l-88 -5h-4q-52 -37 -102 -135q-6 0 -18 -74zM173 1040q6 -8 20 -8q5 0 7 8l-7 4h-20v-4zM181 232l5 -13h4v13h-9zM194 211q29 -76 63 -76v4l-59 72h-4zM224 654q93 24 93 38h-43 q-50 -5 -50 -38zM230 1114h3l20 19v7l-5 4h-3zM245 1049l15 3v7h-7l-8 -5v-5zM275 1052l5 -3h5q10 3 10 12v7h-5l-15 -12v-4zM275 1098q18 7 18 16v3h-3q-5 0 -15 -12v-7zM317 1112h11l12 14v2h-3q0 -8 -14 -8l-6 -5v-3zM371 713l43 -8l38 8q16 0 76 -80h4q0 34 25 34l4 4v4 q-67 47 -139 47l-13 -4v4l-38 -4v-5zM371 1154q32 23 32 30h-8q-20 -19 -24 -30zM463 1247l2 -6h5v4l-5 4h-2v-2zM472 1194l6 -3l2 3l-8 6v-6zM472 1238q2 -11 8 -11h2q-3 13 -10 13v-2zM485 1220q10 -7 10 -17l2 -2h6v5l-18 18v-4zM513 1128q0 -17 42 -35h7q-24 40 -44 40z M591 604l8 -9v17l-8 8v-16zM595 207q21 17 21 38q-9 0 -21 -38zM596 1046q19 -24 24 -24h12l5 4v2l-29 20zM608 561h4v9h-4v-9zM620 519l9 -21h4v17l-13 13v-9zM633 443l4 -12h5v33h-5zM633 468h4v22h-4v-22z" />
<glyph unicode="&#xf5;" horiz-adv-x="826" d="M0 409v9q0 126 72 219q42 78 131 110q28 25 88 25v5l30 -5h34l101 13q94 -26 122 -63l76 -106q36 -56 72 -169l-4 -4v-4l12 -122q-12 -100 -54 -173q-77 -94 -148 -114q-37 -30 -89 -30l-4 4h-4l-4 -4h-5q-144 19 -211 59q-14 24 -50 51l-17 -17q-58 52 -85 143 q-63 79 -63 173zM42 418h4l9 25v4h-4l-9 -25v-4zM55 473h8l9 29v13h-9zM106 249q0 -44 63 -97h8l-59 105h-4zM165 1149q0 5 9 22h-1q2 4 1.5 2.5t1.5 2.5l8 18h-1l3 11v-1q2 8 5 16.5t8.5 16.5t14 14t22.5 9l-1 -1l35 16l11 5h-1q12 5 27 5q1 0 2 -0.5t2 -0.5h4q8 0 15 -0.5 t15 -3.5l35 -14q13 -23 29.5 -45.5t34 -41.5t35.5 -30.5t33 -11.5q5 0 13.5 2.5t17 7.5t14.5 13t6 19q0 6 -2.5 16t-5.5 21l-17 21l80 51l13 -19q10 -14 15 -29t9 -29q0 -2 1 -4.5t4 -10.5q-3 -9 -7 -18.5t-10 -20.5q-2 -30 -20 -54.5t-47 -44.5l-17 -8v1q-11 -6 -20 -7.5 t-18 -1.5h-8q-20 0 -33 3t-21 5q-18 2 -59 47l-5 8l-10 11l-11 14q0 8 -4 16.5t-10 20.5v-1l-17 22q-8 11 -25 11q-25 0 -44 -17t-19 -37q0 -8 10 -31l-1 1q1 -2 6 -6.5t11 -8.5l9 -9l-92 -48l-18 28q-7 11 -11 35t-4 43zM169 418q10 -75 32 -118q80 -148 157 -148 q84 0 161 74q74 78 74 170v5q0 97 -138 204q-13 0 -56 27l-4 -5l-14 5l-88 -5h-4q-52 -37 -102 -135q-6 0 -18 -74zM181 232l5 -13h4v13h-9zM194 211q29 -76 63 -76v4l-59 72h-4zM224 654q93 24 93 38h-43q-50 -5 -50 -38zM371 713l43 -8l38 8q16 0 76 -80h4q0 34 25 34l4 4 v4q-67 47 -139 47l-13 -4v4l-38 -4v-5zM591 604l8 -9v17l-8 8v-16zM595 207q21 17 21 38q-9 0 -21 -38zM608 561h4v9h-4v-9zM620 519l9 -21h4v17l-13 13v-9zM633 443l4 -12h5v33h-5zM633 468h4v22h-4v-22z" />
<glyph unicode="&#xf6;" horiz-adv-x="826" d="M0 409v9q0 126 72 219q42 78 131 110q28 25 88 25v5l30 -5h34l101 13q94 -26 122 -63l76 -106q36 -56 72 -169l-4 -4v-4l12 -122q-12 -100 -54 -173q-77 -94 -148 -114q-37 -30 -89 -30l-4 4h-4l-4 -4h-5q-144 19 -211 59q-14 24 -50 51l-17 -17q-58 52 -85 143 q-63 79 -63 173zM42 418h4l9 25v4h-4l-9 -25v-4zM55 473h8l9 29v13h-9zM106 249q0 -44 63 -97h8l-59 105h-4zM107 1173q25 126 147 130q31 -30 44.5 -49.5t14.5 -28.5l1 -12q0 -44 -30 -75.5t-92 -53.5q-33 0 -49.5 8.5t-17.5 29.5q-16 1 -17 34zM169 418q10 -75 32 -118 q80 -148 157 -148q84 0 161 74q74 78 74 170v5q0 97 -138 204q-13 0 -56 27l-4 -5l-14 5l-88 -5h-4q-52 -37 -102 -135q-6 0 -18 -74zM181 232l5 -13h4v13h-9zM194 211q29 -76 63 -76v4l-59 72h-4zM224 654q93 24 93 38h-43q-50 -5 -50 -38zM371 713l43 -8l38 8q16 0 76 -80 h4q0 34 25 34l4 4v4q-67 47 -139 47l-13 -4v4l-38 -4v-5zM454 1173q27 126 148 130q30 -30 43.5 -49.5t14.5 -28.5l1 -12q0 -44 -29.5 -75.5t-92.5 -53.5q-33 0 -49.5 8.5t-17.5 29.5q-16 1 -17 34zM591 604l8 -9v17l-8 8v-16zM595 207q21 17 21 38q-9 0 -21 -38zM608 561h4 v9h-4v-9zM620 519l9 -21h4v17l-13 13v-9zM633 443l4 -12h5v33h-5zM633 468h4v22h-4v-22z" />
<glyph unicode="&#xf7;" horiz-adv-x="684" d="M-13 777l11 20q-6 2 -6 20q3 13 10 13l-2 25l13 7l106 -5l2 3h2l2 -3l63 5l73 -5q39 5 178 8l162 -5q54 -8 54 -18q0 -9 -8 -20l5 -8v-4l-5 -8v-22q1 -18 5 -18q0 -35 -9 -35l-12 -2l-34 4l-8 -2l-117 13h-12l-9 2l-9 -2h-24l-11 2l-12 -2l-77 5q-52 -8 -91 -8l-43 3 q-23 -7 -161 -11l-6 18v3q2 9 27 9v3h-19l-6 -3l-2 3q0 -4 -15 -10q-7 0 -15 25zM84 827h20v3h-20v-3zM116 759h6v3h-6v-3zM228 402v16q29 110 149 110q54 -56 54 -71v-12q0 -74 -124 -110q-64 0 -64 35q-15 3 -15 32zM230 1104l4 14q23 88 151 100q61 -16 50 -58 q13 -7 4 -41l-5 -19q-63 -124 -175 -93q-34 80 -29 97zM604 747l44 -2h1q16 0 18 9v5l-3 5h-3q-57 -14 -57 -17z" />
<glyph unicode="&#xf8;" horiz-adv-x="826" d="M0 409v9q0 126 72 219q42 78 131 110q28 25 88 25v5l30 -5h34l101 13q94 -26 122 -63l76 -106q36 -56 72 -169l-4 -4v-4l12 -122q-12 -100 -54 -173q-77 -94 -148 -114q-37 -30 -89 -30l-4 4h-4l-4 -4h-5q-144 19 -211 59q-14 24 -50 51l-17 -17q-58 52 -85 143 q-63 79 -63 173zM42 418h4l9 25v4h-4l-9 -25v-4zM55 473h8l9 29v13h-9zM73 -165l7 26l31 64l4 18l103 227l10 25l10 16l4 17l19 50l11 19l6 26l65 151q31 106 60 182l37 86q10 47 113 323l25 6l3 -1q9 -9 -10 -59h3l14 37l2 13l5 3q-5 2 -1 34q6 14 41 19l14 -29q7 12 29 4 q11 -11 5 -25l31 -6l-1 -28l-88 -209l1 -5l-1 -4l-5 -3l-42 -126l-62 -143q-23 -79 -128 -356l-131 -321q-51 -105 -62 -101q-10 3 -16 24l-12 -5l-6 2l-6 11l-25 9q-21 6 -23 -1q-41 13 -34 30zM106 249q0 -44 63 -97h8l-59 105h-4zM111 -159l6 -3l8 7l2 4q30 126 27 128 l-38 -91l-2 -4q-13 -32 -3 -41zM169 418q10 -75 32 -118q80 -148 157 -148q84 0 161 74q74 78 74 170v5q0 97 -138 204q-13 0 -56 27l-4 -5l-14 5l-88 -5h-4q-52 -37 -102 -135q-6 0 -18 -74zM181 232l5 -13h4v13h-9zM194 211q29 -76 63 -76v4l-59 72h-4zM224 654 q93 24 93 38h-43q-50 -5 -50 -38zM371 713l43 -8l38 8q16 0 76 -80h4q0 34 25 34l4 4v4q-67 47 -139 47l-13 -4v4l-38 -4v-5zM558 979l3 -1l5 12l-3 1zM591 604l8 -9v17l-8 8v-16zM595 207q21 17 21 38q-9 0 -21 -38zM608 561h4v9h-4v-9zM620 519l9 -21h4v17l-13 13v-9z M633 443l4 -12h5v33h-5zM633 468h4v22h-4v-22zM650 990l3 -1l16 41l-3 1z" />
<glyph unicode="&#xf9;" horiz-adv-x="756" d="M0 444l4 232l-3 75q10 40 58 40l31 -9l31 4q98 -13 102 -22q-5 -94 -23 -257q0 -162 67 -223h17q52 0 134 156l13 49l-8 275q22 9 45 36h22q10 0 13 -22h5q0 44 35 44q9 -6 9 -53q12 -18 62 -18q42 0 48 -31l18 -53l-4 -76l4 -66l-9 -81q9 -52 9 -146v-98 q0 -160 -49 -160l-31 -4l-22 4h-27q-102 0 -85 61l-57 -12q-61 -62 -191 -85l-14 -4q-35 0 -155 124q-32 51 -45 249zM36 538l4 -22l9 9v35l-9 9l-4 -4v-27zM37 693l4 -22h9v62l-9 9h-4v-49zM72 1119l4 1l10 -5l-2 -3l-9 -2zM74 1080l2 6l4 -2l-4 -6zM106 1120l5 8l40 41 l-1 4q10 -5 61 63q24 -9 37 -4q6 -5 16 -35l3 -2l5 1l3 -2l15 -22l9 -5l5 8q19 -10 59 -69l17 -12l15 4l12 -7q30 -15 89 -107q4 -49 0 -57l-2 -2l-15 -4l-5 -17l-6 -8q-4 -8 -17 -3l-9 -21l-2 -4q-3 -6 -16 -1q-237 146 -316 214q-6 4 -2 39zM107 649l22 -213h9l4 53v93 q0 94 -22 94q-9 0 -13 -27zM111 1200v5l1 2l5 2l3 -2l1 -4l-2 -3l-4 -2zM134 733l14 5v8l-14 5v-18zM151 1028l5 1l12 -6l3 -10l-3 -5l-4 1q-17 14 -13 19zM157 742q13 -15 13 -44h9l9 8v23l-14 13h-17zM204 284h9v9h-9v-9zM213 236l5 -5h13v13h-9zM218 84q6 -40 40 -40h4 v18q-10 17 -35 31h-9v-9zM289 107q9 -23 31 -23q9 0 9 14q-9 26 -36 26l-4 -4v-13zM311 244l5 -13h13l22 5v8l-9 9h-22zM360 120l13 -13h5q13 0 22 40l-4 4h-5q-24 0 -31 -18v-13zM369 289l9 -9h4l18 18v22h-4q-16 -4 -27 -27v-4zM444 249l9 -9l5 4v18h-14v-13zM498 76 q33 -14 71 -14h22q8 0 18 27l-4 62v5h-14v-27q0 -34 -18 -40h-26l-27 22l-22 -31v-4zM605 489l8 -31q9 0 14 53l-9 89h-5z" />
<glyph unicode="&#xfa;" horiz-adv-x="756" d="M0 444l4 232l-3 75q10 40 58 40l31 -9l31 4q98 -13 102 -22q-5 -94 -23 -257q0 -162 67 -223h17q52 0 134 156l13 49l-8 275q22 9 45 36h22q10 0 13 -22h5q0 44 35 44q9 -6 9 -53q12 -18 62 -18q42 0 48 -31l18 -53l-4 -76l4 -66l-9 -81q9 -52 9 -146v-98 q0 -160 -49 -160l-31 -4l-22 4h-27q-102 0 -85 61l-57 -12q-61 -62 -191 -85l-14 -4q-35 0 -155 124q-32 51 -45 249zM36 538l4 -22l9 9v35l-9 9l-4 -4v-27zM37 693l4 -22h9v62l-9 9h-4v-49zM107 649l22 -213h9l4 53v93q0 94 -22 94q-9 0 -13 -27zM134 733l14 5v8l-14 5v-18 zM157 742q13 -15 13 -44h9l9 8v23l-14 13h-17zM198 927q-4 8 0 57q59 92 89 107l12 7l15 -4l17 12q40 59 64 61l9 5l15 22l3 2l5 -1l3 2q10 30 16 35q13 -5 37 4q51 -68 61 -63l-1 -4l40 -41l5 -8q24 -32 -2 -39q-79 -68 -316 -214q-13 -5 -16 1l-2 4l-9 21q-13 -5 -17 3 l-6 8l-5 17l-15 4zM204 284h9v9h-9v-9zM213 236l5 -5h13v13h-9zM218 84q6 -40 40 -40h4v18q-10 17 -35 31h-9v-9zM289 107q9 -23 31 -23q9 0 9 14q-9 26 -36 26l-4 -4v-13zM311 244l5 -13h13l22 5v8l-9 9h-22zM360 120l13 -13h5q13 0 22 40l-4 4h-5q-24 0 -31 -18v-13z M369 289l9 -9h4l18 18v22h-4q-16 -4 -27 -27v-4zM444 249l9 -9l5 4v18h-14v-13zM498 76q33 -14 71 -14h22q8 0 18 27l-4 62v5h-14v-27q0 -34 -18 -40h-26l-27 22l-22 -31v-4zM605 489l8 -31q9 0 14 53l-9 89h-5z" />
<glyph unicode="&#xfb;" horiz-adv-x="756" d="M0 444l4 232l-3 75q10 40 58 40l31 -9l31 4q98 -13 102 -22q-5 -94 -23 -257q0 -162 67 -223h17q52 0 134 156l13 49l-8 275q22 9 45 36h22q10 0 13 -22h5q0 44 35 44q9 -6 9 -53q12 -18 62 -18q42 0 48 -31l18 -53l-4 -76l4 -66l-9 -81q9 -52 9 -146v-98 q0 -160 -49 -160l-31 -4l-22 4h-27q-102 0 -85 61l-57 -12q-61 -62 -191 -85l-14 -4q-35 0 -155 124q-32 51 -45 249zM36 538l4 -22l9 9v35l-9 9l-4 -4v-27zM37 693l4 -22h9v62l-9 9h-4v-49zM78 1054q23 21 32 42q32 10 63 61l42 43q5 0 25 24q69 54 88 54l35 23h2 q29 -26 53 -51.5t46 -52.5t44 -55t46 -56q16 -10 26 -24l7 -7h-1q6 -8 12.5 -18t6.5 -16v-6q-5 -6 -16 -8l-9 2l-13 -2q-14 1 -14 3l-3 -1h-60l-22 -4q-9 0 -14.5 11t-18.5 33l-3 8q-15 19 -40 44t-59 56q-12 -6 -26 -15.5t-27.5 -24.5t-24.5 -35.5t-17 -48.5q20 -12 20 -19 q-3 -7 -30 1l-40 -8q-98 14 -98 25q-12 20 -12 22zM103 1040q6 -8 20 -8q5 0 7 8l-7 4h-20v-4zM107 649l22 -213h9l4 53v93q0 94 -22 94q-9 0 -13 -27zM134 733l14 5v8l-14 5v-18zM157 742q13 -15 13 -44h9l9 8v23l-14 13h-17zM160 1114h3l20 19v7l-5 4h-3zM175 1049l15 3v7 h-7l-8 -5v-5zM204 284h9v9h-9v-9zM205 1052l5 -3h5q10 3 10 12v7h-5l-15 -12v-4zM205 1098q18 7 18 16v3h-3q-5 0 -15 -12v-7zM213 236l5 -5h13v13h-9zM218 84q6 -40 40 -40h4v18q-10 17 -35 31h-9v-9zM247 1112h11l12 14v2h-3q0 -8 -14 -8l-6 -5v-3zM289 107q9 -23 31 -23 q9 0 9 14q-9 26 -36 26l-4 -4v-13zM301 1154q32 23 32 30h-8q-20 -19 -24 -30zM311 244l5 -13h13l22 5v8l-9 9h-22zM360 120l13 -13h5q13 0 22 40l-4 4h-5q-24 0 -31 -18v-13zM369 289l9 -9h4l18 18v22h-4q-16 -4 -27 -27v-4zM393 1247l2 -6h5v4l-5 4h-2v-2zM402 1194l6 -3 l2 3l-8 6v-6zM402 1238q2 -11 8 -11h2q-3 13 -10 13v-2zM415 1220q10 -7 10 -17l2 -2h6v5l-18 18v-4zM443 1128q0 -17 42 -35h7q-24 40 -44 40zM444 249l9 -9l5 4v18h-14v-13zM498 76q33 -14 71 -14h22q8 0 18 27l-4 62v5h-14v-27q0 -34 -18 -40h-26l-27 22l-22 -31v-4z M526 1046q19 -24 24 -24h12l5 4v2l-29 20zM605 489l8 -31q9 0 14 53l-9 89h-5z" />
<glyph unicode="&#xfc;" horiz-adv-x="756" d="M0 444l4 232l-3 75q10 40 58 40l31 -9l31 4q98 -13 102 -22q-5 -94 -23 -257q0 -162 67 -223h17q52 0 134 156l13 49l-8 275q22 9 45 36h22q10 0 13 -22h5q0 44 35 44q9 -6 9 -53q12 -18 62 -18q42 0 48 -31l18 -53l-4 -76l4 -66l-9 -81q9 -52 9 -146v-98 q0 -160 -49 -160l-31 -4l-22 4h-27q-102 0 -85 61l-57 -12q-61 -62 -191 -85l-14 -4q-35 0 -155 124q-32 51 -45 249zM36 538l4 -22l9 9v35l-9 9l-4 -4v-27zM37 693l4 -22h9v62l-9 9h-4v-49zM80 1173q25 126 147 130q31 -30 44.5 -49.5t14.5 -28.5l1 -12q0 -44 -30 -75.5 t-92 -53.5q-33 0 -49.5 8.5t-17.5 29.5q-16 1 -17 34zM107 649l22 -213h9l4 53v93q0 94 -22 94q-9 0 -13 -27zM134 733l14 5v8l-14 5v-18zM157 742q13 -15 13 -44h9l9 8v23l-14 13h-17zM204 284h9v9h-9v-9zM213 236l5 -5h13v13h-9zM218 84q6 -40 40 -40h4v18q-10 17 -35 31 h-9v-9zM289 107q9 -23 31 -23q9 0 9 14q-9 26 -36 26l-4 -4v-13zM311 244l5 -13h13l22 5v8l-9 9h-22zM360 120l13 -13h5q13 0 22 40l-4 4h-5q-24 0 -31 -18v-13zM369 289l9 -9h4l18 18v22h-4q-16 -4 -27 -27v-4zM427 1173q27 126 148 130q30 -30 43.5 -49.5t14.5 -28.5 l1 -12q0 -44 -29.5 -75.5t-92.5 -53.5q-33 0 -49.5 8.5t-17.5 29.5q-16 1 -17 34zM444 249l9 -9l5 4v18h-14v-13zM498 76q33 -14 71 -14h22q8 0 18 27l-4 62v5h-14v-27q0 -34 -18 -40h-26l-27 22l-22 -31v-4zM605 489l8 -31q9 0 14 53l-9 89h-5z" />
<glyph unicode="&#xfd;" horiz-adv-x="868" d="M0 -408l5 127q0 22 150 38q84 0 71 23q28 40 28 84q17 0 47 94q10 0 24 47q6 0 19 42l9 10l-70 136q0 14 -127 276l-42 99q-12 0 -64 180v24q0 11 24 14l145 5q42 0 87 -186q21 -17 52 -117q8 -4 56 -117l5 -14l4 -5q0 -14 10 -14q14 0 47 99q95 280 124 358l28 5 l150 -52l4 -4v-5q12 -128 -30 -223q-27 -91 -65 -173q0 -22 -94 -253l-117 -254l-15 -23q-29 -110 -52 -89q-37 -68 -89 -99q-26 -23 -108 -37v4q0 -15 -174 -23h-28q-11 0 -14 23zM70 -384v-9l14 4l19 -4q66 6 66 28l-10 9q-59 -28 -89 -28zM200 744l5 -5h5l4 5v9h-4z M238 720h4v10h-4v-10zM263 -351v-14h4v14h-4zM273 927q-4 8 0 57q59 92 89 107l12 7l15 -4l17 12q40 59 64 61l9 5l15 22l3 2l5 -1l3 2q10 30 16 35q13 -5 37 4q51 -68 61 -63l-1 -4l40 -41l5 -8q24 -32 -2 -39q-79 -68 -316 -214q-13 -5 -16 1l-2 4l-9 21q-13 -5 -17 3 l-6 8l-5 17l-15 4zM301 235q0 -14 43 -84q0 -23 46 -76h5v29q-60 77 -80 136h-4l-5 -5h-5zM334 441q0 -45 66 -164h9v10q-56 150 -65 154h-10zM381 -173v-19h5l9 10v23zM404 -131v-14l10 9v15zM419 -103v-4h4q10 0 14 28l-4 4h-5zM442 -37v-5l9 -9l5 5v18h-5zM517 52l5 -23 q28 24 28 46l-14 10q-19 -7 -19 -14v-19zM616 484h4l5 18h-9v-18zM644 404h4q19 7 19 33l-9 9zM662 601h5v9h-5v-9zM667 620h5l16 110h14l9 -10l12 -105h19l7 96q0 23 -75 33q-19 -7 -7 -124zM677 474q37 39 37 70v5h-9q-11 0 -28 -65v-10z" />
<glyph unicode="&#xfe;" d="M91 66l8 82l-4 20l20 288v30l4 21l-4 20v62l4 26l-4 30l8 190q-12 127 -12 221l4 108q-11 55 -16 395l28 15h4q16 -6 16 -67h4v47l-4 15l4 5q-6 0 -16 36q0 18 40 36l32 -26q3 16 32 16q20 -9 20 -26l40 5l12 -31l-8 -261l4 -5v-6l-4 -5l8 -154l-8 -179q8 -95 12 -436 l-8 -401q-13 -133 -28 -133q-14 0 -32 21l-12 -11h-8l-12 11h-36q-28 -2 -28 -11q-56 0 -56 21zM136 1183q36 10 51 27h28q0 14 9 14h79q56 -19 56 -60v-51q18 -255 37 -352l-5 -5v-5q9 -57 19 -69l-5 -23q0 -34 28 -84q58 63 167 84l32 4q81 -9 163 -88q78 -100 78 -176 l5 -19q0 -150 -60 -232q0 -22 -112 -102l-88 -46l-23 5l-69 -5q-110 22 -153 65l-10 9v-4l5 -28l-42 -28h-107q-55 15 -55 32l4 65l-4 5v5q14 48 23 366q9 0 9 32v19q-14 29 -23 260q-8 0 -9 46v167q0 46 -28 172zM147 1466h4v16h-4v-16zM206 42l9 -10h14v5l-23 9v-4z M206 227h4v14h-4v-14zM206 645q13 -82 13 -149h5l5 47v18l-14 56v4l4 5l-4 23l-5 -4h-4zM210 408h5v23h-5v-23zM215 464h4v18h-4v-18zM224 74q6 -19 23 -28h14v33l-14 14h-4zM255 1513h4v51h-4v-51zM270 1122h5v14h-5v-14zM270 1150h5v14h-5v-14zM317 1183l5 -33v-42l9 10 v55l-9 10h-5zM335 51h5v23h-5v-23zM373 97q43 -46 55 -46v5q0 8 -23 14q0 16 -28 41h-4v-14zM377 621l5 -23h4v33l-9 9v-19zM396 547h4v10h-4v-10zM414 121l19 -5l-19 14v-9zM447 315h4v19h-4v-19zM451 348h5v14h-5v-14zM465 340q13 -130 101 -130q99 0 141 148 q-54 116 -70 118q-107 0 -149 -59q-15 -12 -23 -77zM475 441l13 13l-13 19v-32zM498 14h46l-5 5v4l5 5h33v9h-14l-65 -18v-5zM512 79l23 -9q21 9 23 18v5l-9 9q-26 -8 -37 -23zM549 195l9 -9h14l14 13l-14 5l-23 -5v-4zM553 492l24 -5q0 8 -24 14v-9zM590 575l5 -5l37 14v10 l-18 18h-10q-14 -3 -14 -37zM600 441l28 -10v14l-14 14h-14v-18zM632 454l14 -4v9l-5 14h-9v-19zM651 362h4v9h-4v-9zM688 74l9 9v5l-9 9v-23zM711 264h5l4 19v9h-4l-5 -23v-5zM725 594l32 -24v5l-27 23h-5v-4zM762 478h9l5 23l-5 4h-9v-27zM785 524h5v9h-5v-9zM795 519 l13 -14v5l-9 9h-4z" />
</font>
</defs>
</svg>
